G04 #@! TF.GenerationSoftware,KiCad,Pcbnew,(5.1.6-0-10_14)*
G04 #@! TF.CreationDate,2021-05-11T12:02:37-04:00*
G04 #@! TF.ProjectId,venti-zero,76656e74-692d-47a6-9572-6f2e6b696361,1.0*
G04 #@! TF.SameCoordinates,Original*
G04 #@! TF.FileFunction,Copper,L1,Top*
G04 #@! TF.FilePolarity,Positive*
%FSLAX46Y46*%
G04 Gerber Fmt 4.6, Leading zero omitted, Abs format (unit mm)*
G04 Created by KiCad (PCBNEW (5.1.6-0-10_14)) date 2021-05-11 12:02:37*
%MOMM*%
%LPD*%
G01*
G04 APERTURE LIST*
G04 #@! TA.AperFunction,ComponentPad*
%ADD10R,1.270000X1.270000*%
G04 #@! TD*
G04 #@! TA.AperFunction,ComponentPad*
%ADD11C,1.270000*%
G04 #@! TD*
G04 #@! TA.AperFunction,ViaPad*
%ADD12R,1.570000X1.570000*%
G04 #@! TD*
G04 #@! TA.AperFunction,ViaPad*
%ADD13C,1.570000*%
G04 #@! TD*
G04 #@! TA.AperFunction,ComponentPad*
%ADD14C,1.524000*%
G04 #@! TD*
G04 #@! TA.AperFunction,ComponentPad*
%ADD15R,1.524000X1.524000*%
G04 #@! TD*
G04 #@! TA.AperFunction,ComponentPad*
%ADD16R,1.700000X1.700000*%
G04 #@! TD*
G04 #@! TA.AperFunction,ComponentPad*
%ADD17O,1.700000X1.700000*%
G04 #@! TD*
G04 #@! TA.AperFunction,ComponentPad*
%ADD18R,1.508000X1.508000*%
G04 #@! TD*
G04 #@! TA.AperFunction,ComponentPad*
%ADD19C,1.508000*%
G04 #@! TD*
G04 #@! TA.AperFunction,ComponentPad*
%ADD20C,3.516000*%
G04 #@! TD*
G04 #@! TA.AperFunction,Conductor*
%ADD21C,0.250000*%
G04 #@! TD*
G04 #@! TA.AperFunction,Conductor*
%ADD22C,1.000000*%
G04 #@! TD*
G04 APERTURE END LIST*
D10*
X173229000Y-98378000D03*
D11*
X170689000Y-98378000D03*
X168149000Y-98378000D03*
X165609000Y-98378000D03*
X163069000Y-98378000D03*
X160529000Y-98378000D03*
X157989000Y-98378000D03*
X155449000Y-98378000D03*
X155449000Y-105998000D03*
X157989000Y-105998000D03*
X160529000Y-105998000D03*
X163069000Y-105998000D03*
X165609000Y-105998000D03*
X168149000Y-105998000D03*
X170689000Y-105998000D03*
X173229000Y-105998000D03*
D12*
X172292000Y-118358000D03*
D13*
X169292000Y-118358000D03*
X166292000Y-118358000D03*
X172292000Y-115358000D03*
X169292000Y-115358000D03*
X166292000Y-115358000D03*
D14*
X121032000Y-102188000D03*
X121032000Y-104728000D03*
X121032000Y-107268000D03*
D15*
X121032000Y-109808000D03*
X178944000Y-109808000D03*
D14*
X178944000Y-107268000D03*
X178944000Y-104728000D03*
X178944000Y-102188000D03*
D16*
X125902000Y-95838000D03*
D17*
X125902000Y-93298000D03*
X128442000Y-95838000D03*
X128442000Y-93298000D03*
X130982000Y-95838000D03*
X130982000Y-93298000D03*
X133522000Y-95838000D03*
X133522000Y-93298000D03*
X136062000Y-95838000D03*
X136062000Y-93298000D03*
X138602000Y-95838000D03*
X138602000Y-93298000D03*
X141142000Y-95838000D03*
X141142000Y-93298000D03*
X143682000Y-95838000D03*
X143682000Y-93298000D03*
X146222000Y-95838000D03*
X146222000Y-93298000D03*
X148762000Y-95838000D03*
X148762000Y-93298000D03*
X151302000Y-95838000D03*
X151302000Y-93298000D03*
X153842000Y-95838000D03*
X153842000Y-93298000D03*
X156382000Y-95838000D03*
X156382000Y-93298000D03*
X158922000Y-95838000D03*
X158922000Y-93298000D03*
X161462000Y-95838000D03*
X161462000Y-93298000D03*
X164002000Y-95838000D03*
X164002000Y-93298000D03*
X166542000Y-95838000D03*
X166542000Y-93298000D03*
X169082000Y-95838000D03*
X169082000Y-93298000D03*
X171622000Y-95838000D03*
X171622000Y-93298000D03*
X174162000Y-95838000D03*
X174162000Y-93298000D03*
D18*
X150369000Y-118634500D03*
D19*
X147829000Y-118634500D03*
X145289000Y-118634500D03*
X142749000Y-118634500D03*
X140209000Y-118634500D03*
X137669000Y-118634500D03*
X135129000Y-118634500D03*
X132589000Y-118634500D03*
X130049000Y-118634500D03*
X127509000Y-118634500D03*
D20*
X127509000Y-105934500D03*
X150369000Y-105934500D03*
D21*
X133668001Y-119713501D02*
X132589000Y-118634500D01*
X173091501Y-119713501D02*
X133668001Y-119713501D01*
X173402001Y-119403001D02*
X173091501Y-119713501D01*
X173402001Y-116361999D02*
X173402001Y-119403001D01*
X178944000Y-110820000D02*
X173402001Y-116361999D01*
X178944000Y-109808000D02*
X178944000Y-110820000D01*
X123762500Y-109808000D02*
X121032000Y-109808000D01*
X132589000Y-118634500D02*
X123762500Y-109808000D01*
X124257001Y-94942999D02*
X125902000Y-93298000D01*
X124257001Y-100937759D02*
X124257001Y-94942999D01*
X121553761Y-103640999D02*
X124257001Y-100937759D01*
X120510239Y-103640999D02*
X121553761Y-103640999D01*
X119944999Y-104206239D02*
X120510239Y-103640999D01*
X119944999Y-108720999D02*
X119944999Y-104206239D01*
X121032000Y-109808000D02*
X119944999Y-108720999D01*
X125902000Y-93298000D02*
X128442000Y-93298000D01*
X161462000Y-93998000D02*
X161462000Y-93298000D01*
X175389010Y-103713010D02*
X178944000Y-107268000D01*
X175389010Y-97065010D02*
X175389010Y-103713010D01*
X174162000Y-95838000D02*
X175389010Y-97065010D01*
X173229000Y-98378000D02*
X165609000Y-98378000D01*
X139777001Y-97013001D02*
X138602000Y-95838000D01*
X164244001Y-97013001D02*
X139777001Y-97013001D01*
X165609000Y-98378000D02*
X164244001Y-97013001D01*
D22*
X172292000Y-118358000D02*
X166292000Y-118358000D01*
X155449000Y-107515000D02*
X155449000Y-105998000D01*
X166292000Y-118358000D02*
X155449000Y-107515000D01*
D21*
X133859499Y-117555499D02*
X121032000Y-104728000D01*
X139129999Y-117555499D02*
X133859499Y-117555499D01*
X140209000Y-118634500D02*
X139129999Y-117555499D01*
D22*
X172292000Y-115358000D02*
X172429000Y-115358000D01*
X168919803Y-99713001D02*
X156784001Y-99713001D01*
X156784001Y-99713001D02*
X155449000Y-98378000D01*
X174564001Y-113222999D02*
X174564001Y-105357199D01*
X174564001Y-105357199D02*
X168919803Y-99713001D01*
X172429000Y-115358000D02*
X174564001Y-113222999D01*
X165609000Y-105998000D02*
X173229000Y-105998000D01*
X169292000Y-109681000D02*
X165609000Y-105998000D01*
X169292000Y-115358000D02*
X169292000Y-109681000D01*
X163069000Y-105998000D02*
X157989000Y-105998000D01*
X157989000Y-105998000D02*
X158116000Y-105871000D01*
X166222001Y-115288001D02*
X166292000Y-115358000D01*
X166222001Y-109151001D02*
X166222001Y-115288001D01*
X163069000Y-105998000D02*
X166222001Y-109151001D01*
M02*
