G04 #@! TF.GenerationSoftware,KiCad,Pcbnew,(5.1.6-0-10_14)*
G04 #@! TF.CreationDate,2021-05-11T12:02:37-04:00*
G04 #@! TF.ProjectId,venti-zero,76656e74-692d-47a6-9572-6f2e6b696361,1.0*
G04 #@! TF.SameCoordinates,Original*
G04 #@! TF.FileFunction,Legend,Bot*
G04 #@! TF.FilePolarity,Positive*
%FSLAX46Y46*%
G04 Gerber Fmt 4.6, Leading zero omitted, Abs format (unit mm)*
G04 Created by KiCad (PCBNEW (5.1.6-0-10_14)) date 2021-05-11 12:02:37*
%MOMM*%
%LPD*%
G01*
G04 APERTURE LIST*
%ADD10C,0.010000*%
%ADD11C,0.120000*%
%ADD12C,0.150000*%
G04 APERTURE END LIST*
D10*
G36*
X169540365Y-113512279D02*
G01*
X169239406Y-113679871D01*
X168991819Y-113945994D01*
X168986186Y-113954430D01*
X168853065Y-114253743D01*
X168804972Y-114592317D01*
X168842509Y-114926394D01*
X168966282Y-115212217D01*
X168968774Y-115215878D01*
X169230329Y-115498713D01*
X169547471Y-115683714D01*
X169896241Y-115764119D01*
X170252679Y-115733163D01*
X170487815Y-115644744D01*
X170786433Y-115426550D01*
X170995681Y-115135924D01*
X171107020Y-114798391D01*
X171111913Y-114439473D01*
X171006487Y-114094221D01*
X170798347Y-113794043D01*
X170523686Y-113584101D01*
X170206483Y-113466053D01*
X169870717Y-113441560D01*
X169540365Y-113512279D01*
G37*
X169540365Y-113512279D02*
X169239406Y-113679871D01*
X168991819Y-113945994D01*
X168986186Y-113954430D01*
X168853065Y-114253743D01*
X168804972Y-114592317D01*
X168842509Y-114926394D01*
X168966282Y-115212217D01*
X168968774Y-115215878D01*
X169230329Y-115498713D01*
X169547471Y-115683714D01*
X169896241Y-115764119D01*
X170252679Y-115733163D01*
X170487815Y-115644744D01*
X170786433Y-115426550D01*
X170995681Y-115135924D01*
X171107020Y-114798391D01*
X171111913Y-114439473D01*
X171006487Y-114094221D01*
X170798347Y-113794043D01*
X170523686Y-113584101D01*
X170206483Y-113466053D01*
X169870717Y-113441560D01*
X169540365Y-113512279D01*
G36*
X166041521Y-111318393D02*
G01*
X165677298Y-111488396D01*
X165379696Y-111759102D01*
X165323832Y-111833064D01*
X165225202Y-111986020D01*
X165167769Y-112124493D01*
X165140640Y-112292314D01*
X165132924Y-112533313D01*
X165132750Y-112602000D01*
X165137684Y-112865998D01*
X165159762Y-113047300D01*
X165209895Y-113190057D01*
X165298999Y-113338419D01*
X165323673Y-113374404D01*
X165508159Y-113573743D01*
X165753876Y-113750385D01*
X166025486Y-113887029D01*
X166287647Y-113966372D01*
X166505020Y-113971113D01*
X166529750Y-113964873D01*
X166630752Y-113942465D01*
X166795864Y-113912202D01*
X166824168Y-113907424D01*
X167039657Y-113827371D01*
X167282968Y-113665712D01*
X167347768Y-113611320D01*
X167607093Y-113309858D01*
X167758486Y-112973976D01*
X167809206Y-112622735D01*
X167766513Y-112275196D01*
X167637665Y-111950417D01*
X167429922Y-111667460D01*
X167150543Y-111445385D01*
X166806787Y-111303250D01*
X166452035Y-111259428D01*
X166041521Y-111318393D01*
G37*
X166041521Y-111318393D02*
X165677298Y-111488396D01*
X165379696Y-111759102D01*
X165323832Y-111833064D01*
X165225202Y-111986020D01*
X165167769Y-112124493D01*
X165140640Y-112292314D01*
X165132924Y-112533313D01*
X165132750Y-112602000D01*
X165137684Y-112865998D01*
X165159762Y-113047300D01*
X165209895Y-113190057D01*
X165298999Y-113338419D01*
X165323673Y-113374404D01*
X165508159Y-113573743D01*
X165753876Y-113750385D01*
X166025486Y-113887029D01*
X166287647Y-113966372D01*
X166505020Y-113971113D01*
X166529750Y-113964873D01*
X166630752Y-113942465D01*
X166795864Y-113912202D01*
X166824168Y-113907424D01*
X167039657Y-113827371D01*
X167282968Y-113665712D01*
X167347768Y-113611320D01*
X167607093Y-113309858D01*
X167758486Y-112973976D01*
X167809206Y-112622735D01*
X167766513Y-112275196D01*
X167637665Y-111950417D01*
X167429922Y-111667460D01*
X167150543Y-111445385D01*
X166806787Y-111303250D01*
X166452035Y-111259428D01*
X166041521Y-111318393D01*
G36*
X140419858Y-109528542D02*
G01*
X139984878Y-109651404D01*
X139600868Y-109863761D01*
X139288084Y-110161339D01*
X139192041Y-110295990D01*
X139096459Y-110467618D01*
X139048482Y-110597238D01*
X139051884Y-110644783D01*
X139133182Y-110693165D01*
X139295731Y-110769936D01*
X139478911Y-110847932D01*
X139856346Y-111001489D01*
X139968593Y-110816914D01*
X140177606Y-110586800D01*
X140456157Y-110439020D01*
X140774642Y-110376540D01*
X141103454Y-110402328D01*
X141412986Y-110519348D01*
X141598502Y-110653604D01*
X141809749Y-110928143D01*
X141937975Y-111267663D01*
X141982323Y-111640305D01*
X141941937Y-112014211D01*
X141815960Y-112357521D01*
X141650595Y-112591291D01*
X141363471Y-112813331D01*
X141020867Y-112921825D01*
X140838793Y-112934153D01*
X140541266Y-112890855D01*
X140257278Y-112774961D01*
X140027705Y-112607474D01*
X139915322Y-112459667D01*
X139824594Y-112284219D01*
X139588172Y-112387116D01*
X139384893Y-112474016D01*
X139197532Y-112551709D01*
X139177125Y-112559928D01*
X139054483Y-112625111D01*
X139013970Y-112706830D01*
X139056413Y-112830635D01*
X139182639Y-113022081D01*
X139192512Y-113035748D01*
X139498663Y-113354519D01*
X139886278Y-113595191D01*
X140330953Y-113749817D01*
X140808285Y-113810447D01*
X141293870Y-113769135D01*
X141383750Y-113749420D01*
X141850461Y-113574923D01*
X142245404Y-113296435D01*
X142563705Y-112917919D01*
X142698509Y-112680449D01*
X142798382Y-112466868D01*
X142860134Y-112291901D01*
X142892684Y-112111347D01*
X142904947Y-111881002D01*
X142906200Y-111650835D01*
X142898707Y-111325345D01*
X142874000Y-111085923D01*
X142825794Y-110892108D01*
X142764662Y-110739576D01*
X142535525Y-110330534D01*
X142257739Y-110019540D01*
X141906257Y-109779855D01*
X141828080Y-109739677D01*
X141361714Y-109568405D01*
X140885555Y-109499451D01*
X140419858Y-109528542D01*
G37*
X140419858Y-109528542D02*
X139984878Y-109651404D01*
X139600868Y-109863761D01*
X139288084Y-110161339D01*
X139192041Y-110295990D01*
X139096459Y-110467618D01*
X139048482Y-110597238D01*
X139051884Y-110644783D01*
X139133182Y-110693165D01*
X139295731Y-110769936D01*
X139478911Y-110847932D01*
X139856346Y-111001489D01*
X139968593Y-110816914D01*
X140177606Y-110586800D01*
X140456157Y-110439020D01*
X140774642Y-110376540D01*
X141103454Y-110402328D01*
X141412986Y-110519348D01*
X141598502Y-110653604D01*
X141809749Y-110928143D01*
X141937975Y-111267663D01*
X141982323Y-111640305D01*
X141941937Y-112014211D01*
X141815960Y-112357521D01*
X141650595Y-112591291D01*
X141363471Y-112813331D01*
X141020867Y-112921825D01*
X140838793Y-112934153D01*
X140541266Y-112890855D01*
X140257278Y-112774961D01*
X140027705Y-112607474D01*
X139915322Y-112459667D01*
X139824594Y-112284219D01*
X139588172Y-112387116D01*
X139384893Y-112474016D01*
X139197532Y-112551709D01*
X139177125Y-112559928D01*
X139054483Y-112625111D01*
X139013970Y-112706830D01*
X139056413Y-112830635D01*
X139182639Y-113022081D01*
X139192512Y-113035748D01*
X139498663Y-113354519D01*
X139886278Y-113595191D01*
X140330953Y-113749817D01*
X140808285Y-113810447D01*
X141293870Y-113769135D01*
X141383750Y-113749420D01*
X141850461Y-113574923D01*
X142245404Y-113296435D01*
X142563705Y-112917919D01*
X142698509Y-112680449D01*
X142798382Y-112466868D01*
X142860134Y-112291901D01*
X142892684Y-112111347D01*
X142904947Y-111881002D01*
X142906200Y-111650835D01*
X142898707Y-111325345D01*
X142874000Y-111085923D01*
X142825794Y-110892108D01*
X142764662Y-110739576D01*
X142535525Y-110330534D01*
X142257739Y-110019540D01*
X141906257Y-109779855D01*
X141828080Y-109739677D01*
X141361714Y-109568405D01*
X140885555Y-109499451D01*
X140419858Y-109528542D01*
G36*
X136265680Y-109522038D02*
G01*
X135893040Y-109578325D01*
X135622527Y-109670927D01*
X135235377Y-109928732D01*
X134924768Y-110276294D01*
X134702143Y-110694327D01*
X134578942Y-111163539D01*
X134557500Y-111466291D01*
X134557500Y-111840000D01*
X136081500Y-111840000D01*
X136559350Y-111840286D01*
X136925163Y-111842019D01*
X137193904Y-111846507D01*
X137380535Y-111855058D01*
X137500022Y-111868980D01*
X137567327Y-111889584D01*
X137597414Y-111918176D01*
X137605246Y-111956066D01*
X137605500Y-111973278D01*
X137553296Y-112208942D01*
X137414273Y-112458475D01*
X137214813Y-112678181D01*
X137147887Y-112731199D01*
X136806103Y-112907718D01*
X136448494Y-112963721D01*
X136093730Y-112900918D01*
X135760480Y-112721017D01*
X135610473Y-112590413D01*
X135357091Y-112337032D01*
X134989046Y-112512941D01*
X134799855Y-112608996D01*
X134667038Y-112687181D01*
X134621000Y-112728165D01*
X134663654Y-112826483D01*
X134773644Y-112978687D01*
X134924013Y-113153585D01*
X135087808Y-113319986D01*
X135238070Y-113446701D01*
X135248075Y-113453757D01*
X135649132Y-113660085D01*
X136109896Y-113778143D01*
X136594779Y-113803613D01*
X137068194Y-113732180D01*
X137203390Y-113690957D01*
X137642177Y-113475895D01*
X138003584Y-113167702D01*
X138279614Y-112779619D01*
X138462273Y-112324885D01*
X138543564Y-111816741D01*
X138539399Y-111478663D01*
X138477762Y-111141500D01*
X137550559Y-111141500D01*
X135496233Y-111141500D01*
X135539574Y-110966875D01*
X135663890Y-110704118D01*
X135873521Y-110506312D01*
X136142294Y-110377584D01*
X136444036Y-110322063D01*
X136752573Y-110343879D01*
X137041731Y-110447159D01*
X137285338Y-110636032D01*
X137326703Y-110684967D01*
X137435000Y-110848409D01*
X137505607Y-110998625D01*
X137550559Y-111141500D01*
X138477762Y-111141500D01*
X138445010Y-110962343D01*
X138250093Y-110498284D01*
X137965169Y-110102740D01*
X137600763Y-109791961D01*
X137360973Y-109658722D01*
X137046751Y-109561906D01*
X136665952Y-109516455D01*
X136265680Y-109522038D01*
G37*
X136265680Y-109522038D02*
X135893040Y-109578325D01*
X135622527Y-109670927D01*
X135235377Y-109928732D01*
X134924768Y-110276294D01*
X134702143Y-110694327D01*
X134578942Y-111163539D01*
X134557500Y-111466291D01*
X134557500Y-111840000D01*
X136081500Y-111840000D01*
X136559350Y-111840286D01*
X136925163Y-111842019D01*
X137193904Y-111846507D01*
X137380535Y-111855058D01*
X137500022Y-111868980D01*
X137567327Y-111889584D01*
X137597414Y-111918176D01*
X137605246Y-111956066D01*
X137605500Y-111973278D01*
X137553296Y-112208942D01*
X137414273Y-112458475D01*
X137214813Y-112678181D01*
X137147887Y-112731199D01*
X136806103Y-112907718D01*
X136448494Y-112963721D01*
X136093730Y-112900918D01*
X135760480Y-112721017D01*
X135610473Y-112590413D01*
X135357091Y-112337032D01*
X134989046Y-112512941D01*
X134799855Y-112608996D01*
X134667038Y-112687181D01*
X134621000Y-112728165D01*
X134663654Y-112826483D01*
X134773644Y-112978687D01*
X134924013Y-113153585D01*
X135087808Y-113319986D01*
X135238070Y-113446701D01*
X135248075Y-113453757D01*
X135649132Y-113660085D01*
X136109896Y-113778143D01*
X136594779Y-113803613D01*
X137068194Y-113732180D01*
X137203390Y-113690957D01*
X137642177Y-113475895D01*
X138003584Y-113167702D01*
X138279614Y-112779619D01*
X138462273Y-112324885D01*
X138543564Y-111816741D01*
X138539399Y-111478663D01*
X138477762Y-111141500D01*
X137550559Y-111141500D01*
X135496233Y-111141500D01*
X135539574Y-110966875D01*
X135663890Y-110704118D01*
X135873521Y-110506312D01*
X136142294Y-110377584D01*
X136444036Y-110322063D01*
X136752573Y-110343879D01*
X137041731Y-110447159D01*
X137285338Y-110636032D01*
X137326703Y-110684967D01*
X137435000Y-110848409D01*
X137505607Y-110998625D01*
X137550559Y-111141500D01*
X138477762Y-111141500D01*
X138445010Y-110962343D01*
X138250093Y-110498284D01*
X137965169Y-110102740D01*
X137600763Y-109791961D01*
X137360973Y-109658722D01*
X137046751Y-109561906D01*
X136665952Y-109516455D01*
X136265680Y-109522038D01*
G36*
X128795745Y-109528556D02*
G01*
X128579703Y-109545124D01*
X128406271Y-109583560D01*
X128233343Y-109651406D01*
X128133806Y-109698766D01*
X127716521Y-109973429D01*
X127373351Y-110348793D01*
X127139614Y-110752879D01*
X127051913Y-110968446D01*
X127001596Y-111173190D01*
X126979483Y-111417371D01*
X126975876Y-111649500D01*
X126983560Y-111951548D01*
X127012677Y-112180201D01*
X127073448Y-112388564D01*
X127156071Y-112585964D01*
X127409043Y-113003851D01*
X127749820Y-113355443D01*
X128151661Y-113613791D01*
X128196345Y-113634427D01*
X128494823Y-113725662D01*
X128863449Y-113778269D01*
X129250451Y-113789174D01*
X129604056Y-113755306D01*
X129734640Y-113725733D01*
X130190004Y-113533337D01*
X130578750Y-113238196D01*
X130887327Y-112852946D01*
X131070516Y-112480038D01*
X131139211Y-112268235D01*
X131176070Y-112060475D01*
X131186562Y-111810232D01*
X131179753Y-111550694D01*
X131176434Y-111523342D01*
X130279401Y-111523342D01*
X130273207Y-111829479D01*
X130170959Y-112179036D01*
X130007922Y-112480825D01*
X129804202Y-112699887D01*
X129751875Y-112736030D01*
X129397781Y-112899665D01*
X129050244Y-112941322D01*
X128689799Y-112861770D01*
X128514473Y-112784771D01*
X128239222Y-112580861D01*
X128040817Y-112298720D01*
X127923463Y-111964290D01*
X127891365Y-111603513D01*
X127948730Y-111242333D01*
X128099762Y-110906693D01*
X128189873Y-110782321D01*
X128450839Y-110559605D01*
X128777847Y-110421207D01*
X129134569Y-110376279D01*
X129484678Y-110433978D01*
X129520992Y-110446894D01*
X129794680Y-110612715D01*
X130024384Y-110869587D01*
X130191994Y-111184224D01*
X130279401Y-111523342D01*
X131176434Y-111523342D01*
X131116030Y-111025617D01*
X130969455Y-110587780D01*
X130734264Y-110223497D01*
X130537255Y-110024957D01*
X130243017Y-109798604D01*
X129955448Y-109649502D01*
X129635592Y-109564169D01*
X129244491Y-109529121D01*
X129096500Y-109526314D01*
X128795745Y-109528556D01*
G37*
X128795745Y-109528556D02*
X128579703Y-109545124D01*
X128406271Y-109583560D01*
X128233343Y-109651406D01*
X128133806Y-109698766D01*
X127716521Y-109973429D01*
X127373351Y-110348793D01*
X127139614Y-110752879D01*
X127051913Y-110968446D01*
X127001596Y-111173190D01*
X126979483Y-111417371D01*
X126975876Y-111649500D01*
X126983560Y-111951548D01*
X127012677Y-112180201D01*
X127073448Y-112388564D01*
X127156071Y-112585964D01*
X127409043Y-113003851D01*
X127749820Y-113355443D01*
X128151661Y-113613791D01*
X128196345Y-113634427D01*
X128494823Y-113725662D01*
X128863449Y-113778269D01*
X129250451Y-113789174D01*
X129604056Y-113755306D01*
X129734640Y-113725733D01*
X130190004Y-113533337D01*
X130578750Y-113238196D01*
X130887327Y-112852946D01*
X131070516Y-112480038D01*
X131139211Y-112268235D01*
X131176070Y-112060475D01*
X131186562Y-111810232D01*
X131179753Y-111550694D01*
X131176434Y-111523342D01*
X130279401Y-111523342D01*
X130273207Y-111829479D01*
X130170959Y-112179036D01*
X130007922Y-112480825D01*
X129804202Y-112699887D01*
X129751875Y-112736030D01*
X129397781Y-112899665D01*
X129050244Y-112941322D01*
X128689799Y-112861770D01*
X128514473Y-112784771D01*
X128239222Y-112580861D01*
X128040817Y-112298720D01*
X127923463Y-111964290D01*
X127891365Y-111603513D01*
X127948730Y-111242333D01*
X128099762Y-110906693D01*
X128189873Y-110782321D01*
X128450839Y-110559605D01*
X128777847Y-110421207D01*
X129134569Y-110376279D01*
X129484678Y-110433978D01*
X129520992Y-110446894D01*
X129794680Y-110612715D01*
X130024384Y-110869587D01*
X130191994Y-111184224D01*
X130279401Y-111523342D01*
X131176434Y-111523342D01*
X131116030Y-111025617D01*
X130969455Y-110587780D01*
X130734264Y-110223497D01*
X130537255Y-110024957D01*
X130243017Y-109798604D01*
X129955448Y-109649502D01*
X129635592Y-109564169D01*
X129244491Y-109529121D01*
X129096500Y-109526314D01*
X128795745Y-109528556D01*
G36*
X132589000Y-109617500D02*
G01*
X131636500Y-109617500D01*
X131636500Y-110443000D01*
X132597363Y-110443000D01*
X132577307Y-111516019D01*
X132568567Y-111914727D01*
X132557882Y-112206620D01*
X132542823Y-112411884D01*
X132520962Y-112550703D01*
X132489872Y-112643263D01*
X132447124Y-112709747D01*
X132431547Y-112727754D01*
X132312307Y-112821071D01*
X132157247Y-112847116D01*
X132050547Y-112840285D01*
X131857337Y-112811262D01*
X131704893Y-112772884D01*
X131684125Y-112764757D01*
X131626137Y-112751261D01*
X131592672Y-112790793D01*
X131577163Y-112906885D01*
X131573042Y-113123067D01*
X131573000Y-113162958D01*
X131583028Y-113412358D01*
X131610427Y-113586403D01*
X131645158Y-113655100D01*
X131773727Y-113692526D01*
X131984872Y-113714605D01*
X132235051Y-113720958D01*
X132480723Y-113711208D01*
X132678350Y-113684978D01*
X132747750Y-113664668D01*
X132998090Y-113548090D01*
X133163700Y-113427887D01*
X133283372Y-113270915D01*
X133344815Y-113154527D01*
X133391616Y-113047751D01*
X133426043Y-112934944D01*
X133449964Y-112795159D01*
X133465249Y-112607448D01*
X133473765Y-112350864D01*
X133477381Y-112004459D01*
X133478000Y-111661201D01*
X133478000Y-110443000D01*
X134240000Y-110443000D01*
X134240000Y-109617500D01*
X133478000Y-109617500D01*
X133478000Y-108474500D01*
X132589000Y-108474500D01*
X132589000Y-109617500D01*
G37*
X132589000Y-109617500D02*
X131636500Y-109617500D01*
X131636500Y-110443000D01*
X132597363Y-110443000D01*
X132577307Y-111516019D01*
X132568567Y-111914727D01*
X132557882Y-112206620D01*
X132542823Y-112411884D01*
X132520962Y-112550703D01*
X132489872Y-112643263D01*
X132447124Y-112709747D01*
X132431547Y-112727754D01*
X132312307Y-112821071D01*
X132157247Y-112847116D01*
X132050547Y-112840285D01*
X131857337Y-112811262D01*
X131704893Y-112772884D01*
X131684125Y-112764757D01*
X131626137Y-112751261D01*
X131592672Y-112790793D01*
X131577163Y-112906885D01*
X131573042Y-113123067D01*
X131573000Y-113162958D01*
X131583028Y-113412358D01*
X131610427Y-113586403D01*
X131645158Y-113655100D01*
X131773727Y-113692526D01*
X131984872Y-113714605D01*
X132235051Y-113720958D01*
X132480723Y-113711208D01*
X132678350Y-113684978D01*
X132747750Y-113664668D01*
X132998090Y-113548090D01*
X133163700Y-113427887D01*
X133283372Y-113270915D01*
X133344815Y-113154527D01*
X133391616Y-113047751D01*
X133426043Y-112934944D01*
X133449964Y-112795159D01*
X133465249Y-112607448D01*
X133473765Y-112350864D01*
X133477381Y-112004459D01*
X133478000Y-111661201D01*
X133478000Y-110443000D01*
X134240000Y-110443000D01*
X134240000Y-109617500D01*
X133478000Y-109617500D01*
X133478000Y-108474500D01*
X132589000Y-108474500D01*
X132589000Y-109617500D01*
G36*
X155814125Y-107979243D02*
G01*
X155387265Y-107990241D01*
X155065357Y-108001863D01*
X154826372Y-108016906D01*
X154648282Y-108038164D01*
X154509058Y-108068431D01*
X154386671Y-108110501D01*
X154259091Y-108167168D01*
X154232256Y-108179907D01*
X153809058Y-108438476D01*
X153497273Y-108757769D01*
X153296195Y-109138852D01*
X153205124Y-109582789D01*
X153199091Y-109744500D01*
X153256492Y-110211750D01*
X153425962Y-110621429D01*
X153703396Y-110967278D01*
X154084693Y-111243040D01*
X154229857Y-111316329D01*
X154408786Y-111388551D01*
X154598063Y-111438832D01*
X154831286Y-111472997D01*
X155142048Y-111496870D01*
X155325232Y-111506227D01*
X156084000Y-111541186D01*
X156084000Y-113681500D01*
X157036500Y-113681500D01*
X157036500Y-108919000D01*
X156084000Y-108919000D01*
X156084000Y-110650147D01*
X155426388Y-110620900D01*
X155099342Y-110601265D01*
X154867522Y-110572599D01*
X154699193Y-110528854D01*
X154562617Y-110463983D01*
X154544149Y-110452825D01*
X154341042Y-110272706D01*
X154188789Y-110035376D01*
X154117435Y-109790225D01*
X154115500Y-109748248D01*
X154143842Y-109606472D01*
X154214372Y-109421427D01*
X154239333Y-109369708D01*
X154359975Y-109185954D01*
X154518124Y-109057171D01*
X154735581Y-108975195D01*
X155034148Y-108931861D01*
X155435626Y-108919002D01*
X155442722Y-108919000D01*
X156084000Y-108919000D01*
X157036500Y-108919000D01*
X157036500Y-107950069D01*
X155814125Y-107979243D01*
G37*
X155814125Y-107979243D02*
X155387265Y-107990241D01*
X155065357Y-108001863D01*
X154826372Y-108016906D01*
X154648282Y-108038164D01*
X154509058Y-108068431D01*
X154386671Y-108110501D01*
X154259091Y-108167168D01*
X154232256Y-108179907D01*
X153809058Y-108438476D01*
X153497273Y-108757769D01*
X153296195Y-109138852D01*
X153205124Y-109582789D01*
X153199091Y-109744500D01*
X153256492Y-110211750D01*
X153425962Y-110621429D01*
X153703396Y-110967278D01*
X154084693Y-111243040D01*
X154229857Y-111316329D01*
X154408786Y-111388551D01*
X154598063Y-111438832D01*
X154831286Y-111472997D01*
X155142048Y-111496870D01*
X155325232Y-111506227D01*
X156084000Y-111541186D01*
X156084000Y-113681500D01*
X157036500Y-113681500D01*
X157036500Y-108919000D01*
X156084000Y-108919000D01*
X156084000Y-110650147D01*
X155426388Y-110620900D01*
X155099342Y-110601265D01*
X154867522Y-110572599D01*
X154699193Y-110528854D01*
X154562617Y-110463983D01*
X154544149Y-110452825D01*
X154341042Y-110272706D01*
X154188789Y-110035376D01*
X154117435Y-109790225D01*
X154115500Y-109748248D01*
X154143842Y-109606472D01*
X154214372Y-109421427D01*
X154239333Y-109369708D01*
X154359975Y-109185954D01*
X154518124Y-109057171D01*
X154735581Y-108975195D01*
X155034148Y-108931861D01*
X155435626Y-108919002D01*
X155442722Y-108919000D01*
X156084000Y-108919000D01*
X157036500Y-108919000D01*
X157036500Y-107950069D01*
X155814125Y-107979243D01*
G36*
X150154135Y-109516675D02*
G01*
X149924500Y-109559754D01*
X149924500Y-110496706D01*
X150384875Y-110463358D01*
X150636367Y-110450221D01*
X150804487Y-110460215D01*
X150931872Y-110500646D01*
X151061163Y-110578819D01*
X151061977Y-110579379D01*
X151213761Y-110696046D01*
X151330540Y-110822634D01*
X151417197Y-110977415D01*
X151478617Y-111178659D01*
X151519684Y-111444639D01*
X151545284Y-111793625D01*
X151560299Y-112243888D01*
X151564481Y-112459125D01*
X151585211Y-113681500D01*
X152464500Y-113681500D01*
X152464500Y-109617500D01*
X151575500Y-109617500D01*
X151575500Y-110110558D01*
X151336992Y-109872050D01*
X151060484Y-109674274D01*
X150717685Y-109544930D01*
X150357353Y-109498668D01*
X150154135Y-109516675D01*
G37*
X150154135Y-109516675D02*
X149924500Y-109559754D01*
X149924500Y-110496706D01*
X150384875Y-110463358D01*
X150636367Y-110450221D01*
X150804487Y-110460215D01*
X150931872Y-110500646D01*
X151061163Y-110578819D01*
X151061977Y-110579379D01*
X151213761Y-110696046D01*
X151330540Y-110822634D01*
X151417197Y-110977415D01*
X151478617Y-111178659D01*
X151519684Y-111444639D01*
X151545284Y-111793625D01*
X151560299Y-112243888D01*
X151564481Y-112459125D01*
X151585211Y-113681500D01*
X152464500Y-113681500D01*
X152464500Y-109617500D01*
X151575500Y-109617500D01*
X151575500Y-110110558D01*
X151336992Y-109872050D01*
X151060484Y-109674274D01*
X150717685Y-109544930D01*
X150357353Y-109498668D01*
X150154135Y-109516675D01*
G36*
X148337000Y-113681500D02*
G01*
X149226000Y-113681500D01*
X149226000Y-109617500D01*
X148337000Y-109617500D01*
X148337000Y-113681500D01*
G37*
X148337000Y-113681500D02*
X149226000Y-113681500D01*
X149226000Y-109617500D01*
X148337000Y-109617500D01*
X148337000Y-113681500D01*
G36*
X144768847Y-109537323D02*
G01*
X144409069Y-109665171D01*
X144098667Y-109875331D01*
X143862017Y-110164658D01*
X143831978Y-110219342D01*
X143781685Y-110320599D01*
X143742790Y-110416584D01*
X143713579Y-110525067D01*
X143692340Y-110663818D01*
X143677358Y-110850604D01*
X143666919Y-111103197D01*
X143659311Y-111439366D01*
X143652819Y-111876881D01*
X143649851Y-112107900D01*
X143629951Y-113681500D01*
X144590500Y-113681500D01*
X144590500Y-110811300D01*
X144806400Y-110595400D01*
X144961337Y-110459628D01*
X145107320Y-110396357D01*
X145308149Y-110379616D01*
X145336760Y-110379500D01*
X145681619Y-110434592D01*
X145964643Y-110600363D01*
X146186987Y-110877554D01*
X146225625Y-110949092D01*
X146275406Y-111055374D01*
X146312090Y-111162555D01*
X146337663Y-111291563D01*
X146354107Y-111463327D01*
X146363406Y-111698774D01*
X146367542Y-112018832D01*
X146368500Y-112444429D01*
X146368500Y-113681500D01*
X147321000Y-113681500D01*
X147321000Y-109617500D01*
X146432000Y-109617500D01*
X146432000Y-110129733D01*
X146214222Y-109911955D01*
X145900689Y-109679103D01*
X145539032Y-109541144D01*
X145153626Y-109494932D01*
X144768847Y-109537323D01*
G37*
X144768847Y-109537323D02*
X144409069Y-109665171D01*
X144098667Y-109875331D01*
X143862017Y-110164658D01*
X143831978Y-110219342D01*
X143781685Y-110320599D01*
X143742790Y-110416584D01*
X143713579Y-110525067D01*
X143692340Y-110663818D01*
X143677358Y-110850604D01*
X143666919Y-111103197D01*
X143659311Y-111439366D01*
X143652819Y-111876881D01*
X143649851Y-112107900D01*
X143629951Y-113681500D01*
X144590500Y-113681500D01*
X144590500Y-110811300D01*
X144806400Y-110595400D01*
X144961337Y-110459628D01*
X145107320Y-110396357D01*
X145308149Y-110379616D01*
X145336760Y-110379500D01*
X145681619Y-110434592D01*
X145964643Y-110600363D01*
X146186987Y-110877554D01*
X146225625Y-110949092D01*
X146275406Y-111055374D01*
X146312090Y-111162555D01*
X146337663Y-111291563D01*
X146354107Y-111463327D01*
X146363406Y-111698774D01*
X146367542Y-112018832D01*
X146368500Y-112444429D01*
X146368500Y-113681500D01*
X147321000Y-113681500D01*
X147321000Y-109617500D01*
X146432000Y-109617500D01*
X146432000Y-110129733D01*
X146214222Y-109911955D01*
X145900689Y-109679103D01*
X145539032Y-109541144D01*
X145153626Y-109494932D01*
X144768847Y-109537323D01*
G36*
X123563579Y-109583801D02*
G01*
X123223241Y-109770672D01*
X122942363Y-110050144D01*
X122783534Y-110316000D01*
X122741512Y-110416147D01*
X122708934Y-110524417D01*
X122684298Y-110658707D01*
X122666102Y-110836916D01*
X122652846Y-111076942D01*
X122643029Y-111396683D01*
X122635149Y-111814038D01*
X122630415Y-112141625D01*
X122609580Y-113681500D01*
X123572000Y-113681500D01*
X123572238Y-112300375D01*
X123573136Y-111842040D01*
X123576626Y-111492454D01*
X123584165Y-111233371D01*
X123597212Y-111046546D01*
X123617226Y-110913732D01*
X123645665Y-110816684D01*
X123683988Y-110737155D01*
X123699267Y-110711292D01*
X123859020Y-110524798D01*
X124075103Y-110418544D01*
X124374783Y-110380167D01*
X124431175Y-110379500D01*
X124641906Y-110400791D01*
X124815097Y-110482181D01*
X124944500Y-110584882D01*
X125074092Y-110706756D01*
X125172818Y-110827967D01*
X125244837Y-110967556D01*
X125294308Y-111144559D01*
X125325389Y-111378018D01*
X125342241Y-111686970D01*
X125349020Y-112090455D01*
X125350000Y-112441210D01*
X125350000Y-113681500D01*
X126302500Y-113681500D01*
X126302500Y-109617500D01*
X125413500Y-109617500D01*
X125413500Y-110061161D01*
X125126256Y-109841902D01*
X124744716Y-109618580D01*
X124343980Y-109503775D01*
X123943713Y-109493508D01*
X123563579Y-109583801D01*
G37*
X123563579Y-109583801D02*
X123223241Y-109770672D01*
X122942363Y-110050144D01*
X122783534Y-110316000D01*
X122741512Y-110416147D01*
X122708934Y-110524417D01*
X122684298Y-110658707D01*
X122666102Y-110836916D01*
X122652846Y-111076942D01*
X122643029Y-111396683D01*
X122635149Y-111814038D01*
X122630415Y-112141625D01*
X122609580Y-113681500D01*
X123572000Y-113681500D01*
X123572238Y-112300375D01*
X123573136Y-111842040D01*
X123576626Y-111492454D01*
X123584165Y-111233371D01*
X123597212Y-111046546D01*
X123617226Y-110913732D01*
X123645665Y-110816684D01*
X123683988Y-110737155D01*
X123699267Y-110711292D01*
X123859020Y-110524798D01*
X124075103Y-110418544D01*
X124374783Y-110380167D01*
X124431175Y-110379500D01*
X124641906Y-110400791D01*
X124815097Y-110482181D01*
X124944500Y-110584882D01*
X125074092Y-110706756D01*
X125172818Y-110827967D01*
X125244837Y-110967556D01*
X125294308Y-111144559D01*
X125325389Y-111378018D01*
X125342241Y-111686970D01*
X125349020Y-112090455D01*
X125350000Y-112441210D01*
X125350000Y-113681500D01*
X126302500Y-113681500D01*
X126302500Y-109617500D01*
X125413500Y-109617500D01*
X125413500Y-110061161D01*
X125126256Y-109841902D01*
X124744716Y-109618580D01*
X124343980Y-109503775D01*
X123943713Y-109493508D01*
X123563579Y-109583801D01*
G36*
X173319119Y-111583966D02*
G01*
X173020129Y-111698148D01*
X172767344Y-111908200D01*
X172638109Y-112098513D01*
X172555035Y-112372019D01*
X172550245Y-112686769D01*
X172620070Y-112987452D01*
X172708265Y-113155615D01*
X172939171Y-113377223D01*
X173235169Y-113511274D01*
X173562726Y-113550221D01*
X173888307Y-113486517D01*
X173986487Y-113443276D01*
X174255837Y-113241677D01*
X174433738Y-112974623D01*
X174516124Y-112668813D01*
X174498928Y-112350953D01*
X174378083Y-112047743D01*
X174228067Y-111856933D01*
X173949613Y-111659328D01*
X173637788Y-111569682D01*
X173319119Y-111583966D01*
G37*
X173319119Y-111583966D02*
X173020129Y-111698148D01*
X172767344Y-111908200D01*
X172638109Y-112098513D01*
X172555035Y-112372019D01*
X172550245Y-112686769D01*
X172620070Y-112987452D01*
X172708265Y-113155615D01*
X172939171Y-113377223D01*
X173235169Y-113511274D01*
X173562726Y-113550221D01*
X173888307Y-113486517D01*
X173986487Y-113443276D01*
X174255837Y-113241677D01*
X174433738Y-112974623D01*
X174516124Y-112668813D01*
X174498928Y-112350953D01*
X174378083Y-112047743D01*
X174228067Y-111856933D01*
X173949613Y-111659328D01*
X173637788Y-111569682D01*
X173319119Y-111583966D01*
G36*
X162487903Y-109033199D02*
G01*
X162130113Y-109184053D01*
X161814046Y-109447096D01*
X161785663Y-109477949D01*
X161542240Y-109831272D01*
X161409247Y-110211102D01*
X161379309Y-110599101D01*
X161445051Y-110976931D01*
X161599099Y-111326254D01*
X161834079Y-111628730D01*
X162142616Y-111866022D01*
X162517337Y-112019791D01*
X162827480Y-112068707D01*
X163167029Y-112064044D01*
X163440922Y-112010489D01*
X163465653Y-112001569D01*
X163855316Y-111788427D01*
X164159066Y-111488584D01*
X164366356Y-111117556D01*
X164466641Y-110690861D01*
X164474498Y-110517146D01*
X164458172Y-110268277D01*
X164418191Y-110036614D01*
X164383714Y-109925080D01*
X164165224Y-109560330D01*
X163857795Y-109274926D01*
X163480117Y-109080798D01*
X163050879Y-108989878D01*
X162910250Y-108984514D01*
X162487903Y-109033199D01*
G37*
X162487903Y-109033199D02*
X162130113Y-109184053D01*
X161814046Y-109447096D01*
X161785663Y-109477949D01*
X161542240Y-109831272D01*
X161409247Y-110211102D01*
X161379309Y-110599101D01*
X161445051Y-110976931D01*
X161599099Y-111326254D01*
X161834079Y-111628730D01*
X162142616Y-111866022D01*
X162517337Y-112019791D01*
X162827480Y-112068707D01*
X163167029Y-112064044D01*
X163440922Y-112010489D01*
X163465653Y-112001569D01*
X163855316Y-111788427D01*
X164159066Y-111488584D01*
X164366356Y-111117556D01*
X164466641Y-110690861D01*
X164474498Y-110517146D01*
X164458172Y-110268277D01*
X164418191Y-110036614D01*
X164383714Y-109925080D01*
X164165224Y-109560330D01*
X163857795Y-109274926D01*
X163480117Y-109080798D01*
X163050879Y-108989878D01*
X162910250Y-108984514D01*
X162487903Y-109033199D01*
G36*
X169681201Y-109361291D02*
G01*
X169342196Y-109512041D01*
X169075765Y-109748677D01*
X168893065Y-110047944D01*
X168805250Y-110386585D01*
X168823475Y-110741344D01*
X168903427Y-110982750D01*
X169057202Y-111245358D01*
X169256720Y-111427509D01*
X169498660Y-111551828D01*
X169869625Y-111640308D01*
X170250574Y-111606522D01*
X170471742Y-111529082D01*
X170775912Y-111325578D01*
X170991521Y-111041649D01*
X171107701Y-110697333D01*
X171116884Y-110339547D01*
X171019369Y-109999572D01*
X170823961Y-109712225D01*
X170554326Y-109493632D01*
X170234133Y-109359919D01*
X169887046Y-109327212D01*
X169681201Y-109361291D01*
G37*
X169681201Y-109361291D02*
X169342196Y-109512041D01*
X169075765Y-109748677D01*
X168893065Y-110047944D01*
X168805250Y-110386585D01*
X168823475Y-110741344D01*
X168903427Y-110982750D01*
X169057202Y-111245358D01*
X169256720Y-111427509D01*
X169498660Y-111551828D01*
X169869625Y-111640308D01*
X170250574Y-111606522D01*
X170471742Y-111529082D01*
X170775912Y-111325578D01*
X170991521Y-111041649D01*
X171107701Y-110697333D01*
X171116884Y-110339547D01*
X171019369Y-109999572D01*
X170823961Y-109712225D01*
X170554326Y-109493632D01*
X170234133Y-109359919D01*
X169887046Y-109327212D01*
X169681201Y-109361291D01*
G36*
X176836811Y-109732472D02*
G01*
X176600641Y-109856696D01*
X176410155Y-110048305D01*
X176287092Y-110298722D01*
X176253189Y-110599371D01*
X176262291Y-110689063D01*
X176327651Y-110865081D01*
X176455622Y-111051734D01*
X176613988Y-111213501D01*
X176770532Y-111314862D01*
X176845424Y-111332000D01*
X176993877Y-111345572D01*
X177049682Y-111358242D01*
X177168758Y-111360154D01*
X177315699Y-111330159D01*
X177589178Y-111188734D01*
X177787748Y-110967550D01*
X177900196Y-110695318D01*
X177915309Y-110400746D01*
X177821874Y-110112545D01*
X177803571Y-110080957D01*
X177602046Y-109849875D01*
X177359252Y-109720485D01*
X177096928Y-109684209D01*
X176836811Y-109732472D01*
G37*
X176836811Y-109732472D02*
X176600641Y-109856696D01*
X176410155Y-110048305D01*
X176287092Y-110298722D01*
X176253189Y-110599371D01*
X176262291Y-110689063D01*
X176327651Y-110865081D01*
X176455622Y-111051734D01*
X176613988Y-111213501D01*
X176770532Y-111314862D01*
X176845424Y-111332000D01*
X176993877Y-111345572D01*
X177049682Y-111358242D01*
X177168758Y-111360154D01*
X177315699Y-111330159D01*
X177589178Y-111188734D01*
X177787748Y-110967550D01*
X177900196Y-110695318D01*
X177915309Y-110400746D01*
X177821874Y-110112545D01*
X177803571Y-110080957D01*
X177602046Y-109849875D01*
X177359252Y-109720485D01*
X177096928Y-109684209D01*
X176836811Y-109732472D01*
G36*
X165937562Y-107221015D02*
G01*
X165709156Y-107335122D01*
X165416919Y-107602771D01*
X165216446Y-107933032D01*
X165111555Y-108300782D01*
X165106065Y-108680897D01*
X165203793Y-109048256D01*
X165400195Y-109367897D01*
X165686189Y-109614251D01*
X166039480Y-109773610D01*
X166427075Y-109836892D01*
X166815979Y-109795018D01*
X166882648Y-109775906D01*
X167225835Y-109607098D01*
X167492512Y-109356184D01*
X167678421Y-109045503D01*
X167779304Y-108697395D01*
X167790903Y-108334199D01*
X167708958Y-107978255D01*
X167529212Y-107651901D01*
X167327898Y-107440194D01*
X167024670Y-107259252D01*
X166666479Y-107160759D01*
X166291415Y-107147190D01*
X165937562Y-107221015D01*
G37*
X165937562Y-107221015D02*
X165709156Y-107335122D01*
X165416919Y-107602771D01*
X165216446Y-107933032D01*
X165111555Y-108300782D01*
X165106065Y-108680897D01*
X165203793Y-109048256D01*
X165400195Y-109367897D01*
X165686189Y-109614251D01*
X166039480Y-109773610D01*
X166427075Y-109836892D01*
X166815979Y-109795018D01*
X166882648Y-109775906D01*
X167225835Y-109607098D01*
X167492512Y-109356184D01*
X167678421Y-109045503D01*
X167779304Y-108697395D01*
X167790903Y-108334199D01*
X167708958Y-107978255D01*
X167529212Y-107651901D01*
X167327898Y-107440194D01*
X167024670Y-107259252D01*
X166666479Y-107160759D01*
X166291415Y-107147190D01*
X165937562Y-107221015D01*
G36*
X173178947Y-107537322D02*
G01*
X172897849Y-107693510D01*
X172683597Y-107934600D01*
X172669190Y-107959276D01*
X172549724Y-108280013D01*
X172539393Y-108593531D01*
X172622751Y-108883231D01*
X172784352Y-109132512D01*
X173008751Y-109324774D01*
X173280502Y-109443417D01*
X173584157Y-109471841D01*
X173904273Y-109393445D01*
X173973573Y-109361131D01*
X174242713Y-109161017D01*
X174422747Y-108896443D01*
X174511523Y-108593887D01*
X174506886Y-108279822D01*
X174406681Y-107980724D01*
X174208754Y-107723068D01*
X174113159Y-107645552D01*
X173817618Y-107506604D01*
X173495875Y-107472773D01*
X173178947Y-107537322D01*
G37*
X173178947Y-107537322D02*
X172897849Y-107693510D01*
X172683597Y-107934600D01*
X172669190Y-107959276D01*
X172549724Y-108280013D01*
X172539393Y-108593531D01*
X172622751Y-108883231D01*
X172784352Y-109132512D01*
X173008751Y-109324774D01*
X173280502Y-109443417D01*
X173584157Y-109471841D01*
X173904273Y-109393445D01*
X173973573Y-109361131D01*
X174242713Y-109161017D01*
X174422747Y-108896443D01*
X174511523Y-108593887D01*
X174506886Y-108279822D01*
X174406681Y-107980724D01*
X174208754Y-107723068D01*
X174113159Y-107645552D01*
X173817618Y-107506604D01*
X173495875Y-107472773D01*
X173178947Y-107537322D01*
G36*
X148505937Y-107931514D02*
G01*
X148320008Y-108079593D01*
X148211483Y-108309523D01*
X148192682Y-108477707D01*
X148246594Y-108727590D01*
X148389342Y-108926970D01*
X148592448Y-109055686D01*
X148827434Y-109093578D01*
X149003750Y-109051872D01*
X149212315Y-108904467D01*
X149335407Y-108698339D01*
X149372513Y-108465007D01*
X149323119Y-108235990D01*
X149186712Y-108042807D01*
X149021895Y-107938238D01*
X148747243Y-107879619D01*
X148505937Y-107931514D01*
G37*
X148505937Y-107931514D02*
X148320008Y-108079593D01*
X148211483Y-108309523D01*
X148192682Y-108477707D01*
X148246594Y-108727590D01*
X148389342Y-108926970D01*
X148592448Y-109055686D01*
X148827434Y-109093578D01*
X149003750Y-109051872D01*
X149212315Y-108904467D01*
X149335407Y-108698339D01*
X149372513Y-108465007D01*
X149323119Y-108235990D01*
X149186712Y-108042807D01*
X149021895Y-107938238D01*
X148747243Y-107879619D01*
X148505937Y-107931514D01*
G36*
X162478544Y-104910820D02*
G01*
X162119292Y-105065994D01*
X161821994Y-105302652D01*
X161594067Y-105602567D01*
X161442924Y-105947515D01*
X161375982Y-106319270D01*
X161400655Y-106699607D01*
X161524359Y-107070302D01*
X161754509Y-107413128D01*
X161822347Y-107485188D01*
X162177412Y-107755931D01*
X162579134Y-107914017D01*
X163008555Y-107954485D01*
X163380390Y-107892927D01*
X163769107Y-107719075D01*
X164083817Y-107450689D01*
X164313085Y-107103750D01*
X164445477Y-106694239D01*
X164474375Y-106363959D01*
X164415037Y-105925969D01*
X164241289Y-105543077D01*
X163952844Y-105214660D01*
X163940693Y-105204167D01*
X163660573Y-105009952D01*
X163354319Y-104898582D01*
X162981512Y-104856609D01*
X162892336Y-104855354D01*
X162478544Y-104910820D01*
G37*
X162478544Y-104910820D02*
X162119292Y-105065994D01*
X161821994Y-105302652D01*
X161594067Y-105602567D01*
X161442924Y-105947515D01*
X161375982Y-106319270D01*
X161400655Y-106699607D01*
X161524359Y-107070302D01*
X161754509Y-107413128D01*
X161822347Y-107485188D01*
X162177412Y-107755931D01*
X162579134Y-107914017D01*
X163008555Y-107954485D01*
X163380390Y-107892927D01*
X163769107Y-107719075D01*
X164083817Y-107450689D01*
X164313085Y-107103750D01*
X164445477Y-106694239D01*
X164474375Y-106363959D01*
X164415037Y-105925969D01*
X164241289Y-105543077D01*
X163952844Y-105214660D01*
X163940693Y-105204167D01*
X163660573Y-105009952D01*
X163354319Y-104898582D01*
X162981512Y-104856609D01*
X162892336Y-104855354D01*
X162478544Y-104910820D01*
G36*
X138779123Y-101363888D02*
G01*
X138418394Y-101499067D01*
X138415125Y-101500904D01*
X138242516Y-101595011D01*
X138152546Y-101628569D01*
X138118478Y-101605575D01*
X138113500Y-101545961D01*
X138103798Y-101484820D01*
X138057893Y-101449217D01*
X137950590Y-101434021D01*
X137756693Y-101434103D01*
X137589625Y-101439306D01*
X137065750Y-101457750D01*
X137065750Y-103648500D01*
X137066022Y-104235795D01*
X137067409Y-104711299D01*
X137070772Y-105090218D01*
X137076971Y-105387759D01*
X137086866Y-105619129D01*
X137101317Y-105799537D01*
X137121184Y-105944190D01*
X137147328Y-106068295D01*
X137180608Y-106187058D01*
X137215493Y-106296218D01*
X137403384Y-106734690D01*
X137655878Y-107078018D01*
X137991635Y-107349455D01*
X138122467Y-107426440D01*
X138303382Y-107517349D01*
X138469116Y-107574668D01*
X138661008Y-107607252D01*
X138920398Y-107623956D01*
X139066000Y-107628541D01*
X139355067Y-107629217D01*
X139617848Y-107617521D01*
X139813305Y-107595768D01*
X139868341Y-107583321D01*
X140177963Y-107441297D01*
X140497335Y-107215571D01*
X140784740Y-106938543D01*
X140921816Y-106765029D01*
X141044525Y-106578896D01*
X141130675Y-106429283D01*
X141160718Y-106352279D01*
X141105603Y-106297663D01*
X140960294Y-106214784D01*
X140753636Y-106119628D01*
X140703651Y-106098977D01*
X140472514Y-106007921D01*
X140330275Y-105962903D01*
X140249047Y-105960058D01*
X140200945Y-105995521D01*
X140180558Y-106026481D01*
X139923062Y-106364176D01*
X139623859Y-106582217D01*
X139283436Y-106680322D01*
X139050073Y-106680619D01*
X138696984Y-106591040D01*
X138420290Y-106403216D01*
X138229080Y-106126601D01*
X138132444Y-105770651D01*
X138127458Y-105720950D01*
X138098780Y-105375134D01*
X138439506Y-105543692D01*
X138863675Y-105685452D01*
X139313690Y-105714234D01*
X139767140Y-105634530D01*
X140201612Y-105450837D01*
X140594692Y-105167649D01*
X140669305Y-105096537D01*
X140985336Y-104697663D01*
X141193636Y-104254996D01*
X141297401Y-103786583D01*
X141298779Y-103516073D01*
X140230167Y-103516073D01*
X140183216Y-103869386D01*
X140054155Y-104196257D01*
X139860677Y-104459245D01*
X139736407Y-104561015D01*
X139428967Y-104696309D01*
X139090662Y-104737187D01*
X138761494Y-104683922D01*
X138501887Y-104552582D01*
X138374081Y-104422828D01*
X138239493Y-104235718D01*
X138190465Y-104151492D01*
X138075472Y-103814177D01*
X138052620Y-103437185D01*
X138119703Y-103065855D01*
X138257680Y-102770128D01*
X138493551Y-102508372D01*
X138769160Y-102352160D01*
X139065646Y-102294359D01*
X139364152Y-102327836D01*
X139645818Y-102445460D01*
X139891786Y-102640100D01*
X140083197Y-102904623D01*
X140201193Y-103231897D01*
X140230167Y-103516073D01*
X141298779Y-103516073D01*
X141299828Y-103310467D01*
X141204114Y-102844697D01*
X141013456Y-102407318D01*
X140731049Y-102016376D01*
X140360090Y-101689917D01*
X140032492Y-101501416D01*
X139622274Y-101365073D01*
X139192450Y-101319227D01*
X138779123Y-101363888D01*
G37*
X138779123Y-101363888D02*
X138418394Y-101499067D01*
X138415125Y-101500904D01*
X138242516Y-101595011D01*
X138152546Y-101628569D01*
X138118478Y-101605575D01*
X138113500Y-101545961D01*
X138103798Y-101484820D01*
X138057893Y-101449217D01*
X137950590Y-101434021D01*
X137756693Y-101434103D01*
X137589625Y-101439306D01*
X137065750Y-101457750D01*
X137065750Y-103648500D01*
X137066022Y-104235795D01*
X137067409Y-104711299D01*
X137070772Y-105090218D01*
X137076971Y-105387759D01*
X137086866Y-105619129D01*
X137101317Y-105799537D01*
X137121184Y-105944190D01*
X137147328Y-106068295D01*
X137180608Y-106187058D01*
X137215493Y-106296218D01*
X137403384Y-106734690D01*
X137655878Y-107078018D01*
X137991635Y-107349455D01*
X138122467Y-107426440D01*
X138303382Y-107517349D01*
X138469116Y-107574668D01*
X138661008Y-107607252D01*
X138920398Y-107623956D01*
X139066000Y-107628541D01*
X139355067Y-107629217D01*
X139617848Y-107617521D01*
X139813305Y-107595768D01*
X139868341Y-107583321D01*
X140177963Y-107441297D01*
X140497335Y-107215571D01*
X140784740Y-106938543D01*
X140921816Y-106765029D01*
X141044525Y-106578896D01*
X141130675Y-106429283D01*
X141160718Y-106352279D01*
X141105603Y-106297663D01*
X140960294Y-106214784D01*
X140753636Y-106119628D01*
X140703651Y-106098977D01*
X140472514Y-106007921D01*
X140330275Y-105962903D01*
X140249047Y-105960058D01*
X140200945Y-105995521D01*
X140180558Y-106026481D01*
X139923062Y-106364176D01*
X139623859Y-106582217D01*
X139283436Y-106680322D01*
X139050073Y-106680619D01*
X138696984Y-106591040D01*
X138420290Y-106403216D01*
X138229080Y-106126601D01*
X138132444Y-105770651D01*
X138127458Y-105720950D01*
X138098780Y-105375134D01*
X138439506Y-105543692D01*
X138863675Y-105685452D01*
X139313690Y-105714234D01*
X139767140Y-105634530D01*
X140201612Y-105450837D01*
X140594692Y-105167649D01*
X140669305Y-105096537D01*
X140985336Y-104697663D01*
X141193636Y-104254996D01*
X141297401Y-103786583D01*
X141298779Y-103516073D01*
X140230167Y-103516073D01*
X140183216Y-103869386D01*
X140054155Y-104196257D01*
X139860677Y-104459245D01*
X139736407Y-104561015D01*
X139428967Y-104696309D01*
X139090662Y-104737187D01*
X138761494Y-104683922D01*
X138501887Y-104552582D01*
X138374081Y-104422828D01*
X138239493Y-104235718D01*
X138190465Y-104151492D01*
X138075472Y-103814177D01*
X138052620Y-103437185D01*
X138119703Y-103065855D01*
X138257680Y-102770128D01*
X138493551Y-102508372D01*
X138769160Y-102352160D01*
X139065646Y-102294359D01*
X139364152Y-102327836D01*
X139645818Y-102445460D01*
X139891786Y-102640100D01*
X140083197Y-102904623D01*
X140201193Y-103231897D01*
X140230167Y-103516073D01*
X141298779Y-103516073D01*
X141299828Y-103310467D01*
X141204114Y-102844697D01*
X141013456Y-102407318D01*
X140731049Y-102016376D01*
X140360090Y-101689917D01*
X140032492Y-101501416D01*
X139622274Y-101365073D01*
X139192450Y-101319227D01*
X138779123Y-101363888D01*
G36*
X169667612Y-105270960D02*
G01*
X169407724Y-105348753D01*
X169300621Y-105409481D01*
X169027656Y-105682116D01*
X168860495Y-106002288D01*
X168799046Y-106347429D01*
X168843218Y-106694969D01*
X168992917Y-107022339D01*
X169248051Y-107306970D01*
X169308559Y-107354445D01*
X169505470Y-107443874D01*
X169775393Y-107496667D01*
X170068746Y-107509341D01*
X170335946Y-107478412D01*
X170466750Y-107435801D01*
X170737917Y-107246076D01*
X170954480Y-106970862D01*
X171093065Y-106647768D01*
X171132106Y-106365164D01*
X171075802Y-106048526D01*
X170926956Y-105748412D01*
X170709351Y-105495255D01*
X170446768Y-105319490D01*
X170270414Y-105262465D01*
X169971835Y-105239672D01*
X169667612Y-105270960D01*
G37*
X169667612Y-105270960D02*
X169407724Y-105348753D01*
X169300621Y-105409481D01*
X169027656Y-105682116D01*
X168860495Y-106002288D01*
X168799046Y-106347429D01*
X168843218Y-106694969D01*
X168992917Y-107022339D01*
X169248051Y-107306970D01*
X169308559Y-107354445D01*
X169505470Y-107443874D01*
X169775393Y-107496667D01*
X170068746Y-107509341D01*
X170335946Y-107478412D01*
X170466750Y-107435801D01*
X170737917Y-107246076D01*
X170954480Y-106970862D01*
X171093065Y-106647768D01*
X171132106Y-106365164D01*
X171075802Y-106048526D01*
X170926956Y-105748412D01*
X170709351Y-105495255D01*
X170446768Y-105319490D01*
X170270414Y-105262465D01*
X169971835Y-105239672D01*
X169667612Y-105270960D01*
G36*
X176838690Y-105587682D02*
G01*
X176582158Y-105716321D01*
X176379529Y-105939512D01*
X176372198Y-105951688D01*
X176272382Y-106234938D01*
X176278522Y-106534130D01*
X176381838Y-106814274D01*
X176573549Y-107040379D01*
X176660530Y-107100643D01*
X176906250Y-107185972D01*
X177188002Y-107196207D01*
X177450024Y-107133306D01*
X177564653Y-107068896D01*
X177786107Y-106833787D01*
X177905300Y-106550567D01*
X177915045Y-106247792D01*
X177833709Y-105999852D01*
X177646633Y-105759680D01*
X177399433Y-105610301D01*
X177120617Y-105552655D01*
X176838690Y-105587682D01*
G37*
X176838690Y-105587682D02*
X176582158Y-105716321D01*
X176379529Y-105939512D01*
X176372198Y-105951688D01*
X176272382Y-106234938D01*
X176278522Y-106534130D01*
X176381838Y-106814274D01*
X176573549Y-107040379D01*
X176660530Y-107100643D01*
X176906250Y-107185972D01*
X177188002Y-107196207D01*
X177450024Y-107133306D01*
X177564653Y-107068896D01*
X177786107Y-106833787D01*
X177905300Y-106550567D01*
X177915045Y-106247792D01*
X177833709Y-105999852D01*
X177646633Y-105759680D01*
X177399433Y-105610301D01*
X177120617Y-105552655D01*
X176838690Y-105587682D01*
G36*
X153518420Y-98991419D02*
G01*
X152912413Y-99162924D01*
X152359339Y-99449480D01*
X152020000Y-99704057D01*
X151797750Y-99893835D01*
X152158463Y-100257939D01*
X152519175Y-100622044D01*
X152856963Y-100389926D01*
X153327339Y-100137737D01*
X153824854Y-99999335D01*
X154330841Y-99973079D01*
X154826631Y-100057329D01*
X155293557Y-100250445D01*
X155712951Y-100550787D01*
X155815390Y-100649819D01*
X156155683Y-101083659D01*
X156384710Y-101559129D01*
X156502125Y-102059481D01*
X156507581Y-102567966D01*
X156400732Y-103067834D01*
X156181230Y-103542337D01*
X155883497Y-103937747D01*
X155488795Y-104286246D01*
X155046869Y-104521656D01*
X154546687Y-104648569D01*
X154111601Y-104675218D01*
X153629559Y-104618425D01*
X153180983Y-104465035D01*
X152786509Y-104227995D01*
X152466771Y-103920251D01*
X152242403Y-103554750D01*
X152214058Y-103484681D01*
X152143456Y-103286208D01*
X152096048Y-103134222D01*
X152083500Y-103074617D01*
X152144671Y-103052121D01*
X152318972Y-103034067D01*
X152592587Y-103021237D01*
X152951697Y-103014414D01*
X153163000Y-103013500D01*
X154242500Y-103013500D01*
X154242500Y-101997500D01*
X152661794Y-101997500D01*
X152159099Y-101996601D01*
X151769151Y-101997472D01*
X151477749Y-102005465D01*
X151270689Y-102025931D01*
X151133771Y-102064222D01*
X151052793Y-102125689D01*
X151013551Y-102215683D01*
X151001844Y-102339556D01*
X151003471Y-102502660D01*
X151004939Y-102621818D01*
X151051647Y-103177606D01*
X151181031Y-103725013D01*
X151360939Y-104171671D01*
X151556614Y-104471763D01*
X151833740Y-104784939D01*
X152156118Y-105076455D01*
X152487549Y-105311568D01*
X152629916Y-105389667D01*
X153179423Y-105594917D01*
X153785589Y-105709142D01*
X154412143Y-105727878D01*
X154909250Y-105670076D01*
X155275824Y-105562927D01*
X155682093Y-105381475D01*
X156085389Y-105148084D01*
X156443041Y-104885118D01*
X156498365Y-104837183D01*
X156945768Y-104359722D01*
X157284205Y-103831123D01*
X157513249Y-103265479D01*
X157632467Y-102676885D01*
X157641430Y-102079434D01*
X157539708Y-101487220D01*
X157326870Y-100914336D01*
X157002486Y-100374875D01*
X156647210Y-99961589D01*
X156138901Y-99529346D01*
X155594975Y-99217392D01*
X155005730Y-99021692D01*
X154361464Y-98938207D01*
X154179000Y-98934380D01*
X153518420Y-98991419D01*
G37*
X153518420Y-98991419D02*
X152912413Y-99162924D01*
X152359339Y-99449480D01*
X152020000Y-99704057D01*
X151797750Y-99893835D01*
X152158463Y-100257939D01*
X152519175Y-100622044D01*
X152856963Y-100389926D01*
X153327339Y-100137737D01*
X153824854Y-99999335D01*
X154330841Y-99973079D01*
X154826631Y-100057329D01*
X155293557Y-100250445D01*
X155712951Y-100550787D01*
X155815390Y-100649819D01*
X156155683Y-101083659D01*
X156384710Y-101559129D01*
X156502125Y-102059481D01*
X156507581Y-102567966D01*
X156400732Y-103067834D01*
X156181230Y-103542337D01*
X155883497Y-103937747D01*
X155488795Y-104286246D01*
X155046869Y-104521656D01*
X154546687Y-104648569D01*
X154111601Y-104675218D01*
X153629559Y-104618425D01*
X153180983Y-104465035D01*
X152786509Y-104227995D01*
X152466771Y-103920251D01*
X152242403Y-103554750D01*
X152214058Y-103484681D01*
X152143456Y-103286208D01*
X152096048Y-103134222D01*
X152083500Y-103074617D01*
X152144671Y-103052121D01*
X152318972Y-103034067D01*
X152592587Y-103021237D01*
X152951697Y-103014414D01*
X153163000Y-103013500D01*
X154242500Y-103013500D01*
X154242500Y-101997500D01*
X152661794Y-101997500D01*
X152159099Y-101996601D01*
X151769151Y-101997472D01*
X151477749Y-102005465D01*
X151270689Y-102025931D01*
X151133771Y-102064222D01*
X151052793Y-102125689D01*
X151013551Y-102215683D01*
X151001844Y-102339556D01*
X151003471Y-102502660D01*
X151004939Y-102621818D01*
X151051647Y-103177606D01*
X151181031Y-103725013D01*
X151360939Y-104171671D01*
X151556614Y-104471763D01*
X151833740Y-104784939D01*
X152156118Y-105076455D01*
X152487549Y-105311568D01*
X152629916Y-105389667D01*
X153179423Y-105594917D01*
X153785589Y-105709142D01*
X154412143Y-105727878D01*
X154909250Y-105670076D01*
X155275824Y-105562927D01*
X155682093Y-105381475D01*
X156085389Y-105148084D01*
X156443041Y-104885118D01*
X156498365Y-104837183D01*
X156945768Y-104359722D01*
X157284205Y-103831123D01*
X157513249Y-103265479D01*
X157632467Y-102676885D01*
X157641430Y-102079434D01*
X157539708Y-101487220D01*
X157326870Y-100914336D01*
X157002486Y-100374875D01*
X156647210Y-99961589D01*
X156138901Y-99529346D01*
X155594975Y-99217392D01*
X155005730Y-99021692D01*
X154361464Y-98938207D01*
X154179000Y-98934380D01*
X153518420Y-98991419D01*
G36*
X148266877Y-101335741D02*
G01*
X148055250Y-101355521D01*
X147875584Y-101400975D01*
X147680428Y-101481992D01*
X147561133Y-101539458D01*
X147111541Y-101824135D01*
X146764183Y-102183404D01*
X146521361Y-102613484D01*
X146385376Y-103110594D01*
X146354881Y-103521500D01*
X146412110Y-104050608D01*
X146575327Y-104524777D01*
X146831826Y-104934243D01*
X147168901Y-105269242D01*
X147573844Y-105520007D01*
X148033951Y-105676775D01*
X148536514Y-105729781D01*
X149068828Y-105669260D01*
X149130750Y-105654735D01*
X149367388Y-105584013D01*
X149591439Y-105497796D01*
X149662574Y-105463895D01*
X149919616Y-105284921D01*
X150184791Y-105026816D01*
X150421226Y-104729205D01*
X150559500Y-104500015D01*
X150633191Y-104340199D01*
X150680054Y-104186534D01*
X150705925Y-104003045D01*
X150716641Y-103753758D01*
X150717840Y-103580543D01*
X149689105Y-103580543D01*
X149618709Y-103942801D01*
X149547298Y-104116904D01*
X149342059Y-104406458D01*
X149063577Y-104610334D01*
X148738480Y-104721309D01*
X148393395Y-104732161D01*
X148054948Y-104635666D01*
X147917505Y-104558990D01*
X147793429Y-104443698D01*
X147654526Y-104266219D01*
X147589331Y-104164254D01*
X147457928Y-103831443D01*
X147422281Y-103472010D01*
X147476927Y-103117369D01*
X147616403Y-102798932D01*
X147835244Y-102548112D01*
X147875770Y-102517413D01*
X148203729Y-102347742D01*
X148530552Y-102291125D01*
X148842338Y-102334257D01*
X149125183Y-102463836D01*
X149365185Y-102666557D01*
X149548441Y-102929118D01*
X149661049Y-103238214D01*
X149689105Y-103580543D01*
X150717840Y-103580543D01*
X150718250Y-103521500D01*
X150714408Y-103202224D01*
X150699043Y-102973439D01*
X150666402Y-102798766D01*
X150610730Y-102641828D01*
X150562828Y-102538906D01*
X150308585Y-102149017D01*
X149964046Y-101803398D01*
X149565593Y-101537320D01*
X149492478Y-101501305D01*
X149286828Y-101415173D01*
X149095288Y-101363827D01*
X148871400Y-101338836D01*
X148568704Y-101331771D01*
X148557915Y-101331748D01*
X148266877Y-101335741D01*
G37*
X148266877Y-101335741D02*
X148055250Y-101355521D01*
X147875584Y-101400975D01*
X147680428Y-101481992D01*
X147561133Y-101539458D01*
X147111541Y-101824135D01*
X146764183Y-102183404D01*
X146521361Y-102613484D01*
X146385376Y-103110594D01*
X146354881Y-103521500D01*
X146412110Y-104050608D01*
X146575327Y-104524777D01*
X146831826Y-104934243D01*
X147168901Y-105269242D01*
X147573844Y-105520007D01*
X148033951Y-105676775D01*
X148536514Y-105729781D01*
X149068828Y-105669260D01*
X149130750Y-105654735D01*
X149367388Y-105584013D01*
X149591439Y-105497796D01*
X149662574Y-105463895D01*
X149919616Y-105284921D01*
X150184791Y-105026816D01*
X150421226Y-104729205D01*
X150559500Y-104500015D01*
X150633191Y-104340199D01*
X150680054Y-104186534D01*
X150705925Y-104003045D01*
X150716641Y-103753758D01*
X150717840Y-103580543D01*
X149689105Y-103580543D01*
X149618709Y-103942801D01*
X149547298Y-104116904D01*
X149342059Y-104406458D01*
X149063577Y-104610334D01*
X148738480Y-104721309D01*
X148393395Y-104732161D01*
X148054948Y-104635666D01*
X147917505Y-104558990D01*
X147793429Y-104443698D01*
X147654526Y-104266219D01*
X147589331Y-104164254D01*
X147457928Y-103831443D01*
X147422281Y-103472010D01*
X147476927Y-103117369D01*
X147616403Y-102798932D01*
X147835244Y-102548112D01*
X147875770Y-102517413D01*
X148203729Y-102347742D01*
X148530552Y-102291125D01*
X148842338Y-102334257D01*
X149125183Y-102463836D01*
X149365185Y-102666557D01*
X149548441Y-102929118D01*
X149661049Y-103238214D01*
X149689105Y-103580543D01*
X150717840Y-103580543D01*
X150718250Y-103521500D01*
X150714408Y-103202224D01*
X150699043Y-102973439D01*
X150666402Y-102798766D01*
X150610730Y-102641828D01*
X150562828Y-102538906D01*
X150308585Y-102149017D01*
X149964046Y-101803398D01*
X149565593Y-101537320D01*
X149492478Y-101501305D01*
X149286828Y-101415173D01*
X149095288Y-101363827D01*
X148871400Y-101338836D01*
X148568704Y-101331771D01*
X148557915Y-101331748D01*
X148266877Y-101335741D01*
G36*
X143156119Y-101403161D02*
G01*
X142696131Y-101600100D01*
X142293000Y-101897328D01*
X141963316Y-102286298D01*
X141803445Y-102569000D01*
X141721735Y-102759632D01*
X141671873Y-102937915D01*
X141646458Y-103146392D01*
X141638093Y-103427609D01*
X141637798Y-103521500D01*
X141657901Y-103949736D01*
X141727797Y-104294608D01*
X141861982Y-104594748D01*
X142074951Y-104888788D01*
X142205756Y-105035194D01*
X142564038Y-105333128D01*
X142994831Y-105555200D01*
X143465346Y-105691576D01*
X143942790Y-105732422D01*
X144352634Y-105679045D01*
X144835805Y-105496516D01*
X145259249Y-105215861D01*
X145606156Y-104853248D01*
X145859714Y-104424846D01*
X145963631Y-104129681D01*
X146045914Y-103596569D01*
X146041654Y-103535335D01*
X144970106Y-103535335D01*
X144919288Y-103865160D01*
X144783913Y-104177406D01*
X144584545Y-104442575D01*
X144341744Y-104631170D01*
X144156981Y-104701822D01*
X144007543Y-104736251D01*
X143923750Y-104757727D01*
X143787127Y-104760210D01*
X143591061Y-104724189D01*
X143392590Y-104661766D01*
X143320500Y-104629714D01*
X143044154Y-104423160D01*
X142840894Y-104135391D01*
X142720377Y-103795217D01*
X142692256Y-103431446D01*
X142766188Y-103072888D01*
X142783781Y-103028202D01*
X142983964Y-102689089D01*
X143254634Y-102452419D01*
X143587979Y-102323636D01*
X143828500Y-102300346D01*
X144187486Y-102358668D01*
X144496488Y-102522512D01*
X144740083Y-102775189D01*
X144902844Y-103100011D01*
X144969346Y-103480292D01*
X144970106Y-103535335D01*
X146041654Y-103535335D01*
X146010521Y-103087864D01*
X145866131Y-102617118D01*
X145621421Y-102197885D01*
X145285066Y-101843716D01*
X144865745Y-101568164D01*
X144372134Y-101384780D01*
X144180304Y-101344343D01*
X143656373Y-101315059D01*
X143156119Y-101403161D01*
G37*
X143156119Y-101403161D02*
X142696131Y-101600100D01*
X142293000Y-101897328D01*
X141963316Y-102286298D01*
X141803445Y-102569000D01*
X141721735Y-102759632D01*
X141671873Y-102937915D01*
X141646458Y-103146392D01*
X141638093Y-103427609D01*
X141637798Y-103521500D01*
X141657901Y-103949736D01*
X141727797Y-104294608D01*
X141861982Y-104594748D01*
X142074951Y-104888788D01*
X142205756Y-105035194D01*
X142564038Y-105333128D01*
X142994831Y-105555200D01*
X143465346Y-105691576D01*
X143942790Y-105732422D01*
X144352634Y-105679045D01*
X144835805Y-105496516D01*
X145259249Y-105215861D01*
X145606156Y-104853248D01*
X145859714Y-104424846D01*
X145963631Y-104129681D01*
X146045914Y-103596569D01*
X146041654Y-103535335D01*
X144970106Y-103535335D01*
X144919288Y-103865160D01*
X144783913Y-104177406D01*
X144584545Y-104442575D01*
X144341744Y-104631170D01*
X144156981Y-104701822D01*
X144007543Y-104736251D01*
X143923750Y-104757727D01*
X143787127Y-104760210D01*
X143591061Y-104724189D01*
X143392590Y-104661766D01*
X143320500Y-104629714D01*
X143044154Y-104423160D01*
X142840894Y-104135391D01*
X142720377Y-103795217D01*
X142692256Y-103431446D01*
X142766188Y-103072888D01*
X142783781Y-103028202D01*
X142983964Y-102689089D01*
X143254634Y-102452419D01*
X143587979Y-102323636D01*
X143828500Y-102300346D01*
X144187486Y-102358668D01*
X144496488Y-102522512D01*
X144740083Y-102775189D01*
X144902844Y-103100011D01*
X144969346Y-103480292D01*
X144970106Y-103535335D01*
X146041654Y-103535335D01*
X146010521Y-103087864D01*
X145866131Y-102617118D01*
X145621421Y-102197885D01*
X145285066Y-101843716D01*
X144865745Y-101568164D01*
X144372134Y-101384780D01*
X144180304Y-101344343D01*
X143656373Y-101315059D01*
X143156119Y-101403161D01*
G36*
X132579259Y-101375059D02*
G01*
X132169851Y-101506841D01*
X131816380Y-101736572D01*
X131633798Y-101912536D01*
X131494378Y-102086558D01*
X131351845Y-102301514D01*
X131220885Y-102529505D01*
X131116181Y-102742630D01*
X131052418Y-102912988D01*
X131044281Y-103012681D01*
X131050221Y-103021318D01*
X131120375Y-103057346D01*
X131290413Y-103133502D01*
X131542541Y-103242154D01*
X131858967Y-103375668D01*
X132221895Y-103526415D01*
X132366750Y-103585994D01*
X132831138Y-103776111D01*
X133190365Y-103923791D01*
X133456252Y-104036048D01*
X133640616Y-104119893D01*
X133755275Y-104182338D01*
X133812049Y-104230398D01*
X133822754Y-104271084D01*
X133799210Y-104311409D01*
X133753234Y-104358385D01*
X133722094Y-104390212D01*
X133439857Y-104613919D01*
X133110471Y-104723407D01*
X132900652Y-104737686D01*
X132638522Y-104715874D01*
X132424793Y-104641297D01*
X132212809Y-104493222D01*
X132080256Y-104373130D01*
X131857262Y-104160275D01*
X131461131Y-104420600D01*
X131270115Y-104553323D01*
X131129616Y-104664655D01*
X131066217Y-104733257D01*
X131065000Y-104738581D01*
X131113890Y-104833060D01*
X131242769Y-104973827D01*
X131424954Y-105138250D01*
X131633761Y-105303698D01*
X131842504Y-105447542D01*
X132011524Y-105541327D01*
X132427465Y-105673664D01*
X132891185Y-105724373D01*
X133350122Y-105689680D01*
X133524280Y-105650011D01*
X134001862Y-105454189D01*
X134406251Y-105163853D01*
X134728205Y-104794210D01*
X134958484Y-104360471D01*
X135087846Y-103877842D01*
X135107050Y-103361534D01*
X135098561Y-103295710D01*
X134051114Y-103295710D01*
X134031200Y-103331000D01*
X133965436Y-103307996D01*
X133804458Y-103244852D01*
X133570246Y-103150372D01*
X133284777Y-103033356D01*
X133184780Y-102992005D01*
X132887703Y-102863312D01*
X132639246Y-102745009D01*
X132460449Y-102647926D01*
X132372353Y-102582896D01*
X132366750Y-102570917D01*
X132421318Y-102485089D01*
X132557274Y-102389649D01*
X132732999Y-102306573D01*
X132906873Y-102257838D01*
X132969010Y-102252894D01*
X133215931Y-102302222D01*
X133482753Y-102427546D01*
X133716825Y-102600627D01*
X133811793Y-102704963D01*
X133899146Y-102847965D01*
X133976692Y-103018462D01*
X134031619Y-103179896D01*
X134051114Y-103295710D01*
X135098561Y-103295710D01*
X135073395Y-103100580D01*
X134921221Y-102569090D01*
X134676657Y-102124609D01*
X134339828Y-101767315D01*
X133932993Y-101508068D01*
X133715052Y-101412752D01*
X133515029Y-101359068D01*
X133279427Y-101336203D01*
X133065549Y-101332744D01*
X132579259Y-101375059D01*
G37*
X132579259Y-101375059D02*
X132169851Y-101506841D01*
X131816380Y-101736572D01*
X131633798Y-101912536D01*
X131494378Y-102086558D01*
X131351845Y-102301514D01*
X131220885Y-102529505D01*
X131116181Y-102742630D01*
X131052418Y-102912988D01*
X131044281Y-103012681D01*
X131050221Y-103021318D01*
X131120375Y-103057346D01*
X131290413Y-103133502D01*
X131542541Y-103242154D01*
X131858967Y-103375668D01*
X132221895Y-103526415D01*
X132366750Y-103585994D01*
X132831138Y-103776111D01*
X133190365Y-103923791D01*
X133456252Y-104036048D01*
X133640616Y-104119893D01*
X133755275Y-104182338D01*
X133812049Y-104230398D01*
X133822754Y-104271084D01*
X133799210Y-104311409D01*
X133753234Y-104358385D01*
X133722094Y-104390212D01*
X133439857Y-104613919D01*
X133110471Y-104723407D01*
X132900652Y-104737686D01*
X132638522Y-104715874D01*
X132424793Y-104641297D01*
X132212809Y-104493222D01*
X132080256Y-104373130D01*
X131857262Y-104160275D01*
X131461131Y-104420600D01*
X131270115Y-104553323D01*
X131129616Y-104664655D01*
X131066217Y-104733257D01*
X131065000Y-104738581D01*
X131113890Y-104833060D01*
X131242769Y-104973827D01*
X131424954Y-105138250D01*
X131633761Y-105303698D01*
X131842504Y-105447542D01*
X132011524Y-105541327D01*
X132427465Y-105673664D01*
X132891185Y-105724373D01*
X133350122Y-105689680D01*
X133524280Y-105650011D01*
X134001862Y-105454189D01*
X134406251Y-105163853D01*
X134728205Y-104794210D01*
X134958484Y-104360471D01*
X135087846Y-103877842D01*
X135107050Y-103361534D01*
X135098561Y-103295710D01*
X134051114Y-103295710D01*
X134031200Y-103331000D01*
X133965436Y-103307996D01*
X133804458Y-103244852D01*
X133570246Y-103150372D01*
X133284777Y-103033356D01*
X133184780Y-102992005D01*
X132887703Y-102863312D01*
X132639246Y-102745009D01*
X132460449Y-102647926D01*
X132372353Y-102582896D01*
X132366750Y-102570917D01*
X132421318Y-102485089D01*
X132557274Y-102389649D01*
X132732999Y-102306573D01*
X132906873Y-102257838D01*
X132969010Y-102252894D01*
X133215931Y-102302222D01*
X133482753Y-102427546D01*
X133716825Y-102600627D01*
X133811793Y-102704963D01*
X133899146Y-102847965D01*
X133976692Y-103018462D01*
X134031619Y-103179896D01*
X134051114Y-103295710D01*
X135098561Y-103295710D01*
X135073395Y-103100580D01*
X134921221Y-102569090D01*
X134676657Y-102124609D01*
X134339828Y-101767315D01*
X133932993Y-101508068D01*
X133715052Y-101412752D01*
X133515029Y-101359068D01*
X133279427Y-101336203D01*
X133065549Y-101332744D01*
X132579259Y-101375059D01*
G36*
X165996011Y-103016724D02*
G01*
X165681281Y-103162452D01*
X165664237Y-103174171D01*
X165370247Y-103445573D01*
X165188055Y-103771005D01*
X165113412Y-104159621D01*
X165113914Y-104360138D01*
X165139485Y-104627771D01*
X165193356Y-104824729D01*
X165292638Y-105006844D01*
X165327991Y-105058638D01*
X165494800Y-105250762D01*
X165692240Y-105417301D01*
X165770570Y-105466272D01*
X165993065Y-105561890D01*
X166232516Y-105628576D01*
X166439567Y-105654681D01*
X166529750Y-105645453D01*
X166630742Y-105623658D01*
X166795838Y-105593699D01*
X166824168Y-105588924D01*
X167039657Y-105508871D01*
X167282968Y-105347212D01*
X167347768Y-105292820D01*
X167606103Y-104989154D01*
X167757955Y-104643163D01*
X167806261Y-104276998D01*
X167753955Y-103912807D01*
X167603972Y-103572738D01*
X167359248Y-103278942D01*
X167052990Y-103068577D01*
X166728424Y-102966246D01*
X166360578Y-102950142D01*
X165996011Y-103016724D01*
G37*
X165996011Y-103016724D02*
X165681281Y-103162452D01*
X165664237Y-103174171D01*
X165370247Y-103445573D01*
X165188055Y-103771005D01*
X165113412Y-104159621D01*
X165113914Y-104360138D01*
X165139485Y-104627771D01*
X165193356Y-104824729D01*
X165292638Y-105006844D01*
X165327991Y-105058638D01*
X165494800Y-105250762D01*
X165692240Y-105417301D01*
X165770570Y-105466272D01*
X165993065Y-105561890D01*
X166232516Y-105628576D01*
X166439567Y-105654681D01*
X166529750Y-105645453D01*
X166630742Y-105623658D01*
X166795838Y-105593699D01*
X166824168Y-105588924D01*
X167039657Y-105508871D01*
X167282968Y-105347212D01*
X167347768Y-105292820D01*
X167606103Y-104989154D01*
X167757955Y-104643163D01*
X167806261Y-104276998D01*
X167753955Y-103912807D01*
X167603972Y-103572738D01*
X167359248Y-103278942D01*
X167052990Y-103068577D01*
X166728424Y-102966246D01*
X166360578Y-102950142D01*
X165996011Y-103016724D01*
G36*
X135446500Y-105617000D02*
G01*
X136526000Y-105617000D01*
X136526000Y-99140000D01*
X135446500Y-99140000D01*
X135446500Y-105617000D01*
G37*
X135446500Y-105617000D02*
X136526000Y-105617000D01*
X136526000Y-99140000D01*
X135446500Y-99140000D01*
X135446500Y-105617000D01*
G36*
X126043093Y-99462142D02*
G01*
X125885597Y-99479823D01*
X125800530Y-99516173D01*
X125763784Y-99568625D01*
X125715088Y-99693916D01*
X125629612Y-99917248D01*
X125512645Y-100224599D01*
X125369472Y-100601946D01*
X125205382Y-101035269D01*
X125025661Y-101510544D01*
X124835597Y-102013751D01*
X124640476Y-102530865D01*
X124445586Y-103047867D01*
X124256215Y-103550732D01*
X124077648Y-104025441D01*
X123915174Y-104457969D01*
X123774079Y-104834296D01*
X123659651Y-105140399D01*
X123577177Y-105362257D01*
X123531944Y-105485846D01*
X123525087Y-105505875D01*
X123522228Y-105561627D01*
X123568225Y-105594972D01*
X123686603Y-105611492D01*
X123900889Y-105616772D01*
X123993280Y-105617000D01*
X124492873Y-105617000D01*
X124778562Y-104790318D01*
X125064250Y-103963636D01*
X127527450Y-103997750D01*
X127812514Y-104807375D01*
X128097579Y-105617000D01*
X128603834Y-105617000D01*
X128868072Y-105611608D01*
X129021884Y-105593640D01*
X129081457Y-105560402D01*
X129081114Y-105537625D01*
X129053651Y-105464222D01*
X128985785Y-105283566D01*
X128881880Y-105007250D01*
X128746297Y-104646870D01*
X128583401Y-104214020D01*
X128397555Y-103720294D01*
X128193121Y-103177287D01*
X128168673Y-103112358D01*
X127191500Y-103112358D01*
X127131789Y-103122472D01*
X126967800Y-103130974D01*
X126722256Y-103137143D01*
X126417874Y-103140262D01*
X126302500Y-103140500D01*
X125983002Y-103137198D01*
X125714442Y-103128129D01*
X125519540Y-103114551D01*
X125421012Y-103097719D01*
X125413500Y-103091337D01*
X125434329Y-103019263D01*
X125492445Y-102846720D01*
X125581290Y-102592430D01*
X125694308Y-102275114D01*
X125824943Y-101913496D01*
X125852713Y-101837212D01*
X126001297Y-101431241D01*
X126113396Y-101132014D01*
X126195475Y-100926758D01*
X126254005Y-100802702D01*
X126295454Y-100747074D01*
X126326288Y-100747101D01*
X126352977Y-100790013D01*
X126366471Y-100822750D01*
X126423444Y-100972839D01*
X126507630Y-101200283D01*
X126610942Y-101482635D01*
X126725291Y-101797448D01*
X126842589Y-102122276D01*
X126954748Y-102434673D01*
X127053678Y-102712190D01*
X127131293Y-102932383D01*
X127179503Y-103072804D01*
X127191500Y-103112358D01*
X128168673Y-103112358D01*
X127974462Y-102596595D01*
X127922222Y-102457875D01*
X126792303Y-99457500D01*
X126300196Y-99457500D01*
X126043093Y-99462142D01*
G37*
X126043093Y-99462142D02*
X125885597Y-99479823D01*
X125800530Y-99516173D01*
X125763784Y-99568625D01*
X125715088Y-99693916D01*
X125629612Y-99917248D01*
X125512645Y-100224599D01*
X125369472Y-100601946D01*
X125205382Y-101035269D01*
X125025661Y-101510544D01*
X124835597Y-102013751D01*
X124640476Y-102530865D01*
X124445586Y-103047867D01*
X124256215Y-103550732D01*
X124077648Y-104025441D01*
X123915174Y-104457969D01*
X123774079Y-104834296D01*
X123659651Y-105140399D01*
X123577177Y-105362257D01*
X123531944Y-105485846D01*
X123525087Y-105505875D01*
X123522228Y-105561627D01*
X123568225Y-105594972D01*
X123686603Y-105611492D01*
X123900889Y-105616772D01*
X123993280Y-105617000D01*
X124492873Y-105617000D01*
X124778562Y-104790318D01*
X125064250Y-103963636D01*
X127527450Y-103997750D01*
X127812514Y-104807375D01*
X128097579Y-105617000D01*
X128603834Y-105617000D01*
X128868072Y-105611608D01*
X129021884Y-105593640D01*
X129081457Y-105560402D01*
X129081114Y-105537625D01*
X129053651Y-105464222D01*
X128985785Y-105283566D01*
X128881880Y-105007250D01*
X128746297Y-104646870D01*
X128583401Y-104214020D01*
X128397555Y-103720294D01*
X128193121Y-103177287D01*
X128168673Y-103112358D01*
X127191500Y-103112358D01*
X127131789Y-103122472D01*
X126967800Y-103130974D01*
X126722256Y-103137143D01*
X126417874Y-103140262D01*
X126302500Y-103140500D01*
X125983002Y-103137198D01*
X125714442Y-103128129D01*
X125519540Y-103114551D01*
X125421012Y-103097719D01*
X125413500Y-103091337D01*
X125434329Y-103019263D01*
X125492445Y-102846720D01*
X125581290Y-102592430D01*
X125694308Y-102275114D01*
X125824943Y-101913496D01*
X125852713Y-101837212D01*
X126001297Y-101431241D01*
X126113396Y-101132014D01*
X126195475Y-100926758D01*
X126254005Y-100802702D01*
X126295454Y-100747074D01*
X126326288Y-100747101D01*
X126352977Y-100790013D01*
X126366471Y-100822750D01*
X126423444Y-100972839D01*
X126507630Y-101200283D01*
X126610942Y-101482635D01*
X126725291Y-101797448D01*
X126842589Y-102122276D01*
X126954748Y-102434673D01*
X127053678Y-102712190D01*
X127131293Y-102932383D01*
X127179503Y-103072804D01*
X127191500Y-103112358D01*
X128168673Y-103112358D01*
X127974462Y-102596595D01*
X127922222Y-102457875D01*
X126792303Y-99457500D01*
X126300196Y-99457500D01*
X126043093Y-99462142D01*
G36*
X121984500Y-105617000D02*
G01*
X122937000Y-105617000D01*
X122937000Y-99457500D01*
X121984500Y-99457500D01*
X121984500Y-105617000D01*
G37*
X121984500Y-105617000D02*
X122937000Y-105617000D01*
X122937000Y-99457500D01*
X121984500Y-99457500D01*
X121984500Y-105617000D01*
G36*
X173317178Y-103304879D02*
G01*
X173038664Y-103410431D01*
X172806559Y-103592858D01*
X172636096Y-103835450D01*
X172542508Y-104121501D01*
X172541030Y-104434302D01*
X172646894Y-104757146D01*
X172669190Y-104798723D01*
X172863064Y-105028226D01*
X173131741Y-105196009D01*
X173436525Y-105287335D01*
X173738716Y-105287470D01*
X173864000Y-105253682D01*
X174164955Y-105077459D01*
X174379208Y-104816013D01*
X174495507Y-104486280D01*
X174513654Y-104275960D01*
X174458151Y-103927938D01*
X174293089Y-103643718D01*
X174020643Y-103426726D01*
X173952494Y-103391229D01*
X173626866Y-103292909D01*
X173317178Y-103304879D01*
G37*
X173317178Y-103304879D02*
X173038664Y-103410431D01*
X172806559Y-103592858D01*
X172636096Y-103835450D01*
X172542508Y-104121501D01*
X172541030Y-104434302D01*
X172646894Y-104757146D01*
X172669190Y-104798723D01*
X172863064Y-105028226D01*
X173131741Y-105196009D01*
X173436525Y-105287335D01*
X173738716Y-105287470D01*
X173864000Y-105253682D01*
X174164955Y-105077459D01*
X174379208Y-104816013D01*
X174495507Y-104486280D01*
X174513654Y-104275960D01*
X174458151Y-103927938D01*
X174293089Y-103643718D01*
X174020643Y-103426726D01*
X173952494Y-103391229D01*
X173626866Y-103292909D01*
X173317178Y-103304879D01*
G36*
X162654211Y-100748354D02*
G01*
X162378432Y-100804841D01*
X162320836Y-100825968D01*
X161977954Y-101034059D01*
X161691643Y-101335863D01*
X161484199Y-101702806D01*
X161391187Y-102017485D01*
X161381116Y-102401448D01*
X161475577Y-102788570D01*
X161658949Y-103147660D01*
X161915615Y-103447526D01*
X162206677Y-103646043D01*
X162477627Y-103742782D01*
X162788116Y-103802115D01*
X163087027Y-103817757D01*
X163323246Y-103783422D01*
X163323412Y-103783368D01*
X163752943Y-103585326D01*
X164088283Y-103307528D01*
X164323166Y-102958334D01*
X164451326Y-102546105D01*
X164474428Y-102247441D01*
X164444312Y-101922730D01*
X164366582Y-101634145D01*
X164352908Y-101601403D01*
X164178776Y-101324917D01*
X163925218Y-101064545D01*
X163636925Y-100863320D01*
X163536033Y-100814806D01*
X163288489Y-100752827D01*
X162976056Y-100730847D01*
X162654211Y-100748354D01*
G37*
X162654211Y-100748354D02*
X162378432Y-100804841D01*
X162320836Y-100825968D01*
X161977954Y-101034059D01*
X161691643Y-101335863D01*
X161484199Y-101702806D01*
X161391187Y-102017485D01*
X161381116Y-102401448D01*
X161475577Y-102788570D01*
X161658949Y-103147660D01*
X161915615Y-103447526D01*
X162206677Y-103646043D01*
X162477627Y-103742782D01*
X162788116Y-103802115D01*
X163087027Y-103817757D01*
X163323246Y-103783422D01*
X163323412Y-103783368D01*
X163752943Y-103585326D01*
X164088283Y-103307528D01*
X164323166Y-102958334D01*
X164451326Y-102546105D01*
X164474428Y-102247441D01*
X164444312Y-101922730D01*
X164366582Y-101634145D01*
X164352908Y-101601403D01*
X164178776Y-101324917D01*
X163925218Y-101064545D01*
X163636925Y-100863320D01*
X163536033Y-100814806D01*
X163288489Y-100752827D01*
X162976056Y-100730847D01*
X162654211Y-100748354D01*
G36*
X169740225Y-101137376D02*
G01*
X169389745Y-101248005D01*
X169142481Y-101412546D01*
X168997261Y-101598188D01*
X168874708Y-101853082D01*
X168799301Y-102119494D01*
X168786790Y-102251500D01*
X168846339Y-102592204D01*
X169009600Y-102910018D01*
X169253495Y-103174776D01*
X169554945Y-103356311D01*
X169659097Y-103391705D01*
X169878865Y-103441695D01*
X170051253Y-103443810D01*
X170246298Y-103398571D01*
X170254493Y-103396106D01*
X170592905Y-103238564D01*
X170850769Y-103008428D01*
X171025961Y-102726874D01*
X171116358Y-102415078D01*
X171119839Y-102094215D01*
X171034279Y-101785460D01*
X170857558Y-101509988D01*
X170587551Y-101288976D01*
X170471742Y-101228917D01*
X170112544Y-101129403D01*
X169740225Y-101137376D01*
G37*
X169740225Y-101137376D02*
X169389745Y-101248005D01*
X169142481Y-101412546D01*
X168997261Y-101598188D01*
X168874708Y-101853082D01*
X168799301Y-102119494D01*
X168786790Y-102251500D01*
X168846339Y-102592204D01*
X169009600Y-102910018D01*
X169253495Y-103174776D01*
X169554945Y-103356311D01*
X169659097Y-103391705D01*
X169878865Y-103441695D01*
X170051253Y-103443810D01*
X170246298Y-103398571D01*
X170254493Y-103396106D01*
X170592905Y-103238564D01*
X170850769Y-103008428D01*
X171025961Y-102726874D01*
X171116358Y-102415078D01*
X171119839Y-102094215D01*
X171034279Y-101785460D01*
X170857558Y-101509988D01*
X170587551Y-101288976D01*
X170471742Y-101228917D01*
X170112544Y-101129403D01*
X169740225Y-101137376D01*
G36*
X176717464Y-101484769D02*
G01*
X176491974Y-101659759D01*
X176345609Y-101839381D01*
X176274508Y-102031706D01*
X176264409Y-102283173D01*
X176271268Y-102378500D01*
X176352033Y-102640236D01*
X176525558Y-102850041D01*
X176763776Y-102995094D01*
X177038617Y-103062575D01*
X177322014Y-103039662D01*
X177528043Y-102952570D01*
X177752957Y-102750823D01*
X177881303Y-102498174D01*
X177916996Y-102221386D01*
X177863952Y-101947223D01*
X177726087Y-101702446D01*
X177507316Y-101513819D01*
X177305069Y-101428668D01*
X176996016Y-101396716D01*
X176717464Y-101484769D01*
G37*
X176717464Y-101484769D02*
X176491974Y-101659759D01*
X176345609Y-101839381D01*
X176274508Y-102031706D01*
X176264409Y-102283173D01*
X176271268Y-102378500D01*
X176352033Y-102640236D01*
X176525558Y-102850041D01*
X176763776Y-102995094D01*
X177038617Y-103062575D01*
X177322014Y-103039662D01*
X177528043Y-102952570D01*
X177752957Y-102750823D01*
X177881303Y-102498174D01*
X177916996Y-102221386D01*
X177863952Y-101947223D01*
X177726087Y-101702446D01*
X177507316Y-101513819D01*
X177305069Y-101428668D01*
X176996016Y-101396716D01*
X176717464Y-101484769D01*
G36*
X165937562Y-98902515D02*
G01*
X165709156Y-99016622D01*
X165416919Y-99284271D01*
X165216446Y-99614532D01*
X165111555Y-99982282D01*
X165106065Y-100362397D01*
X165203793Y-100729756D01*
X165400195Y-101049397D01*
X165689762Y-101299733D01*
X166045078Y-101459946D01*
X166434381Y-101521276D01*
X166825905Y-101474962D01*
X166882648Y-101458257D01*
X167226400Y-101288208D01*
X167493340Y-101036268D01*
X167679212Y-100724780D01*
X167779757Y-100376089D01*
X167790718Y-100012539D01*
X167707837Y-99656474D01*
X167526856Y-99330238D01*
X167327898Y-99121694D01*
X167024670Y-98940752D01*
X166666479Y-98842259D01*
X166291415Y-98828690D01*
X165937562Y-98902515D01*
G37*
X165937562Y-98902515D02*
X165709156Y-99016622D01*
X165416919Y-99284271D01*
X165216446Y-99614532D01*
X165111555Y-99982282D01*
X165106065Y-100362397D01*
X165203793Y-100729756D01*
X165400195Y-101049397D01*
X165689762Y-101299733D01*
X166045078Y-101459946D01*
X166434381Y-101521276D01*
X166825905Y-101474962D01*
X166882648Y-101458257D01*
X167226400Y-101288208D01*
X167493340Y-101036268D01*
X167679212Y-100724780D01*
X167779757Y-100376089D01*
X167790718Y-100012539D01*
X167707837Y-99656474D01*
X167526856Y-99330238D01*
X167327898Y-99121694D01*
X167024670Y-98940752D01*
X166666479Y-98842259D01*
X166291415Y-98828690D01*
X165937562Y-98902515D01*
G36*
X173190529Y-99256654D02*
G01*
X172896430Y-99409573D01*
X172684582Y-99652716D01*
X172565769Y-99976308D01*
X172547249Y-100118431D01*
X172575721Y-100476381D01*
X172706913Y-100775376D01*
X172924983Y-101001985D01*
X173214090Y-101142775D01*
X173558392Y-101184315D01*
X173773696Y-101158347D01*
X174051589Y-101043799D01*
X174228287Y-100900549D01*
X174421812Y-100620392D01*
X174510042Y-100316217D01*
X174501763Y-100010199D01*
X174405759Y-99724512D01*
X174230814Y-99481332D01*
X173985714Y-99302835D01*
X173679243Y-99211194D01*
X173556097Y-99203737D01*
X173190529Y-99256654D01*
G37*
X173190529Y-99256654D02*
X172896430Y-99409573D01*
X172684582Y-99652716D01*
X172565769Y-99976308D01*
X172547249Y-100118431D01*
X172575721Y-100476381D01*
X172706913Y-100775376D01*
X172924983Y-101001985D01*
X173214090Y-101142775D01*
X173558392Y-101184315D01*
X173773696Y-101158347D01*
X174051589Y-101043799D01*
X174228287Y-100900549D01*
X174421812Y-100620392D01*
X174510042Y-100316217D01*
X174501763Y-100010199D01*
X174405759Y-99724512D01*
X174230814Y-99481332D01*
X173985714Y-99302835D01*
X173679243Y-99211194D01*
X173556097Y-99203737D01*
X173190529Y-99256654D01*
G36*
X169709543Y-97025260D02*
G01*
X169384162Y-97154472D01*
X169096684Y-97382837D01*
X168968774Y-97542121D01*
X168843716Y-97826896D01*
X168804901Y-98160577D01*
X168851727Y-98499404D01*
X168983588Y-98799621D01*
X168986186Y-98803569D01*
X169236338Y-99074292D01*
X169550139Y-99248154D01*
X169901784Y-99318440D01*
X170265465Y-99278438D01*
X170487815Y-99194246D01*
X170793071Y-98980883D01*
X170994448Y-98694481D01*
X171091854Y-98335200D01*
X171101750Y-98155750D01*
X171088919Y-97897700D01*
X171040018Y-97705658D01*
X170939436Y-97520289D01*
X170931315Y-97507930D01*
X170683715Y-97236535D01*
X170382260Y-97065892D01*
X170049889Y-96995600D01*
X169709543Y-97025260D01*
G37*
X169709543Y-97025260D02*
X169384162Y-97154472D01*
X169096684Y-97382837D01*
X168968774Y-97542121D01*
X168843716Y-97826896D01*
X168804901Y-98160577D01*
X168851727Y-98499404D01*
X168983588Y-98799621D01*
X168986186Y-98803569D01*
X169236338Y-99074292D01*
X169550139Y-99248154D01*
X169901784Y-99318440D01*
X170265465Y-99278438D01*
X170487815Y-99194246D01*
X170793071Y-98980883D01*
X170994448Y-98694481D01*
X171091854Y-98335200D01*
X171101750Y-98155750D01*
X171088919Y-97897700D01*
X171040018Y-97705658D01*
X170939436Y-97520289D01*
X170931315Y-97507930D01*
X170683715Y-97236535D01*
X170382260Y-97065892D01*
X170049889Y-96995600D01*
X169709543Y-97025260D01*
D11*
X124572000Y-91968000D02*
X124572000Y-94568000D01*
X124572000Y-91968000D02*
X175492000Y-91968000D01*
X175492000Y-91968000D02*
X175492000Y-97168000D01*
X127172000Y-97168000D02*
X175492000Y-97168000D01*
X127172000Y-94568000D02*
X127172000Y-97168000D01*
X124572000Y-94568000D02*
X127172000Y-94568000D01*
X124572000Y-97168000D02*
X125902000Y-97168000D01*
X124572000Y-95838000D02*
X124572000Y-97168000D01*
D12*
X142535333Y-98090380D02*
X142535333Y-98804666D01*
X142582952Y-98947523D01*
X142678190Y-99042761D01*
X142821047Y-99090380D01*
X142916285Y-99090380D01*
X141535333Y-99090380D02*
X142106761Y-99090380D01*
X141821047Y-99090380D02*
X141821047Y-98090380D01*
X141916285Y-98233238D01*
X142011523Y-98328476D01*
X142106761Y-98376095D01*
M02*
