M48
; DRILL file {KiCad (5.1.6-0-10_14)} date Tuesday, May 11, 2021 at 12:03:36 PM
; FORMAT={-:-/ absolute / inch / decimal}
; #@! TF.CreationDate,2021-05-11T12:03:36-04:00
; #@! TF.GenerationSoftware,Kicad,Pcbnew,(5.1.6-0-10_14)
FMAT,2
INCH
T1C0.0300
T2C0.0394
T3C0.0402
T4C0.0984
T5C0.0402
T6C0.1063
%
G90
G05
T1
X4.765Y-4.0231
X4.765Y-4.1231
X4.765Y-4.2231
X4.765Y-4.3231
X6.12Y-3.8731
X6.12Y-4.1731
X6.22Y-3.8731
X6.22Y-4.1731
X6.32Y-3.8731
X6.32Y-4.1731
X6.42Y-3.8731
X6.42Y-4.1731
X6.52Y-3.8731
X6.52Y-4.1731
X6.62Y-3.8731
X6.62Y-4.1731
X6.72Y-3.8731
X6.72Y-4.1731
X6.82Y-3.8731
X6.82Y-4.1731
X7.045Y-4.0231
X7.045Y-4.1231
X7.045Y-4.2231
X7.045Y-4.3231
T2
X4.9568Y-3.6731
X4.9568Y-3.7731
X5.0568Y-3.6731
X5.0568Y-3.7731
X5.1568Y-3.6731
X5.1568Y-3.7731
X5.2568Y-3.6731
X5.2568Y-3.7731
X5.3568Y-3.6731
X5.3568Y-3.7731
X5.4568Y-3.6731
X5.4568Y-3.7731
X5.5568Y-3.6731
X5.5568Y-3.7731
X5.6568Y-3.6731
X5.6568Y-3.7731
X5.7568Y-3.6731
X5.7568Y-3.7731
X5.8568Y-3.6731
X5.8568Y-3.7731
X5.9568Y-3.6731
X5.9568Y-3.7731
X6.0568Y-3.6731
X6.0568Y-3.7731
X6.1568Y-3.6731
X6.1568Y-3.7731
X6.2568Y-3.6731
X6.2568Y-3.7731
X6.3568Y-3.6731
X6.3568Y-3.7731
X6.4568Y-3.6731
X6.4568Y-3.7731
X6.5568Y-3.6731
X6.5568Y-3.7731
X6.6568Y-3.6731
X6.6568Y-3.7731
X6.7568Y-3.6731
X6.7568Y-3.7731
X6.8568Y-3.6731
X6.8568Y-3.7731
X5.02Y-4.6706
X5.12Y-4.6706
X5.22Y-4.6706
X5.32Y-4.6706
X5.42Y-4.6706
X5.52Y-4.6706
X5.62Y-4.6706
X5.72Y-4.6706
X5.82Y-4.6706
X5.92Y-4.6706
T3
X6.5469Y-4.5417
X6.5469Y-4.6598
X6.665Y-4.5417
X6.665Y-4.6598
X6.7831Y-4.5417
X6.7831Y-4.6598
T4
X5.02Y-4.1706
X5.92Y-4.1706
T5
X6.4965Y-4.5031
T6
X4.765Y-4.6287
X7.0485Y-4.6287
X7.0485Y-3.7231
X4.765Y-3.7231
T0
M30
