G04 #@! TF.GenerationSoftware,KiCad,Pcbnew,(5.1.6-0-10_14)*
G04 #@! TF.CreationDate,2021-05-11T12:07:35-04:00*
G04 #@! TF.ProjectId,venti-zero,76656e74-692d-47a6-9572-6f2e6b696361,1.0*
G04 #@! TF.SameCoordinates,Original*
G04 #@! TF.FileFunction,Other,User*
%FSLAX46Y46*%
G04 Gerber Fmt 4.6, Leading zero omitted, Abs format (unit mm)*
G04 Created by KiCad (PCBNEW (5.1.6-0-10_14)) date 2021-05-11 12:07:35*
%MOMM*%
%LPD*%
G01*
G04 APERTURE LIST*
%ADD10C,0.152400*%
%ADD11C,0.150000*%
%ADD12C,0.050000*%
G04 APERTURE END LIST*
D10*
X154560000Y-105998000D02*
X154560000Y-106887000D01*
X154090100Y-105998000D02*
X154560000Y-105998000D01*
X154090100Y-98378000D02*
X154090100Y-105998000D01*
X154560000Y-98378000D02*
X154090100Y-98378000D01*
X154560000Y-97489000D02*
X154560000Y-98378000D01*
X174118000Y-97489000D02*
X154560000Y-97489000D01*
X174118000Y-98378000D02*
X174118000Y-97489000D01*
X174587900Y-98378000D02*
X174118000Y-98378000D01*
X174587900Y-105998000D02*
X174587900Y-98378000D01*
X174118000Y-105998000D02*
X174587900Y-105998000D01*
X174118000Y-106887000D02*
X174118000Y-105998000D01*
X154560000Y-106887000D02*
X174118000Y-106887000D01*
D11*
X174367000Y-120563000D02*
X174367000Y-111753000D01*
X164217000Y-120563000D02*
X174367000Y-120563000D01*
X164217000Y-111753000D02*
X164217000Y-120563000D01*
X174367000Y-111753000D02*
X164217000Y-111753000D01*
X174367000Y-111753000D02*
X174367000Y-111753000D01*
D12*
X123982000Y-94568000D02*
G75*
G03*
X123982000Y-94568000I-2950000J0D01*
G01*
X181982000Y-94568000D02*
G75*
G03*
X181982000Y-94568000I-2950000J0D01*
G01*
X181982000Y-117568000D02*
G75*
G03*
X181982000Y-117568000I-2950000J0D01*
G01*
X123982000Y-117568000D02*
G75*
G03*
X123982000Y-117568000I-2950000J0D01*
G01*
X124719000Y-120789500D02*
X124719000Y-103144500D01*
X153159000Y-120789500D02*
X124719000Y-120789500D01*
X153159000Y-103144500D02*
X153159000Y-120789500D01*
X124719000Y-103144500D02*
X153159000Y-103144500D01*
M02*
