G04 #@! TF.GenerationSoftware,KiCad,Pcbnew,(5.1.6-0-10_14)*
G04 #@! TF.CreationDate,2021-05-11T12:02:37-04:00*
G04 #@! TF.ProjectId,venti-zero,76656e74-692d-47a6-9572-6f2e6b696361,1.0*
G04 #@! TF.SameCoordinates,Original*
G04 #@! TF.FileFunction,Soldermask,Top*
G04 #@! TF.FilePolarity,Negative*
%FSLAX46Y46*%
G04 Gerber Fmt 4.6, Leading zero omitted, Abs format (unit mm)*
G04 Created by KiCad (PCBNEW (5.1.6-0-10_14)) date 2021-05-11 12:02:37*
%MOMM*%
%LPD*%
G01*
G04 APERTURE LIST*
%ADD10C,0.150000*%
G04 APERTURE END LIST*
D10*
G36*
X151174000Y-119439500D02*
G01*
X149564000Y-119439500D01*
X149564000Y-117829500D01*
X151174000Y-117829500D01*
X151174000Y-119439500D01*
G37*
G36*
X148063810Y-117860435D02*
G01*
X148210309Y-117921117D01*
X148210310Y-117921118D01*
X148342158Y-118009216D01*
X148454284Y-118121342D01*
X148454285Y-118121344D01*
X148542383Y-118253191D01*
X148603065Y-118399690D01*
X148634000Y-118555213D01*
X148634000Y-118713787D01*
X148603065Y-118869310D01*
X148542383Y-119015809D01*
X148542382Y-119015810D01*
X148454284Y-119147658D01*
X148342158Y-119259784D01*
X148275785Y-119304133D01*
X148210309Y-119347883D01*
X148063810Y-119408565D01*
X147908287Y-119439500D01*
X147749713Y-119439500D01*
X147594190Y-119408565D01*
X147447691Y-119347883D01*
X147382215Y-119304133D01*
X147315842Y-119259784D01*
X147203716Y-119147658D01*
X147115618Y-119015810D01*
X147115617Y-119015809D01*
X147054935Y-118869310D01*
X147024000Y-118713787D01*
X147024000Y-118555213D01*
X147054935Y-118399690D01*
X147115617Y-118253191D01*
X147203715Y-118121344D01*
X147203716Y-118121342D01*
X147315842Y-118009216D01*
X147447690Y-117921118D01*
X147447691Y-117921117D01*
X147594190Y-117860435D01*
X147749713Y-117829500D01*
X147908287Y-117829500D01*
X148063810Y-117860435D01*
G37*
G36*
X145523810Y-117860435D02*
G01*
X145670309Y-117921117D01*
X145670310Y-117921118D01*
X145802158Y-118009216D01*
X145914284Y-118121342D01*
X145914285Y-118121344D01*
X146002383Y-118253191D01*
X146063065Y-118399690D01*
X146094000Y-118555213D01*
X146094000Y-118713787D01*
X146063065Y-118869310D01*
X146002383Y-119015809D01*
X146002382Y-119015810D01*
X145914284Y-119147658D01*
X145802158Y-119259784D01*
X145735785Y-119304133D01*
X145670309Y-119347883D01*
X145523810Y-119408565D01*
X145368287Y-119439500D01*
X145209713Y-119439500D01*
X145054190Y-119408565D01*
X144907691Y-119347883D01*
X144842215Y-119304133D01*
X144775842Y-119259784D01*
X144663716Y-119147658D01*
X144575618Y-119015810D01*
X144575617Y-119015809D01*
X144514935Y-118869310D01*
X144484000Y-118713787D01*
X144484000Y-118555213D01*
X144514935Y-118399690D01*
X144575617Y-118253191D01*
X144663715Y-118121344D01*
X144663716Y-118121342D01*
X144775842Y-118009216D01*
X144907690Y-117921118D01*
X144907691Y-117921117D01*
X145054190Y-117860435D01*
X145209713Y-117829500D01*
X145368287Y-117829500D01*
X145523810Y-117860435D01*
G37*
G36*
X142983810Y-117860435D02*
G01*
X143130309Y-117921117D01*
X143130310Y-117921118D01*
X143262158Y-118009216D01*
X143374284Y-118121342D01*
X143374285Y-118121344D01*
X143462383Y-118253191D01*
X143523065Y-118399690D01*
X143554000Y-118555213D01*
X143554000Y-118713787D01*
X143523065Y-118869310D01*
X143462383Y-119015809D01*
X143462382Y-119015810D01*
X143374284Y-119147658D01*
X143262158Y-119259784D01*
X143195785Y-119304133D01*
X143130309Y-119347883D01*
X142983810Y-119408565D01*
X142828287Y-119439500D01*
X142669713Y-119439500D01*
X142514190Y-119408565D01*
X142367691Y-119347883D01*
X142302215Y-119304133D01*
X142235842Y-119259784D01*
X142123716Y-119147658D01*
X142035618Y-119015810D01*
X142035617Y-119015809D01*
X141974935Y-118869310D01*
X141944000Y-118713787D01*
X141944000Y-118555213D01*
X141974935Y-118399690D01*
X142035617Y-118253191D01*
X142123715Y-118121344D01*
X142123716Y-118121342D01*
X142235842Y-118009216D01*
X142367690Y-117921118D01*
X142367691Y-117921117D01*
X142514190Y-117860435D01*
X142669713Y-117829500D01*
X142828287Y-117829500D01*
X142983810Y-117860435D01*
G37*
G36*
X140443810Y-117860435D02*
G01*
X140590309Y-117921117D01*
X140590310Y-117921118D01*
X140722158Y-118009216D01*
X140834284Y-118121342D01*
X140834285Y-118121344D01*
X140922383Y-118253191D01*
X140983065Y-118399690D01*
X141014000Y-118555213D01*
X141014000Y-118713787D01*
X140983065Y-118869310D01*
X140922383Y-119015809D01*
X140922382Y-119015810D01*
X140834284Y-119147658D01*
X140722158Y-119259784D01*
X140655785Y-119304133D01*
X140590309Y-119347883D01*
X140443810Y-119408565D01*
X140288287Y-119439500D01*
X140129713Y-119439500D01*
X139974190Y-119408565D01*
X139827691Y-119347883D01*
X139762215Y-119304133D01*
X139695842Y-119259784D01*
X139583716Y-119147658D01*
X139495618Y-119015810D01*
X139495617Y-119015809D01*
X139434935Y-118869310D01*
X139404000Y-118713787D01*
X139404000Y-118555213D01*
X139434935Y-118399690D01*
X139495617Y-118253191D01*
X139583715Y-118121344D01*
X139583716Y-118121342D01*
X139695842Y-118009216D01*
X139827690Y-117921118D01*
X139827691Y-117921117D01*
X139974190Y-117860435D01*
X140129713Y-117829500D01*
X140288287Y-117829500D01*
X140443810Y-117860435D01*
G37*
G36*
X137903810Y-117860435D02*
G01*
X138050309Y-117921117D01*
X138050310Y-117921118D01*
X138182158Y-118009216D01*
X138294284Y-118121342D01*
X138294285Y-118121344D01*
X138382383Y-118253191D01*
X138443065Y-118399690D01*
X138474000Y-118555213D01*
X138474000Y-118713787D01*
X138443065Y-118869310D01*
X138382383Y-119015809D01*
X138382382Y-119015810D01*
X138294284Y-119147658D01*
X138182158Y-119259784D01*
X138115785Y-119304133D01*
X138050309Y-119347883D01*
X137903810Y-119408565D01*
X137748287Y-119439500D01*
X137589713Y-119439500D01*
X137434190Y-119408565D01*
X137287691Y-119347883D01*
X137222215Y-119304133D01*
X137155842Y-119259784D01*
X137043716Y-119147658D01*
X136955618Y-119015810D01*
X136955617Y-119015809D01*
X136894935Y-118869310D01*
X136864000Y-118713787D01*
X136864000Y-118555213D01*
X136894935Y-118399690D01*
X136955617Y-118253191D01*
X137043715Y-118121344D01*
X137043716Y-118121342D01*
X137155842Y-118009216D01*
X137287690Y-117921118D01*
X137287691Y-117921117D01*
X137434190Y-117860435D01*
X137589713Y-117829500D01*
X137748287Y-117829500D01*
X137903810Y-117860435D01*
G37*
G36*
X135363810Y-117860435D02*
G01*
X135510309Y-117921117D01*
X135510310Y-117921118D01*
X135642158Y-118009216D01*
X135754284Y-118121342D01*
X135754285Y-118121344D01*
X135842383Y-118253191D01*
X135903065Y-118399690D01*
X135934000Y-118555213D01*
X135934000Y-118713787D01*
X135903065Y-118869310D01*
X135842383Y-119015809D01*
X135842382Y-119015810D01*
X135754284Y-119147658D01*
X135642158Y-119259784D01*
X135575785Y-119304133D01*
X135510309Y-119347883D01*
X135363810Y-119408565D01*
X135208287Y-119439500D01*
X135049713Y-119439500D01*
X134894190Y-119408565D01*
X134747691Y-119347883D01*
X134682215Y-119304133D01*
X134615842Y-119259784D01*
X134503716Y-119147658D01*
X134415618Y-119015810D01*
X134415617Y-119015809D01*
X134354935Y-118869310D01*
X134324000Y-118713787D01*
X134324000Y-118555213D01*
X134354935Y-118399690D01*
X134415617Y-118253191D01*
X134503715Y-118121344D01*
X134503716Y-118121342D01*
X134615842Y-118009216D01*
X134747690Y-117921118D01*
X134747691Y-117921117D01*
X134894190Y-117860435D01*
X135049713Y-117829500D01*
X135208287Y-117829500D01*
X135363810Y-117860435D01*
G37*
G36*
X132823810Y-117860435D02*
G01*
X132970309Y-117921117D01*
X132970310Y-117921118D01*
X133102158Y-118009216D01*
X133214284Y-118121342D01*
X133214285Y-118121344D01*
X133302383Y-118253191D01*
X133363065Y-118399690D01*
X133394000Y-118555213D01*
X133394000Y-118713787D01*
X133363065Y-118869310D01*
X133302383Y-119015809D01*
X133302382Y-119015810D01*
X133214284Y-119147658D01*
X133102158Y-119259784D01*
X133035785Y-119304133D01*
X132970309Y-119347883D01*
X132823810Y-119408565D01*
X132668287Y-119439500D01*
X132509713Y-119439500D01*
X132354190Y-119408565D01*
X132207691Y-119347883D01*
X132142215Y-119304133D01*
X132075842Y-119259784D01*
X131963716Y-119147658D01*
X131875618Y-119015810D01*
X131875617Y-119015809D01*
X131814935Y-118869310D01*
X131784000Y-118713787D01*
X131784000Y-118555213D01*
X131814935Y-118399690D01*
X131875617Y-118253191D01*
X131963715Y-118121344D01*
X131963716Y-118121342D01*
X132075842Y-118009216D01*
X132207690Y-117921118D01*
X132207691Y-117921117D01*
X132354190Y-117860435D01*
X132509713Y-117829500D01*
X132668287Y-117829500D01*
X132823810Y-117860435D01*
G37*
G36*
X130283810Y-117860435D02*
G01*
X130430309Y-117921117D01*
X130430310Y-117921118D01*
X130562158Y-118009216D01*
X130674284Y-118121342D01*
X130674285Y-118121344D01*
X130762383Y-118253191D01*
X130823065Y-118399690D01*
X130854000Y-118555213D01*
X130854000Y-118713787D01*
X130823065Y-118869310D01*
X130762383Y-119015809D01*
X130762382Y-119015810D01*
X130674284Y-119147658D01*
X130562158Y-119259784D01*
X130495785Y-119304133D01*
X130430309Y-119347883D01*
X130283810Y-119408565D01*
X130128287Y-119439500D01*
X129969713Y-119439500D01*
X129814190Y-119408565D01*
X129667691Y-119347883D01*
X129602215Y-119304133D01*
X129535842Y-119259784D01*
X129423716Y-119147658D01*
X129335618Y-119015810D01*
X129335617Y-119015809D01*
X129274935Y-118869310D01*
X129244000Y-118713787D01*
X129244000Y-118555213D01*
X129274935Y-118399690D01*
X129335617Y-118253191D01*
X129423715Y-118121344D01*
X129423716Y-118121342D01*
X129535842Y-118009216D01*
X129667690Y-117921118D01*
X129667691Y-117921117D01*
X129814190Y-117860435D01*
X129969713Y-117829500D01*
X130128287Y-117829500D01*
X130283810Y-117860435D01*
G37*
G36*
X127743810Y-117860435D02*
G01*
X127890309Y-117921117D01*
X127890310Y-117921118D01*
X128022158Y-118009216D01*
X128134284Y-118121342D01*
X128134285Y-118121344D01*
X128222383Y-118253191D01*
X128283065Y-118399690D01*
X128314000Y-118555213D01*
X128314000Y-118713787D01*
X128283065Y-118869310D01*
X128222383Y-119015809D01*
X128222382Y-119015810D01*
X128134284Y-119147658D01*
X128022158Y-119259784D01*
X127955785Y-119304133D01*
X127890309Y-119347883D01*
X127743810Y-119408565D01*
X127588287Y-119439500D01*
X127429713Y-119439500D01*
X127274190Y-119408565D01*
X127127691Y-119347883D01*
X127062215Y-119304133D01*
X126995842Y-119259784D01*
X126883716Y-119147658D01*
X126795618Y-119015810D01*
X126795617Y-119015809D01*
X126734935Y-118869310D01*
X126704000Y-118713787D01*
X126704000Y-118555213D01*
X126734935Y-118399690D01*
X126795617Y-118253191D01*
X126883715Y-118121344D01*
X126883716Y-118121342D01*
X126995842Y-118009216D01*
X127127690Y-117921118D01*
X127127691Y-117921117D01*
X127274190Y-117860435D01*
X127429713Y-117829500D01*
X127588287Y-117829500D01*
X127743810Y-117860435D01*
G37*
G36*
X121350433Y-116202893D02*
G01*
X121440657Y-116220839D01*
X121546267Y-116264585D01*
X121695621Y-116326449D01*
X121695622Y-116326450D01*
X121925086Y-116479772D01*
X122120228Y-116674914D01*
X122222675Y-116828237D01*
X122273551Y-116904379D01*
X122379161Y-117159344D01*
X122433000Y-117430012D01*
X122433000Y-117705988D01*
X122379161Y-117976656D01*
X122273551Y-118231621D01*
X122273550Y-118231622D01*
X122120228Y-118461086D01*
X121925086Y-118656228D01*
X121838942Y-118713787D01*
X121695621Y-118809551D01*
X121551350Y-118869310D01*
X121440657Y-118915161D01*
X121350433Y-118933107D01*
X121169988Y-118969000D01*
X120894012Y-118969000D01*
X120713567Y-118933107D01*
X120623343Y-118915161D01*
X120512650Y-118869310D01*
X120368379Y-118809551D01*
X120225058Y-118713787D01*
X120138914Y-118656228D01*
X119943772Y-118461086D01*
X119790450Y-118231622D01*
X119790449Y-118231621D01*
X119684839Y-117976656D01*
X119631000Y-117705988D01*
X119631000Y-117430012D01*
X119684839Y-117159344D01*
X119790449Y-116904379D01*
X119841325Y-116828237D01*
X119943772Y-116674914D01*
X120138914Y-116479772D01*
X120368378Y-116326450D01*
X120368379Y-116326449D01*
X120517733Y-116264585D01*
X120623343Y-116220839D01*
X120713567Y-116202893D01*
X120894012Y-116167000D01*
X121169988Y-116167000D01*
X121350433Y-116202893D01*
G37*
G36*
X179350433Y-116202893D02*
G01*
X179440657Y-116220839D01*
X179546267Y-116264585D01*
X179695621Y-116326449D01*
X179695622Y-116326450D01*
X179925086Y-116479772D01*
X180120228Y-116674914D01*
X180222675Y-116828237D01*
X180273551Y-116904379D01*
X180379161Y-117159344D01*
X180433000Y-117430012D01*
X180433000Y-117705988D01*
X180379161Y-117976656D01*
X180273551Y-118231621D01*
X180273550Y-118231622D01*
X180120228Y-118461086D01*
X179925086Y-118656228D01*
X179838942Y-118713787D01*
X179695621Y-118809551D01*
X179551350Y-118869310D01*
X179440657Y-118915161D01*
X179350433Y-118933107D01*
X179169988Y-118969000D01*
X178894012Y-118969000D01*
X178713567Y-118933107D01*
X178623343Y-118915161D01*
X178512650Y-118869310D01*
X178368379Y-118809551D01*
X178225058Y-118713787D01*
X178138914Y-118656228D01*
X177943772Y-118461086D01*
X177790450Y-118231622D01*
X177790449Y-118231621D01*
X177684839Y-117976656D01*
X177631000Y-117705988D01*
X177631000Y-117430012D01*
X177684839Y-117159344D01*
X177790449Y-116904379D01*
X177841325Y-116828237D01*
X177943772Y-116674914D01*
X178138914Y-116479772D01*
X178368378Y-116326450D01*
X178368379Y-116326449D01*
X178517733Y-116264585D01*
X178623343Y-116220839D01*
X178713567Y-116202893D01*
X178894012Y-116167000D01*
X179169988Y-116167000D01*
X179350433Y-116202893D01*
G37*
G36*
X165175638Y-113838559D02*
G01*
X165226685Y-113859704D01*
X165277734Y-113880849D01*
X165369614Y-113942241D01*
X165447759Y-114020386D01*
X165509151Y-114112266D01*
X165551441Y-114214363D01*
X165573000Y-114322747D01*
X165573000Y-114433253D01*
X165551441Y-114541637D01*
X165509151Y-114643734D01*
X165447759Y-114735614D01*
X165369614Y-114813759D01*
X165277734Y-114875151D01*
X165175638Y-114917441D01*
X165067254Y-114939000D01*
X164956746Y-114939000D01*
X164848362Y-114917441D01*
X164746266Y-114875151D01*
X164654386Y-114813759D01*
X164576241Y-114735614D01*
X164514849Y-114643734D01*
X164472559Y-114541637D01*
X164451000Y-114433253D01*
X164451000Y-114322747D01*
X164472559Y-114214363D01*
X164514849Y-114112266D01*
X164576241Y-114020386D01*
X164654386Y-113942241D01*
X164746266Y-113880849D01*
X164797315Y-113859704D01*
X164848362Y-113838559D01*
X164956746Y-113817000D01*
X165067254Y-113817000D01*
X165175638Y-113838559D01*
G37*
G36*
X121845000Y-110621000D02*
G01*
X120219000Y-110621000D01*
X120219000Y-108995000D01*
X121845000Y-108995000D01*
X121845000Y-110621000D01*
G37*
G36*
X179757000Y-110621000D02*
G01*
X178131000Y-110621000D01*
X178131000Y-108995000D01*
X179757000Y-108995000D01*
X179757000Y-110621000D01*
G37*
G36*
X121269142Y-106486242D02*
G01*
X121417101Y-106547529D01*
X121550255Y-106636499D01*
X121663501Y-106749745D01*
X121752471Y-106882899D01*
X121813758Y-107030858D01*
X121845000Y-107187925D01*
X121845000Y-107348075D01*
X121813758Y-107505142D01*
X121752471Y-107653101D01*
X121663501Y-107786255D01*
X121550255Y-107899501D01*
X121417101Y-107988471D01*
X121269142Y-108049758D01*
X121112075Y-108081000D01*
X120951925Y-108081000D01*
X120794858Y-108049758D01*
X120646899Y-107988471D01*
X120513745Y-107899501D01*
X120400499Y-107786255D01*
X120311529Y-107653101D01*
X120250242Y-107505142D01*
X120219000Y-107348075D01*
X120219000Y-107187925D01*
X120250242Y-107030858D01*
X120311529Y-106882899D01*
X120400499Y-106749745D01*
X120513745Y-106636499D01*
X120646899Y-106547529D01*
X120794858Y-106486242D01*
X120951925Y-106455000D01*
X121112075Y-106455000D01*
X121269142Y-106486242D01*
G37*
G36*
X179181142Y-106486242D02*
G01*
X179329101Y-106547529D01*
X179462255Y-106636499D01*
X179575501Y-106749745D01*
X179664471Y-106882899D01*
X179725758Y-107030858D01*
X179757000Y-107187925D01*
X179757000Y-107348075D01*
X179725758Y-107505142D01*
X179664471Y-107653101D01*
X179575501Y-107786255D01*
X179462255Y-107899501D01*
X179329101Y-107988471D01*
X179181142Y-108049758D01*
X179024075Y-108081000D01*
X178863925Y-108081000D01*
X178706858Y-108049758D01*
X178558899Y-107988471D01*
X178425745Y-107899501D01*
X178312499Y-107786255D01*
X178223529Y-107653101D01*
X178162242Y-107505142D01*
X178131000Y-107348075D01*
X178131000Y-107187925D01*
X178162242Y-107030858D01*
X178223529Y-106882899D01*
X178312499Y-106749745D01*
X178425745Y-106636499D01*
X178558899Y-106547529D01*
X178706858Y-106486242D01*
X178863925Y-106455000D01*
X179024075Y-106455000D01*
X179181142Y-106486242D01*
G37*
G36*
X150896665Y-104195018D02*
G01*
X151225881Y-104331384D01*
X151225883Y-104331385D01*
X151243116Y-104342900D01*
X151522170Y-104529358D01*
X151774142Y-104781330D01*
X151972116Y-105077619D01*
X152108482Y-105406835D01*
X152178000Y-105756328D01*
X152178000Y-106112672D01*
X152108482Y-106462165D01*
X151989363Y-106749743D01*
X151972115Y-106791383D01*
X151774142Y-107087670D01*
X151522170Y-107339642D01*
X151225883Y-107537615D01*
X151225882Y-107537616D01*
X151225881Y-107537616D01*
X150896665Y-107673982D01*
X150547172Y-107743500D01*
X150190828Y-107743500D01*
X149841335Y-107673982D01*
X149512119Y-107537616D01*
X149512118Y-107537616D01*
X149512117Y-107537615D01*
X149215830Y-107339642D01*
X148963858Y-107087670D01*
X148765885Y-106791383D01*
X148748637Y-106749743D01*
X148629518Y-106462165D01*
X148560000Y-106112672D01*
X148560000Y-105756328D01*
X148629518Y-105406835D01*
X148765884Y-105077619D01*
X148963858Y-104781330D01*
X149215830Y-104529358D01*
X149494884Y-104342900D01*
X149512117Y-104331385D01*
X149512119Y-104331384D01*
X149841335Y-104195018D01*
X150190828Y-104125500D01*
X150547172Y-104125500D01*
X150896665Y-104195018D01*
G37*
G36*
X128036665Y-104195018D02*
G01*
X128365881Y-104331384D01*
X128365883Y-104331385D01*
X128383116Y-104342900D01*
X128662170Y-104529358D01*
X128914142Y-104781330D01*
X129112116Y-105077619D01*
X129248482Y-105406835D01*
X129318000Y-105756328D01*
X129318000Y-106112672D01*
X129248482Y-106462165D01*
X129129363Y-106749743D01*
X129112115Y-106791383D01*
X128914142Y-107087670D01*
X128662170Y-107339642D01*
X128365883Y-107537615D01*
X128365882Y-107537616D01*
X128365881Y-107537616D01*
X128036665Y-107673982D01*
X127687172Y-107743500D01*
X127330828Y-107743500D01*
X126981335Y-107673982D01*
X126652119Y-107537616D01*
X126652118Y-107537616D01*
X126652117Y-107537615D01*
X126355830Y-107339642D01*
X126103858Y-107087670D01*
X125905885Y-106791383D01*
X125888637Y-106749743D01*
X125769518Y-106462165D01*
X125700000Y-106112672D01*
X125700000Y-105756328D01*
X125769518Y-105406835D01*
X125905884Y-105077619D01*
X126103858Y-104781330D01*
X126355830Y-104529358D01*
X126634884Y-104342900D01*
X126652117Y-104331385D01*
X126652119Y-104331384D01*
X126981335Y-104195018D01*
X127330828Y-104125500D01*
X127687172Y-104125500D01*
X128036665Y-104195018D01*
G37*
G36*
X173429098Y-105338362D02*
G01*
X173553941Y-105390074D01*
X173553943Y-105390075D01*
X173579026Y-105406835D01*
X173666299Y-105465149D01*
X173761851Y-105560701D01*
X173836926Y-105673059D01*
X173888638Y-105797902D01*
X173915000Y-105930434D01*
X173915000Y-106065566D01*
X173888638Y-106198098D01*
X173836926Y-106322941D01*
X173836925Y-106322943D01*
X173761851Y-106435299D01*
X173666299Y-106530851D01*
X173553943Y-106605925D01*
X173553942Y-106605926D01*
X173553941Y-106605926D01*
X173429098Y-106657638D01*
X173296566Y-106684000D01*
X173161434Y-106684000D01*
X173028902Y-106657638D01*
X172904059Y-106605926D01*
X172904058Y-106605926D01*
X172904057Y-106605925D01*
X172791701Y-106530851D01*
X172696149Y-106435299D01*
X172621075Y-106322943D01*
X172621074Y-106322941D01*
X172569362Y-106198098D01*
X172543000Y-106065566D01*
X172543000Y-105930434D01*
X172569362Y-105797902D01*
X172621074Y-105673059D01*
X172696149Y-105560701D01*
X172791701Y-105465149D01*
X172878974Y-105406835D01*
X172904057Y-105390075D01*
X172904059Y-105390074D01*
X173028902Y-105338362D01*
X173161434Y-105312000D01*
X173296566Y-105312000D01*
X173429098Y-105338362D01*
G37*
G36*
X170889098Y-105338362D02*
G01*
X171013941Y-105390074D01*
X171013943Y-105390075D01*
X171039026Y-105406835D01*
X171126299Y-105465149D01*
X171221851Y-105560701D01*
X171296926Y-105673059D01*
X171348638Y-105797902D01*
X171375000Y-105930434D01*
X171375000Y-106065566D01*
X171348638Y-106198098D01*
X171296926Y-106322941D01*
X171296925Y-106322943D01*
X171221851Y-106435299D01*
X171126299Y-106530851D01*
X171013943Y-106605925D01*
X171013942Y-106605926D01*
X171013941Y-106605926D01*
X170889098Y-106657638D01*
X170756566Y-106684000D01*
X170621434Y-106684000D01*
X170488902Y-106657638D01*
X170364059Y-106605926D01*
X170364058Y-106605926D01*
X170364057Y-106605925D01*
X170251701Y-106530851D01*
X170156149Y-106435299D01*
X170081075Y-106322943D01*
X170081074Y-106322941D01*
X170029362Y-106198098D01*
X170003000Y-106065566D01*
X170003000Y-105930434D01*
X170029362Y-105797902D01*
X170081074Y-105673059D01*
X170156149Y-105560701D01*
X170251701Y-105465149D01*
X170338974Y-105406835D01*
X170364057Y-105390075D01*
X170364059Y-105390074D01*
X170488902Y-105338362D01*
X170621434Y-105312000D01*
X170756566Y-105312000D01*
X170889098Y-105338362D01*
G37*
G36*
X168349098Y-105338362D02*
G01*
X168473941Y-105390074D01*
X168473943Y-105390075D01*
X168499026Y-105406835D01*
X168586299Y-105465149D01*
X168681851Y-105560701D01*
X168756926Y-105673059D01*
X168808638Y-105797902D01*
X168835000Y-105930434D01*
X168835000Y-106065566D01*
X168808638Y-106198098D01*
X168756926Y-106322941D01*
X168756925Y-106322943D01*
X168681851Y-106435299D01*
X168586299Y-106530851D01*
X168473943Y-106605925D01*
X168473942Y-106605926D01*
X168473941Y-106605926D01*
X168349098Y-106657638D01*
X168216566Y-106684000D01*
X168081434Y-106684000D01*
X167948902Y-106657638D01*
X167824059Y-106605926D01*
X167824058Y-106605926D01*
X167824057Y-106605925D01*
X167711701Y-106530851D01*
X167616149Y-106435299D01*
X167541075Y-106322943D01*
X167541074Y-106322941D01*
X167489362Y-106198098D01*
X167463000Y-106065566D01*
X167463000Y-105930434D01*
X167489362Y-105797902D01*
X167541074Y-105673059D01*
X167616149Y-105560701D01*
X167711701Y-105465149D01*
X167798974Y-105406835D01*
X167824057Y-105390075D01*
X167824059Y-105390074D01*
X167948902Y-105338362D01*
X168081434Y-105312000D01*
X168216566Y-105312000D01*
X168349098Y-105338362D01*
G37*
G36*
X165809098Y-105338362D02*
G01*
X165933941Y-105390074D01*
X165933943Y-105390075D01*
X165959026Y-105406835D01*
X166046299Y-105465149D01*
X166141851Y-105560701D01*
X166216926Y-105673059D01*
X166268638Y-105797902D01*
X166295000Y-105930434D01*
X166295000Y-106065566D01*
X166268638Y-106198098D01*
X166216926Y-106322941D01*
X166216925Y-106322943D01*
X166141851Y-106435299D01*
X166046299Y-106530851D01*
X165933943Y-106605925D01*
X165933942Y-106605926D01*
X165933941Y-106605926D01*
X165809098Y-106657638D01*
X165676566Y-106684000D01*
X165541434Y-106684000D01*
X165408902Y-106657638D01*
X165284059Y-106605926D01*
X165284058Y-106605926D01*
X165284057Y-106605925D01*
X165171701Y-106530851D01*
X165076149Y-106435299D01*
X165001075Y-106322943D01*
X165001074Y-106322941D01*
X164949362Y-106198098D01*
X164923000Y-106065566D01*
X164923000Y-105930434D01*
X164949362Y-105797902D01*
X165001074Y-105673059D01*
X165076149Y-105560701D01*
X165171701Y-105465149D01*
X165258974Y-105406835D01*
X165284057Y-105390075D01*
X165284059Y-105390074D01*
X165408902Y-105338362D01*
X165541434Y-105312000D01*
X165676566Y-105312000D01*
X165809098Y-105338362D01*
G37*
G36*
X163269098Y-105338362D02*
G01*
X163393941Y-105390074D01*
X163393943Y-105390075D01*
X163419026Y-105406835D01*
X163506299Y-105465149D01*
X163601851Y-105560701D01*
X163676926Y-105673059D01*
X163728638Y-105797902D01*
X163755000Y-105930434D01*
X163755000Y-106065566D01*
X163728638Y-106198098D01*
X163676926Y-106322941D01*
X163676925Y-106322943D01*
X163601851Y-106435299D01*
X163506299Y-106530851D01*
X163393943Y-106605925D01*
X163393942Y-106605926D01*
X163393941Y-106605926D01*
X163269098Y-106657638D01*
X163136566Y-106684000D01*
X163001434Y-106684000D01*
X162868902Y-106657638D01*
X162744059Y-106605926D01*
X162744058Y-106605926D01*
X162744057Y-106605925D01*
X162631701Y-106530851D01*
X162536149Y-106435299D01*
X162461075Y-106322943D01*
X162461074Y-106322941D01*
X162409362Y-106198098D01*
X162383000Y-106065566D01*
X162383000Y-105930434D01*
X162409362Y-105797902D01*
X162461074Y-105673059D01*
X162536149Y-105560701D01*
X162631701Y-105465149D01*
X162718974Y-105406835D01*
X162744057Y-105390075D01*
X162744059Y-105390074D01*
X162868902Y-105338362D01*
X163001434Y-105312000D01*
X163136566Y-105312000D01*
X163269098Y-105338362D01*
G37*
G36*
X160729098Y-105338362D02*
G01*
X160853941Y-105390074D01*
X160853943Y-105390075D01*
X160879026Y-105406835D01*
X160966299Y-105465149D01*
X161061851Y-105560701D01*
X161136926Y-105673059D01*
X161188638Y-105797902D01*
X161215000Y-105930434D01*
X161215000Y-106065566D01*
X161188638Y-106198098D01*
X161136926Y-106322941D01*
X161136925Y-106322943D01*
X161061851Y-106435299D01*
X160966299Y-106530851D01*
X160853943Y-106605925D01*
X160853942Y-106605926D01*
X160853941Y-106605926D01*
X160729098Y-106657638D01*
X160596566Y-106684000D01*
X160461434Y-106684000D01*
X160328902Y-106657638D01*
X160204059Y-106605926D01*
X160204058Y-106605926D01*
X160204057Y-106605925D01*
X160091701Y-106530851D01*
X159996149Y-106435299D01*
X159921075Y-106322943D01*
X159921074Y-106322941D01*
X159869362Y-106198098D01*
X159843000Y-106065566D01*
X159843000Y-105930434D01*
X159869362Y-105797902D01*
X159921074Y-105673059D01*
X159996149Y-105560701D01*
X160091701Y-105465149D01*
X160178974Y-105406835D01*
X160204057Y-105390075D01*
X160204059Y-105390074D01*
X160328902Y-105338362D01*
X160461434Y-105312000D01*
X160596566Y-105312000D01*
X160729098Y-105338362D01*
G37*
G36*
X158189098Y-105338362D02*
G01*
X158313941Y-105390074D01*
X158313943Y-105390075D01*
X158339026Y-105406835D01*
X158426299Y-105465149D01*
X158521851Y-105560701D01*
X158596926Y-105673059D01*
X158648638Y-105797902D01*
X158675000Y-105930434D01*
X158675000Y-106065566D01*
X158648638Y-106198098D01*
X158596926Y-106322941D01*
X158596925Y-106322943D01*
X158521851Y-106435299D01*
X158426299Y-106530851D01*
X158313943Y-106605925D01*
X158313942Y-106605926D01*
X158313941Y-106605926D01*
X158189098Y-106657638D01*
X158056566Y-106684000D01*
X157921434Y-106684000D01*
X157788902Y-106657638D01*
X157664059Y-106605926D01*
X157664058Y-106605926D01*
X157664057Y-106605925D01*
X157551701Y-106530851D01*
X157456149Y-106435299D01*
X157381075Y-106322943D01*
X157381074Y-106322941D01*
X157329362Y-106198098D01*
X157303000Y-106065566D01*
X157303000Y-105930434D01*
X157329362Y-105797902D01*
X157381074Y-105673059D01*
X157456149Y-105560701D01*
X157551701Y-105465149D01*
X157638974Y-105406835D01*
X157664057Y-105390075D01*
X157664059Y-105390074D01*
X157788902Y-105338362D01*
X157921434Y-105312000D01*
X158056566Y-105312000D01*
X158189098Y-105338362D01*
G37*
G36*
X155649098Y-105338362D02*
G01*
X155773941Y-105390074D01*
X155773943Y-105390075D01*
X155799026Y-105406835D01*
X155886299Y-105465149D01*
X155981851Y-105560701D01*
X156056926Y-105673059D01*
X156108638Y-105797902D01*
X156135000Y-105930434D01*
X156135000Y-106065566D01*
X156108638Y-106198098D01*
X156056926Y-106322941D01*
X156056925Y-106322943D01*
X155981851Y-106435299D01*
X155886299Y-106530851D01*
X155773943Y-106605925D01*
X155773942Y-106605926D01*
X155773941Y-106605926D01*
X155649098Y-106657638D01*
X155516566Y-106684000D01*
X155381434Y-106684000D01*
X155248902Y-106657638D01*
X155124059Y-106605926D01*
X155124058Y-106605926D01*
X155124057Y-106605925D01*
X155011701Y-106530851D01*
X154916149Y-106435299D01*
X154841075Y-106322943D01*
X154841074Y-106322941D01*
X154789362Y-106198098D01*
X154763000Y-106065566D01*
X154763000Y-105930434D01*
X154789362Y-105797902D01*
X154841074Y-105673059D01*
X154916149Y-105560701D01*
X155011701Y-105465149D01*
X155098974Y-105406835D01*
X155124057Y-105390075D01*
X155124059Y-105390074D01*
X155248902Y-105338362D01*
X155381434Y-105312000D01*
X155516566Y-105312000D01*
X155649098Y-105338362D01*
G37*
G36*
X179181142Y-103946242D02*
G01*
X179329101Y-104007529D01*
X179462255Y-104096499D01*
X179575501Y-104209745D01*
X179664471Y-104342899D01*
X179725758Y-104490858D01*
X179757000Y-104647925D01*
X179757000Y-104808075D01*
X179725758Y-104965142D01*
X179664471Y-105113101D01*
X179575501Y-105246255D01*
X179462255Y-105359501D01*
X179329101Y-105448471D01*
X179181142Y-105509758D01*
X179024075Y-105541000D01*
X178863925Y-105541000D01*
X178706858Y-105509758D01*
X178558899Y-105448471D01*
X178425745Y-105359501D01*
X178312499Y-105246255D01*
X178223529Y-105113101D01*
X178162242Y-104965142D01*
X178131000Y-104808075D01*
X178131000Y-104647925D01*
X178162242Y-104490858D01*
X178223529Y-104342899D01*
X178312499Y-104209745D01*
X178425745Y-104096499D01*
X178558899Y-104007529D01*
X178706858Y-103946242D01*
X178863925Y-103915000D01*
X179024075Y-103915000D01*
X179181142Y-103946242D01*
G37*
G36*
X121269142Y-103946242D02*
G01*
X121417101Y-104007529D01*
X121550255Y-104096499D01*
X121663501Y-104209745D01*
X121752471Y-104342899D01*
X121813758Y-104490858D01*
X121845000Y-104647925D01*
X121845000Y-104808075D01*
X121813758Y-104965142D01*
X121752471Y-105113101D01*
X121663501Y-105246255D01*
X121550255Y-105359501D01*
X121417101Y-105448471D01*
X121269142Y-105509758D01*
X121112075Y-105541000D01*
X120951925Y-105541000D01*
X120794858Y-105509758D01*
X120646899Y-105448471D01*
X120513745Y-105359501D01*
X120400499Y-105246255D01*
X120311529Y-105113101D01*
X120250242Y-104965142D01*
X120219000Y-104808075D01*
X120219000Y-104647925D01*
X120250242Y-104490858D01*
X120311529Y-104342899D01*
X120400499Y-104209745D01*
X120513745Y-104096499D01*
X120646899Y-104007529D01*
X120794858Y-103946242D01*
X120951925Y-103915000D01*
X121112075Y-103915000D01*
X121269142Y-103946242D01*
G37*
G36*
X121269142Y-101406242D02*
G01*
X121417101Y-101467529D01*
X121550255Y-101556499D01*
X121663501Y-101669745D01*
X121752471Y-101802899D01*
X121813758Y-101950858D01*
X121845000Y-102107925D01*
X121845000Y-102268075D01*
X121813758Y-102425142D01*
X121752471Y-102573101D01*
X121663501Y-102706255D01*
X121550255Y-102819501D01*
X121417101Y-102908471D01*
X121269142Y-102969758D01*
X121112075Y-103001000D01*
X120951925Y-103001000D01*
X120794858Y-102969758D01*
X120646899Y-102908471D01*
X120513745Y-102819501D01*
X120400499Y-102706255D01*
X120311529Y-102573101D01*
X120250242Y-102425142D01*
X120219000Y-102268075D01*
X120219000Y-102107925D01*
X120250242Y-101950858D01*
X120311529Y-101802899D01*
X120400499Y-101669745D01*
X120513745Y-101556499D01*
X120646899Y-101467529D01*
X120794858Y-101406242D01*
X120951925Y-101375000D01*
X121112075Y-101375000D01*
X121269142Y-101406242D01*
G37*
G36*
X179181142Y-101406242D02*
G01*
X179329101Y-101467529D01*
X179462255Y-101556499D01*
X179575501Y-101669745D01*
X179664471Y-101802899D01*
X179725758Y-101950858D01*
X179757000Y-102107925D01*
X179757000Y-102268075D01*
X179725758Y-102425142D01*
X179664471Y-102573101D01*
X179575501Y-102706255D01*
X179462255Y-102819501D01*
X179329101Y-102908471D01*
X179181142Y-102969758D01*
X179024075Y-103001000D01*
X178863925Y-103001000D01*
X178706858Y-102969758D01*
X178558899Y-102908471D01*
X178425745Y-102819501D01*
X178312499Y-102706255D01*
X178223529Y-102573101D01*
X178162242Y-102425142D01*
X178131000Y-102268075D01*
X178131000Y-102107925D01*
X178162242Y-101950858D01*
X178223529Y-101802899D01*
X178312499Y-101669745D01*
X178425745Y-101556499D01*
X178558899Y-101467529D01*
X178706858Y-101406242D01*
X178863925Y-101375000D01*
X179024075Y-101375000D01*
X179181142Y-101406242D01*
G37*
G36*
X163269098Y-97718362D02*
G01*
X163393941Y-97770074D01*
X163393943Y-97770075D01*
X163506299Y-97845149D01*
X163601851Y-97940701D01*
X163676926Y-98053059D01*
X163728638Y-98177902D01*
X163755000Y-98310434D01*
X163755000Y-98445566D01*
X163728638Y-98578098D01*
X163676926Y-98702941D01*
X163676925Y-98702943D01*
X163601851Y-98815299D01*
X163506299Y-98910851D01*
X163393943Y-98985925D01*
X163393942Y-98985926D01*
X163393941Y-98985926D01*
X163269098Y-99037638D01*
X163136566Y-99064000D01*
X163001434Y-99064000D01*
X162868902Y-99037638D01*
X162744059Y-98985926D01*
X162744058Y-98985926D01*
X162744057Y-98985925D01*
X162631701Y-98910851D01*
X162536149Y-98815299D01*
X162461075Y-98702943D01*
X162461074Y-98702941D01*
X162409362Y-98578098D01*
X162383000Y-98445566D01*
X162383000Y-98310434D01*
X162409362Y-98177902D01*
X162461074Y-98053059D01*
X162536149Y-97940701D01*
X162631701Y-97845149D01*
X162744057Y-97770075D01*
X162744059Y-97770074D01*
X162868902Y-97718362D01*
X163001434Y-97692000D01*
X163136566Y-97692000D01*
X163269098Y-97718362D01*
G37*
G36*
X173915000Y-99064000D02*
G01*
X172543000Y-99064000D01*
X172543000Y-97692000D01*
X173915000Y-97692000D01*
X173915000Y-99064000D01*
G37*
G36*
X160729098Y-97718362D02*
G01*
X160853941Y-97770074D01*
X160853943Y-97770075D01*
X160966299Y-97845149D01*
X161061851Y-97940701D01*
X161136926Y-98053059D01*
X161188638Y-98177902D01*
X161215000Y-98310434D01*
X161215000Y-98445566D01*
X161188638Y-98578098D01*
X161136926Y-98702941D01*
X161136925Y-98702943D01*
X161061851Y-98815299D01*
X160966299Y-98910851D01*
X160853943Y-98985925D01*
X160853942Y-98985926D01*
X160853941Y-98985926D01*
X160729098Y-99037638D01*
X160596566Y-99064000D01*
X160461434Y-99064000D01*
X160328902Y-99037638D01*
X160204059Y-98985926D01*
X160204058Y-98985926D01*
X160204057Y-98985925D01*
X160091701Y-98910851D01*
X159996149Y-98815299D01*
X159921075Y-98702943D01*
X159921074Y-98702941D01*
X159869362Y-98578098D01*
X159843000Y-98445566D01*
X159843000Y-98310434D01*
X159869362Y-98177902D01*
X159921074Y-98053059D01*
X159996149Y-97940701D01*
X160091701Y-97845149D01*
X160204057Y-97770075D01*
X160204059Y-97770074D01*
X160328902Y-97718362D01*
X160461434Y-97692000D01*
X160596566Y-97692000D01*
X160729098Y-97718362D01*
G37*
G36*
X158189098Y-97718362D02*
G01*
X158313941Y-97770074D01*
X158313943Y-97770075D01*
X158426299Y-97845149D01*
X158521851Y-97940701D01*
X158596926Y-98053059D01*
X158648638Y-98177902D01*
X158675000Y-98310434D01*
X158675000Y-98445566D01*
X158648638Y-98578098D01*
X158596926Y-98702941D01*
X158596925Y-98702943D01*
X158521851Y-98815299D01*
X158426299Y-98910851D01*
X158313943Y-98985925D01*
X158313942Y-98985926D01*
X158313941Y-98985926D01*
X158189098Y-99037638D01*
X158056566Y-99064000D01*
X157921434Y-99064000D01*
X157788902Y-99037638D01*
X157664059Y-98985926D01*
X157664058Y-98985926D01*
X157664057Y-98985925D01*
X157551701Y-98910851D01*
X157456149Y-98815299D01*
X157381075Y-98702943D01*
X157381074Y-98702941D01*
X157329362Y-98578098D01*
X157303000Y-98445566D01*
X157303000Y-98310434D01*
X157329362Y-98177902D01*
X157381074Y-98053059D01*
X157456149Y-97940701D01*
X157551701Y-97845149D01*
X157664057Y-97770075D01*
X157664059Y-97770074D01*
X157788902Y-97718362D01*
X157921434Y-97692000D01*
X158056566Y-97692000D01*
X158189098Y-97718362D01*
G37*
G36*
X155649098Y-97718362D02*
G01*
X155773941Y-97770074D01*
X155773943Y-97770075D01*
X155886299Y-97845149D01*
X155981851Y-97940701D01*
X156056926Y-98053059D01*
X156108638Y-98177902D01*
X156135000Y-98310434D01*
X156135000Y-98445566D01*
X156108638Y-98578098D01*
X156056926Y-98702941D01*
X156056925Y-98702943D01*
X155981851Y-98815299D01*
X155886299Y-98910851D01*
X155773943Y-98985925D01*
X155773942Y-98985926D01*
X155773941Y-98985926D01*
X155649098Y-99037638D01*
X155516566Y-99064000D01*
X155381434Y-99064000D01*
X155248902Y-99037638D01*
X155124059Y-98985926D01*
X155124058Y-98985926D01*
X155124057Y-98985925D01*
X155011701Y-98910851D01*
X154916149Y-98815299D01*
X154841075Y-98702943D01*
X154841074Y-98702941D01*
X154789362Y-98578098D01*
X154763000Y-98445566D01*
X154763000Y-98310434D01*
X154789362Y-98177902D01*
X154841074Y-98053059D01*
X154916149Y-97940701D01*
X155011701Y-97845149D01*
X155124057Y-97770075D01*
X155124059Y-97770074D01*
X155248902Y-97718362D01*
X155381434Y-97692000D01*
X155516566Y-97692000D01*
X155649098Y-97718362D01*
G37*
G36*
X170889098Y-97718362D02*
G01*
X171013941Y-97770074D01*
X171013943Y-97770075D01*
X171126299Y-97845149D01*
X171221851Y-97940701D01*
X171296926Y-98053059D01*
X171348638Y-98177902D01*
X171375000Y-98310434D01*
X171375000Y-98445566D01*
X171348638Y-98578098D01*
X171296926Y-98702941D01*
X171296925Y-98702943D01*
X171221851Y-98815299D01*
X171126299Y-98910851D01*
X171013943Y-98985925D01*
X171013942Y-98985926D01*
X171013941Y-98985926D01*
X170889098Y-99037638D01*
X170756566Y-99064000D01*
X170621434Y-99064000D01*
X170488902Y-99037638D01*
X170364059Y-98985926D01*
X170364058Y-98985926D01*
X170364057Y-98985925D01*
X170251701Y-98910851D01*
X170156149Y-98815299D01*
X170081075Y-98702943D01*
X170081074Y-98702941D01*
X170029362Y-98578098D01*
X170003000Y-98445566D01*
X170003000Y-98310434D01*
X170029362Y-98177902D01*
X170081074Y-98053059D01*
X170156149Y-97940701D01*
X170251701Y-97845149D01*
X170364057Y-97770075D01*
X170364059Y-97770074D01*
X170488902Y-97718362D01*
X170621434Y-97692000D01*
X170756566Y-97692000D01*
X170889098Y-97718362D01*
G37*
G36*
X168349098Y-97718362D02*
G01*
X168473941Y-97770074D01*
X168473943Y-97770075D01*
X168586299Y-97845149D01*
X168681851Y-97940701D01*
X168756926Y-98053059D01*
X168808638Y-98177902D01*
X168835000Y-98310434D01*
X168835000Y-98445566D01*
X168808638Y-98578098D01*
X168756926Y-98702941D01*
X168756925Y-98702943D01*
X168681851Y-98815299D01*
X168586299Y-98910851D01*
X168473943Y-98985925D01*
X168473942Y-98985926D01*
X168473941Y-98985926D01*
X168349098Y-99037638D01*
X168216566Y-99064000D01*
X168081434Y-99064000D01*
X167948902Y-99037638D01*
X167824059Y-98985926D01*
X167824058Y-98985926D01*
X167824057Y-98985925D01*
X167711701Y-98910851D01*
X167616149Y-98815299D01*
X167541075Y-98702943D01*
X167541074Y-98702941D01*
X167489362Y-98578098D01*
X167463000Y-98445566D01*
X167463000Y-98310434D01*
X167489362Y-98177902D01*
X167541074Y-98053059D01*
X167616149Y-97940701D01*
X167711701Y-97845149D01*
X167824057Y-97770075D01*
X167824059Y-97770074D01*
X167948902Y-97718362D01*
X168081434Y-97692000D01*
X168216566Y-97692000D01*
X168349098Y-97718362D01*
G37*
G36*
X165809098Y-97718362D02*
G01*
X165933941Y-97770074D01*
X165933943Y-97770075D01*
X166046299Y-97845149D01*
X166141851Y-97940701D01*
X166216926Y-98053059D01*
X166268638Y-98177902D01*
X166295000Y-98310434D01*
X166295000Y-98445566D01*
X166268638Y-98578098D01*
X166216926Y-98702941D01*
X166216925Y-98702943D01*
X166141851Y-98815299D01*
X166046299Y-98910851D01*
X165933943Y-98985925D01*
X165933942Y-98985926D01*
X165933941Y-98985926D01*
X165809098Y-99037638D01*
X165676566Y-99064000D01*
X165541434Y-99064000D01*
X165408902Y-99037638D01*
X165284059Y-98985926D01*
X165284058Y-98985926D01*
X165284057Y-98985925D01*
X165171701Y-98910851D01*
X165076149Y-98815299D01*
X165001075Y-98702943D01*
X165001074Y-98702941D01*
X164949362Y-98578098D01*
X164923000Y-98445566D01*
X164923000Y-98310434D01*
X164949362Y-98177902D01*
X165001074Y-98053059D01*
X165076149Y-97940701D01*
X165171701Y-97845149D01*
X165284057Y-97770075D01*
X165284059Y-97770074D01*
X165408902Y-97718362D01*
X165541434Y-97692000D01*
X165676566Y-97692000D01*
X165809098Y-97718362D01*
G37*
G36*
X133635512Y-94941927D02*
G01*
X133784812Y-94971624D01*
X133948784Y-95039544D01*
X134096354Y-95138147D01*
X134221853Y-95263646D01*
X134320456Y-95411216D01*
X134388376Y-95575188D01*
X134423000Y-95749259D01*
X134423000Y-95926741D01*
X134388376Y-96100812D01*
X134320456Y-96264784D01*
X134221853Y-96412354D01*
X134096354Y-96537853D01*
X133948784Y-96636456D01*
X133784812Y-96704376D01*
X133635512Y-96734073D01*
X133610742Y-96739000D01*
X133433258Y-96739000D01*
X133408488Y-96734073D01*
X133259188Y-96704376D01*
X133095216Y-96636456D01*
X132947646Y-96537853D01*
X132822147Y-96412354D01*
X132723544Y-96264784D01*
X132655624Y-96100812D01*
X132621000Y-95926741D01*
X132621000Y-95749259D01*
X132655624Y-95575188D01*
X132723544Y-95411216D01*
X132822147Y-95263646D01*
X132947646Y-95138147D01*
X133095216Y-95039544D01*
X133259188Y-94971624D01*
X133408488Y-94941927D01*
X133433258Y-94937000D01*
X133610742Y-94937000D01*
X133635512Y-94941927D01*
G37*
G36*
X143795512Y-94941927D02*
G01*
X143944812Y-94971624D01*
X144108784Y-95039544D01*
X144256354Y-95138147D01*
X144381853Y-95263646D01*
X144480456Y-95411216D01*
X144548376Y-95575188D01*
X144583000Y-95749259D01*
X144583000Y-95926741D01*
X144548376Y-96100812D01*
X144480456Y-96264784D01*
X144381853Y-96412354D01*
X144256354Y-96537853D01*
X144108784Y-96636456D01*
X143944812Y-96704376D01*
X143795512Y-96734073D01*
X143770742Y-96739000D01*
X143593258Y-96739000D01*
X143568488Y-96734073D01*
X143419188Y-96704376D01*
X143255216Y-96636456D01*
X143107646Y-96537853D01*
X142982147Y-96412354D01*
X142883544Y-96264784D01*
X142815624Y-96100812D01*
X142781000Y-95926741D01*
X142781000Y-95749259D01*
X142815624Y-95575188D01*
X142883544Y-95411216D01*
X142982147Y-95263646D01*
X143107646Y-95138147D01*
X143255216Y-95039544D01*
X143419188Y-94971624D01*
X143568488Y-94941927D01*
X143593258Y-94937000D01*
X143770742Y-94937000D01*
X143795512Y-94941927D01*
G37*
G36*
X174275512Y-94941927D02*
G01*
X174424812Y-94971624D01*
X174588784Y-95039544D01*
X174736354Y-95138147D01*
X174861853Y-95263646D01*
X174960456Y-95411216D01*
X175028376Y-95575188D01*
X175063000Y-95749259D01*
X175063000Y-95926741D01*
X175028376Y-96100812D01*
X174960456Y-96264784D01*
X174861853Y-96412354D01*
X174736354Y-96537853D01*
X174588784Y-96636456D01*
X174424812Y-96704376D01*
X174275512Y-96734073D01*
X174250742Y-96739000D01*
X174073258Y-96739000D01*
X174048488Y-96734073D01*
X173899188Y-96704376D01*
X173735216Y-96636456D01*
X173587646Y-96537853D01*
X173462147Y-96412354D01*
X173363544Y-96264784D01*
X173295624Y-96100812D01*
X173261000Y-95926741D01*
X173261000Y-95749259D01*
X173295624Y-95575188D01*
X173363544Y-95411216D01*
X173462147Y-95263646D01*
X173587646Y-95138147D01*
X173735216Y-95039544D01*
X173899188Y-94971624D01*
X174048488Y-94941927D01*
X174073258Y-94937000D01*
X174250742Y-94937000D01*
X174275512Y-94941927D01*
G37*
G36*
X171735512Y-94941927D02*
G01*
X171884812Y-94971624D01*
X172048784Y-95039544D01*
X172196354Y-95138147D01*
X172321853Y-95263646D01*
X172420456Y-95411216D01*
X172488376Y-95575188D01*
X172523000Y-95749259D01*
X172523000Y-95926741D01*
X172488376Y-96100812D01*
X172420456Y-96264784D01*
X172321853Y-96412354D01*
X172196354Y-96537853D01*
X172048784Y-96636456D01*
X171884812Y-96704376D01*
X171735512Y-96734073D01*
X171710742Y-96739000D01*
X171533258Y-96739000D01*
X171508488Y-96734073D01*
X171359188Y-96704376D01*
X171195216Y-96636456D01*
X171047646Y-96537853D01*
X170922147Y-96412354D01*
X170823544Y-96264784D01*
X170755624Y-96100812D01*
X170721000Y-95926741D01*
X170721000Y-95749259D01*
X170755624Y-95575188D01*
X170823544Y-95411216D01*
X170922147Y-95263646D01*
X171047646Y-95138147D01*
X171195216Y-95039544D01*
X171359188Y-94971624D01*
X171508488Y-94941927D01*
X171533258Y-94937000D01*
X171710742Y-94937000D01*
X171735512Y-94941927D01*
G37*
G36*
X169195512Y-94941927D02*
G01*
X169344812Y-94971624D01*
X169508784Y-95039544D01*
X169656354Y-95138147D01*
X169781853Y-95263646D01*
X169880456Y-95411216D01*
X169948376Y-95575188D01*
X169983000Y-95749259D01*
X169983000Y-95926741D01*
X169948376Y-96100812D01*
X169880456Y-96264784D01*
X169781853Y-96412354D01*
X169656354Y-96537853D01*
X169508784Y-96636456D01*
X169344812Y-96704376D01*
X169195512Y-96734073D01*
X169170742Y-96739000D01*
X168993258Y-96739000D01*
X168968488Y-96734073D01*
X168819188Y-96704376D01*
X168655216Y-96636456D01*
X168507646Y-96537853D01*
X168382147Y-96412354D01*
X168283544Y-96264784D01*
X168215624Y-96100812D01*
X168181000Y-95926741D01*
X168181000Y-95749259D01*
X168215624Y-95575188D01*
X168283544Y-95411216D01*
X168382147Y-95263646D01*
X168507646Y-95138147D01*
X168655216Y-95039544D01*
X168819188Y-94971624D01*
X168968488Y-94941927D01*
X168993258Y-94937000D01*
X169170742Y-94937000D01*
X169195512Y-94941927D01*
G37*
G36*
X166655512Y-94941927D02*
G01*
X166804812Y-94971624D01*
X166968784Y-95039544D01*
X167116354Y-95138147D01*
X167241853Y-95263646D01*
X167340456Y-95411216D01*
X167408376Y-95575188D01*
X167443000Y-95749259D01*
X167443000Y-95926741D01*
X167408376Y-96100812D01*
X167340456Y-96264784D01*
X167241853Y-96412354D01*
X167116354Y-96537853D01*
X166968784Y-96636456D01*
X166804812Y-96704376D01*
X166655512Y-96734073D01*
X166630742Y-96739000D01*
X166453258Y-96739000D01*
X166428488Y-96734073D01*
X166279188Y-96704376D01*
X166115216Y-96636456D01*
X165967646Y-96537853D01*
X165842147Y-96412354D01*
X165743544Y-96264784D01*
X165675624Y-96100812D01*
X165641000Y-95926741D01*
X165641000Y-95749259D01*
X165675624Y-95575188D01*
X165743544Y-95411216D01*
X165842147Y-95263646D01*
X165967646Y-95138147D01*
X166115216Y-95039544D01*
X166279188Y-94971624D01*
X166428488Y-94941927D01*
X166453258Y-94937000D01*
X166630742Y-94937000D01*
X166655512Y-94941927D01*
G37*
G36*
X164115512Y-94941927D02*
G01*
X164264812Y-94971624D01*
X164428784Y-95039544D01*
X164576354Y-95138147D01*
X164701853Y-95263646D01*
X164800456Y-95411216D01*
X164868376Y-95575188D01*
X164903000Y-95749259D01*
X164903000Y-95926741D01*
X164868376Y-96100812D01*
X164800456Y-96264784D01*
X164701853Y-96412354D01*
X164576354Y-96537853D01*
X164428784Y-96636456D01*
X164264812Y-96704376D01*
X164115512Y-96734073D01*
X164090742Y-96739000D01*
X163913258Y-96739000D01*
X163888488Y-96734073D01*
X163739188Y-96704376D01*
X163575216Y-96636456D01*
X163427646Y-96537853D01*
X163302147Y-96412354D01*
X163203544Y-96264784D01*
X163135624Y-96100812D01*
X163101000Y-95926741D01*
X163101000Y-95749259D01*
X163135624Y-95575188D01*
X163203544Y-95411216D01*
X163302147Y-95263646D01*
X163427646Y-95138147D01*
X163575216Y-95039544D01*
X163739188Y-94971624D01*
X163888488Y-94941927D01*
X163913258Y-94937000D01*
X164090742Y-94937000D01*
X164115512Y-94941927D01*
G37*
G36*
X161575512Y-94941927D02*
G01*
X161724812Y-94971624D01*
X161888784Y-95039544D01*
X162036354Y-95138147D01*
X162161853Y-95263646D01*
X162260456Y-95411216D01*
X162328376Y-95575188D01*
X162363000Y-95749259D01*
X162363000Y-95926741D01*
X162328376Y-96100812D01*
X162260456Y-96264784D01*
X162161853Y-96412354D01*
X162036354Y-96537853D01*
X161888784Y-96636456D01*
X161724812Y-96704376D01*
X161575512Y-96734073D01*
X161550742Y-96739000D01*
X161373258Y-96739000D01*
X161348488Y-96734073D01*
X161199188Y-96704376D01*
X161035216Y-96636456D01*
X160887646Y-96537853D01*
X160762147Y-96412354D01*
X160663544Y-96264784D01*
X160595624Y-96100812D01*
X160561000Y-95926741D01*
X160561000Y-95749259D01*
X160595624Y-95575188D01*
X160663544Y-95411216D01*
X160762147Y-95263646D01*
X160887646Y-95138147D01*
X161035216Y-95039544D01*
X161199188Y-94971624D01*
X161348488Y-94941927D01*
X161373258Y-94937000D01*
X161550742Y-94937000D01*
X161575512Y-94941927D01*
G37*
G36*
X159035512Y-94941927D02*
G01*
X159184812Y-94971624D01*
X159348784Y-95039544D01*
X159496354Y-95138147D01*
X159621853Y-95263646D01*
X159720456Y-95411216D01*
X159788376Y-95575188D01*
X159823000Y-95749259D01*
X159823000Y-95926741D01*
X159788376Y-96100812D01*
X159720456Y-96264784D01*
X159621853Y-96412354D01*
X159496354Y-96537853D01*
X159348784Y-96636456D01*
X159184812Y-96704376D01*
X159035512Y-96734073D01*
X159010742Y-96739000D01*
X158833258Y-96739000D01*
X158808488Y-96734073D01*
X158659188Y-96704376D01*
X158495216Y-96636456D01*
X158347646Y-96537853D01*
X158222147Y-96412354D01*
X158123544Y-96264784D01*
X158055624Y-96100812D01*
X158021000Y-95926741D01*
X158021000Y-95749259D01*
X158055624Y-95575188D01*
X158123544Y-95411216D01*
X158222147Y-95263646D01*
X158347646Y-95138147D01*
X158495216Y-95039544D01*
X158659188Y-94971624D01*
X158808488Y-94941927D01*
X158833258Y-94937000D01*
X159010742Y-94937000D01*
X159035512Y-94941927D01*
G37*
G36*
X156495512Y-94941927D02*
G01*
X156644812Y-94971624D01*
X156808784Y-95039544D01*
X156956354Y-95138147D01*
X157081853Y-95263646D01*
X157180456Y-95411216D01*
X157248376Y-95575188D01*
X157283000Y-95749259D01*
X157283000Y-95926741D01*
X157248376Y-96100812D01*
X157180456Y-96264784D01*
X157081853Y-96412354D01*
X156956354Y-96537853D01*
X156808784Y-96636456D01*
X156644812Y-96704376D01*
X156495512Y-96734073D01*
X156470742Y-96739000D01*
X156293258Y-96739000D01*
X156268488Y-96734073D01*
X156119188Y-96704376D01*
X155955216Y-96636456D01*
X155807646Y-96537853D01*
X155682147Y-96412354D01*
X155583544Y-96264784D01*
X155515624Y-96100812D01*
X155481000Y-95926741D01*
X155481000Y-95749259D01*
X155515624Y-95575188D01*
X155583544Y-95411216D01*
X155682147Y-95263646D01*
X155807646Y-95138147D01*
X155955216Y-95039544D01*
X156119188Y-94971624D01*
X156268488Y-94941927D01*
X156293258Y-94937000D01*
X156470742Y-94937000D01*
X156495512Y-94941927D01*
G37*
G36*
X153955512Y-94941927D02*
G01*
X154104812Y-94971624D01*
X154268784Y-95039544D01*
X154416354Y-95138147D01*
X154541853Y-95263646D01*
X154640456Y-95411216D01*
X154708376Y-95575188D01*
X154743000Y-95749259D01*
X154743000Y-95926741D01*
X154708376Y-96100812D01*
X154640456Y-96264784D01*
X154541853Y-96412354D01*
X154416354Y-96537853D01*
X154268784Y-96636456D01*
X154104812Y-96704376D01*
X153955512Y-96734073D01*
X153930742Y-96739000D01*
X153753258Y-96739000D01*
X153728488Y-96734073D01*
X153579188Y-96704376D01*
X153415216Y-96636456D01*
X153267646Y-96537853D01*
X153142147Y-96412354D01*
X153043544Y-96264784D01*
X152975624Y-96100812D01*
X152941000Y-95926741D01*
X152941000Y-95749259D01*
X152975624Y-95575188D01*
X153043544Y-95411216D01*
X153142147Y-95263646D01*
X153267646Y-95138147D01*
X153415216Y-95039544D01*
X153579188Y-94971624D01*
X153728488Y-94941927D01*
X153753258Y-94937000D01*
X153930742Y-94937000D01*
X153955512Y-94941927D01*
G37*
G36*
X151415512Y-94941927D02*
G01*
X151564812Y-94971624D01*
X151728784Y-95039544D01*
X151876354Y-95138147D01*
X152001853Y-95263646D01*
X152100456Y-95411216D01*
X152168376Y-95575188D01*
X152203000Y-95749259D01*
X152203000Y-95926741D01*
X152168376Y-96100812D01*
X152100456Y-96264784D01*
X152001853Y-96412354D01*
X151876354Y-96537853D01*
X151728784Y-96636456D01*
X151564812Y-96704376D01*
X151415512Y-96734073D01*
X151390742Y-96739000D01*
X151213258Y-96739000D01*
X151188488Y-96734073D01*
X151039188Y-96704376D01*
X150875216Y-96636456D01*
X150727646Y-96537853D01*
X150602147Y-96412354D01*
X150503544Y-96264784D01*
X150435624Y-96100812D01*
X150401000Y-95926741D01*
X150401000Y-95749259D01*
X150435624Y-95575188D01*
X150503544Y-95411216D01*
X150602147Y-95263646D01*
X150727646Y-95138147D01*
X150875216Y-95039544D01*
X151039188Y-94971624D01*
X151188488Y-94941927D01*
X151213258Y-94937000D01*
X151390742Y-94937000D01*
X151415512Y-94941927D01*
G37*
G36*
X146335512Y-94941927D02*
G01*
X146484812Y-94971624D01*
X146648784Y-95039544D01*
X146796354Y-95138147D01*
X146921853Y-95263646D01*
X147020456Y-95411216D01*
X147088376Y-95575188D01*
X147123000Y-95749259D01*
X147123000Y-95926741D01*
X147088376Y-96100812D01*
X147020456Y-96264784D01*
X146921853Y-96412354D01*
X146796354Y-96537853D01*
X146648784Y-96636456D01*
X146484812Y-96704376D01*
X146335512Y-96734073D01*
X146310742Y-96739000D01*
X146133258Y-96739000D01*
X146108488Y-96734073D01*
X145959188Y-96704376D01*
X145795216Y-96636456D01*
X145647646Y-96537853D01*
X145522147Y-96412354D01*
X145423544Y-96264784D01*
X145355624Y-96100812D01*
X145321000Y-95926741D01*
X145321000Y-95749259D01*
X145355624Y-95575188D01*
X145423544Y-95411216D01*
X145522147Y-95263646D01*
X145647646Y-95138147D01*
X145795216Y-95039544D01*
X145959188Y-94971624D01*
X146108488Y-94941927D01*
X146133258Y-94937000D01*
X146310742Y-94937000D01*
X146335512Y-94941927D01*
G37*
G36*
X148875512Y-94941927D02*
G01*
X149024812Y-94971624D01*
X149188784Y-95039544D01*
X149336354Y-95138147D01*
X149461853Y-95263646D01*
X149560456Y-95411216D01*
X149628376Y-95575188D01*
X149663000Y-95749259D01*
X149663000Y-95926741D01*
X149628376Y-96100812D01*
X149560456Y-96264784D01*
X149461853Y-96412354D01*
X149336354Y-96537853D01*
X149188784Y-96636456D01*
X149024812Y-96704376D01*
X148875512Y-96734073D01*
X148850742Y-96739000D01*
X148673258Y-96739000D01*
X148648488Y-96734073D01*
X148499188Y-96704376D01*
X148335216Y-96636456D01*
X148187646Y-96537853D01*
X148062147Y-96412354D01*
X147963544Y-96264784D01*
X147895624Y-96100812D01*
X147861000Y-95926741D01*
X147861000Y-95749259D01*
X147895624Y-95575188D01*
X147963544Y-95411216D01*
X148062147Y-95263646D01*
X148187646Y-95138147D01*
X148335216Y-95039544D01*
X148499188Y-94971624D01*
X148648488Y-94941927D01*
X148673258Y-94937000D01*
X148850742Y-94937000D01*
X148875512Y-94941927D01*
G37*
G36*
X126803000Y-96739000D02*
G01*
X125001000Y-96739000D01*
X125001000Y-94937000D01*
X126803000Y-94937000D01*
X126803000Y-96739000D01*
G37*
G36*
X128555512Y-94941927D02*
G01*
X128704812Y-94971624D01*
X128868784Y-95039544D01*
X129016354Y-95138147D01*
X129141853Y-95263646D01*
X129240456Y-95411216D01*
X129308376Y-95575188D01*
X129343000Y-95749259D01*
X129343000Y-95926741D01*
X129308376Y-96100812D01*
X129240456Y-96264784D01*
X129141853Y-96412354D01*
X129016354Y-96537853D01*
X128868784Y-96636456D01*
X128704812Y-96704376D01*
X128555512Y-96734073D01*
X128530742Y-96739000D01*
X128353258Y-96739000D01*
X128328488Y-96734073D01*
X128179188Y-96704376D01*
X128015216Y-96636456D01*
X127867646Y-96537853D01*
X127742147Y-96412354D01*
X127643544Y-96264784D01*
X127575624Y-96100812D01*
X127541000Y-95926741D01*
X127541000Y-95749259D01*
X127575624Y-95575188D01*
X127643544Y-95411216D01*
X127742147Y-95263646D01*
X127867646Y-95138147D01*
X128015216Y-95039544D01*
X128179188Y-94971624D01*
X128328488Y-94941927D01*
X128353258Y-94937000D01*
X128530742Y-94937000D01*
X128555512Y-94941927D01*
G37*
G36*
X131095512Y-94941927D02*
G01*
X131244812Y-94971624D01*
X131408784Y-95039544D01*
X131556354Y-95138147D01*
X131681853Y-95263646D01*
X131780456Y-95411216D01*
X131848376Y-95575188D01*
X131883000Y-95749259D01*
X131883000Y-95926741D01*
X131848376Y-96100812D01*
X131780456Y-96264784D01*
X131681853Y-96412354D01*
X131556354Y-96537853D01*
X131408784Y-96636456D01*
X131244812Y-96704376D01*
X131095512Y-96734073D01*
X131070742Y-96739000D01*
X130893258Y-96739000D01*
X130868488Y-96734073D01*
X130719188Y-96704376D01*
X130555216Y-96636456D01*
X130407646Y-96537853D01*
X130282147Y-96412354D01*
X130183544Y-96264784D01*
X130115624Y-96100812D01*
X130081000Y-95926741D01*
X130081000Y-95749259D01*
X130115624Y-95575188D01*
X130183544Y-95411216D01*
X130282147Y-95263646D01*
X130407646Y-95138147D01*
X130555216Y-95039544D01*
X130719188Y-94971624D01*
X130868488Y-94941927D01*
X130893258Y-94937000D01*
X131070742Y-94937000D01*
X131095512Y-94941927D01*
G37*
G36*
X136175512Y-94941927D02*
G01*
X136324812Y-94971624D01*
X136488784Y-95039544D01*
X136636354Y-95138147D01*
X136761853Y-95263646D01*
X136860456Y-95411216D01*
X136928376Y-95575188D01*
X136963000Y-95749259D01*
X136963000Y-95926741D01*
X136928376Y-96100812D01*
X136860456Y-96264784D01*
X136761853Y-96412354D01*
X136636354Y-96537853D01*
X136488784Y-96636456D01*
X136324812Y-96704376D01*
X136175512Y-96734073D01*
X136150742Y-96739000D01*
X135973258Y-96739000D01*
X135948488Y-96734073D01*
X135799188Y-96704376D01*
X135635216Y-96636456D01*
X135487646Y-96537853D01*
X135362147Y-96412354D01*
X135263544Y-96264784D01*
X135195624Y-96100812D01*
X135161000Y-95926741D01*
X135161000Y-95749259D01*
X135195624Y-95575188D01*
X135263544Y-95411216D01*
X135362147Y-95263646D01*
X135487646Y-95138147D01*
X135635216Y-95039544D01*
X135799188Y-94971624D01*
X135948488Y-94941927D01*
X135973258Y-94937000D01*
X136150742Y-94937000D01*
X136175512Y-94941927D01*
G37*
G36*
X141255512Y-94941927D02*
G01*
X141404812Y-94971624D01*
X141568784Y-95039544D01*
X141716354Y-95138147D01*
X141841853Y-95263646D01*
X141940456Y-95411216D01*
X142008376Y-95575188D01*
X142043000Y-95749259D01*
X142043000Y-95926741D01*
X142008376Y-96100812D01*
X141940456Y-96264784D01*
X141841853Y-96412354D01*
X141716354Y-96537853D01*
X141568784Y-96636456D01*
X141404812Y-96704376D01*
X141255512Y-96734073D01*
X141230742Y-96739000D01*
X141053258Y-96739000D01*
X141028488Y-96734073D01*
X140879188Y-96704376D01*
X140715216Y-96636456D01*
X140567646Y-96537853D01*
X140442147Y-96412354D01*
X140343544Y-96264784D01*
X140275624Y-96100812D01*
X140241000Y-95926741D01*
X140241000Y-95749259D01*
X140275624Y-95575188D01*
X140343544Y-95411216D01*
X140442147Y-95263646D01*
X140567646Y-95138147D01*
X140715216Y-95039544D01*
X140879188Y-94971624D01*
X141028488Y-94941927D01*
X141053258Y-94937000D01*
X141230742Y-94937000D01*
X141255512Y-94941927D01*
G37*
G36*
X138715512Y-94941927D02*
G01*
X138864812Y-94971624D01*
X139028784Y-95039544D01*
X139176354Y-95138147D01*
X139301853Y-95263646D01*
X139400456Y-95411216D01*
X139468376Y-95575188D01*
X139503000Y-95749259D01*
X139503000Y-95926741D01*
X139468376Y-96100812D01*
X139400456Y-96264784D01*
X139301853Y-96412354D01*
X139176354Y-96537853D01*
X139028784Y-96636456D01*
X138864812Y-96704376D01*
X138715512Y-96734073D01*
X138690742Y-96739000D01*
X138513258Y-96739000D01*
X138488488Y-96734073D01*
X138339188Y-96704376D01*
X138175216Y-96636456D01*
X138027646Y-96537853D01*
X137902147Y-96412354D01*
X137803544Y-96264784D01*
X137735624Y-96100812D01*
X137701000Y-95926741D01*
X137701000Y-95749259D01*
X137735624Y-95575188D01*
X137803544Y-95411216D01*
X137902147Y-95263646D01*
X138027646Y-95138147D01*
X138175216Y-95039544D01*
X138339188Y-94971624D01*
X138488488Y-94941927D01*
X138513258Y-94937000D01*
X138690742Y-94937000D01*
X138715512Y-94941927D01*
G37*
G36*
X121350433Y-93202893D02*
G01*
X121440657Y-93220839D01*
X121546267Y-93264585D01*
X121695621Y-93326449D01*
X121695622Y-93326450D01*
X121925086Y-93479772D01*
X122120228Y-93674914D01*
X122222675Y-93828237D01*
X122273551Y-93904379D01*
X122379161Y-94159344D01*
X122433000Y-94430012D01*
X122433000Y-94705988D01*
X122379161Y-94976656D01*
X122273551Y-95231621D01*
X122252152Y-95263647D01*
X122120228Y-95461086D01*
X121925086Y-95656228D01*
X121785856Y-95749258D01*
X121695621Y-95809551D01*
X121546267Y-95871415D01*
X121440657Y-95915161D01*
X121350433Y-95933107D01*
X121169988Y-95969000D01*
X120894012Y-95969000D01*
X120713567Y-95933107D01*
X120623343Y-95915161D01*
X120517733Y-95871415D01*
X120368379Y-95809551D01*
X120278144Y-95749258D01*
X120138914Y-95656228D01*
X119943772Y-95461086D01*
X119811848Y-95263647D01*
X119790449Y-95231621D01*
X119684839Y-94976656D01*
X119631000Y-94705988D01*
X119631000Y-94430012D01*
X119684839Y-94159344D01*
X119790449Y-93904379D01*
X119841325Y-93828237D01*
X119943772Y-93674914D01*
X120138914Y-93479772D01*
X120368378Y-93326450D01*
X120368379Y-93326449D01*
X120517733Y-93264585D01*
X120623343Y-93220839D01*
X120713567Y-93202893D01*
X120894012Y-93167000D01*
X121169988Y-93167000D01*
X121350433Y-93202893D01*
G37*
G36*
X179350433Y-93202893D02*
G01*
X179440657Y-93220839D01*
X179546267Y-93264585D01*
X179695621Y-93326449D01*
X179695622Y-93326450D01*
X179925086Y-93479772D01*
X180120228Y-93674914D01*
X180222675Y-93828237D01*
X180273551Y-93904379D01*
X180379161Y-94159344D01*
X180433000Y-94430012D01*
X180433000Y-94705988D01*
X180379161Y-94976656D01*
X180273551Y-95231621D01*
X180252152Y-95263647D01*
X180120228Y-95461086D01*
X179925086Y-95656228D01*
X179785856Y-95749258D01*
X179695621Y-95809551D01*
X179546267Y-95871415D01*
X179440657Y-95915161D01*
X179350433Y-95933107D01*
X179169988Y-95969000D01*
X178894012Y-95969000D01*
X178713567Y-95933107D01*
X178623343Y-95915161D01*
X178517733Y-95871415D01*
X178368379Y-95809551D01*
X178278144Y-95749258D01*
X178138914Y-95656228D01*
X177943772Y-95461086D01*
X177811848Y-95263647D01*
X177790449Y-95231621D01*
X177684839Y-94976656D01*
X177631000Y-94705988D01*
X177631000Y-94430012D01*
X177684839Y-94159344D01*
X177790449Y-93904379D01*
X177841325Y-93828237D01*
X177943772Y-93674914D01*
X178138914Y-93479772D01*
X178368378Y-93326450D01*
X178368379Y-93326449D01*
X178517733Y-93264585D01*
X178623343Y-93220839D01*
X178713567Y-93202893D01*
X178894012Y-93167000D01*
X179169988Y-93167000D01*
X179350433Y-93202893D01*
G37*
G36*
X143795512Y-92401927D02*
G01*
X143944812Y-92431624D01*
X144108784Y-92499544D01*
X144256354Y-92598147D01*
X144381853Y-92723646D01*
X144480456Y-92871216D01*
X144548376Y-93035188D01*
X144583000Y-93209259D01*
X144583000Y-93386741D01*
X144548376Y-93560812D01*
X144480456Y-93724784D01*
X144381853Y-93872354D01*
X144256354Y-93997853D01*
X144108784Y-94096456D01*
X143944812Y-94164376D01*
X143795512Y-94194073D01*
X143770742Y-94199000D01*
X143593258Y-94199000D01*
X143568488Y-94194073D01*
X143419188Y-94164376D01*
X143255216Y-94096456D01*
X143107646Y-93997853D01*
X142982147Y-93872354D01*
X142883544Y-93724784D01*
X142815624Y-93560812D01*
X142781000Y-93386741D01*
X142781000Y-93209259D01*
X142815624Y-93035188D01*
X142883544Y-92871216D01*
X142982147Y-92723646D01*
X143107646Y-92598147D01*
X143255216Y-92499544D01*
X143419188Y-92431624D01*
X143568488Y-92401927D01*
X143593258Y-92397000D01*
X143770742Y-92397000D01*
X143795512Y-92401927D01*
G37*
G36*
X146335512Y-92401927D02*
G01*
X146484812Y-92431624D01*
X146648784Y-92499544D01*
X146796354Y-92598147D01*
X146921853Y-92723646D01*
X147020456Y-92871216D01*
X147088376Y-93035188D01*
X147123000Y-93209259D01*
X147123000Y-93386741D01*
X147088376Y-93560812D01*
X147020456Y-93724784D01*
X146921853Y-93872354D01*
X146796354Y-93997853D01*
X146648784Y-94096456D01*
X146484812Y-94164376D01*
X146335512Y-94194073D01*
X146310742Y-94199000D01*
X146133258Y-94199000D01*
X146108488Y-94194073D01*
X145959188Y-94164376D01*
X145795216Y-94096456D01*
X145647646Y-93997853D01*
X145522147Y-93872354D01*
X145423544Y-93724784D01*
X145355624Y-93560812D01*
X145321000Y-93386741D01*
X145321000Y-93209259D01*
X145355624Y-93035188D01*
X145423544Y-92871216D01*
X145522147Y-92723646D01*
X145647646Y-92598147D01*
X145795216Y-92499544D01*
X145959188Y-92431624D01*
X146108488Y-92401927D01*
X146133258Y-92397000D01*
X146310742Y-92397000D01*
X146335512Y-92401927D01*
G37*
G36*
X128555512Y-92401927D02*
G01*
X128704812Y-92431624D01*
X128868784Y-92499544D01*
X129016354Y-92598147D01*
X129141853Y-92723646D01*
X129240456Y-92871216D01*
X129308376Y-93035188D01*
X129343000Y-93209259D01*
X129343000Y-93386741D01*
X129308376Y-93560812D01*
X129240456Y-93724784D01*
X129141853Y-93872354D01*
X129016354Y-93997853D01*
X128868784Y-94096456D01*
X128704812Y-94164376D01*
X128555512Y-94194073D01*
X128530742Y-94199000D01*
X128353258Y-94199000D01*
X128328488Y-94194073D01*
X128179188Y-94164376D01*
X128015216Y-94096456D01*
X127867646Y-93997853D01*
X127742147Y-93872354D01*
X127643544Y-93724784D01*
X127575624Y-93560812D01*
X127541000Y-93386741D01*
X127541000Y-93209259D01*
X127575624Y-93035188D01*
X127643544Y-92871216D01*
X127742147Y-92723646D01*
X127867646Y-92598147D01*
X128015216Y-92499544D01*
X128179188Y-92431624D01*
X128328488Y-92401927D01*
X128353258Y-92397000D01*
X128530742Y-92397000D01*
X128555512Y-92401927D01*
G37*
G36*
X148875512Y-92401927D02*
G01*
X149024812Y-92431624D01*
X149188784Y-92499544D01*
X149336354Y-92598147D01*
X149461853Y-92723646D01*
X149560456Y-92871216D01*
X149628376Y-93035188D01*
X149663000Y-93209259D01*
X149663000Y-93386741D01*
X149628376Y-93560812D01*
X149560456Y-93724784D01*
X149461853Y-93872354D01*
X149336354Y-93997853D01*
X149188784Y-94096456D01*
X149024812Y-94164376D01*
X148875512Y-94194073D01*
X148850742Y-94199000D01*
X148673258Y-94199000D01*
X148648488Y-94194073D01*
X148499188Y-94164376D01*
X148335216Y-94096456D01*
X148187646Y-93997853D01*
X148062147Y-93872354D01*
X147963544Y-93724784D01*
X147895624Y-93560812D01*
X147861000Y-93386741D01*
X147861000Y-93209259D01*
X147895624Y-93035188D01*
X147963544Y-92871216D01*
X148062147Y-92723646D01*
X148187646Y-92598147D01*
X148335216Y-92499544D01*
X148499188Y-92431624D01*
X148648488Y-92401927D01*
X148673258Y-92397000D01*
X148850742Y-92397000D01*
X148875512Y-92401927D01*
G37*
G36*
X141255512Y-92401927D02*
G01*
X141404812Y-92431624D01*
X141568784Y-92499544D01*
X141716354Y-92598147D01*
X141841853Y-92723646D01*
X141940456Y-92871216D01*
X142008376Y-93035188D01*
X142043000Y-93209259D01*
X142043000Y-93386741D01*
X142008376Y-93560812D01*
X141940456Y-93724784D01*
X141841853Y-93872354D01*
X141716354Y-93997853D01*
X141568784Y-94096456D01*
X141404812Y-94164376D01*
X141255512Y-94194073D01*
X141230742Y-94199000D01*
X141053258Y-94199000D01*
X141028488Y-94194073D01*
X140879188Y-94164376D01*
X140715216Y-94096456D01*
X140567646Y-93997853D01*
X140442147Y-93872354D01*
X140343544Y-93724784D01*
X140275624Y-93560812D01*
X140241000Y-93386741D01*
X140241000Y-93209259D01*
X140275624Y-93035188D01*
X140343544Y-92871216D01*
X140442147Y-92723646D01*
X140567646Y-92598147D01*
X140715216Y-92499544D01*
X140879188Y-92431624D01*
X141028488Y-92401927D01*
X141053258Y-92397000D01*
X141230742Y-92397000D01*
X141255512Y-92401927D01*
G37*
G36*
X151415512Y-92401927D02*
G01*
X151564812Y-92431624D01*
X151728784Y-92499544D01*
X151876354Y-92598147D01*
X152001853Y-92723646D01*
X152100456Y-92871216D01*
X152168376Y-93035188D01*
X152203000Y-93209259D01*
X152203000Y-93386741D01*
X152168376Y-93560812D01*
X152100456Y-93724784D01*
X152001853Y-93872354D01*
X151876354Y-93997853D01*
X151728784Y-94096456D01*
X151564812Y-94164376D01*
X151415512Y-94194073D01*
X151390742Y-94199000D01*
X151213258Y-94199000D01*
X151188488Y-94194073D01*
X151039188Y-94164376D01*
X150875216Y-94096456D01*
X150727646Y-93997853D01*
X150602147Y-93872354D01*
X150503544Y-93724784D01*
X150435624Y-93560812D01*
X150401000Y-93386741D01*
X150401000Y-93209259D01*
X150435624Y-93035188D01*
X150503544Y-92871216D01*
X150602147Y-92723646D01*
X150727646Y-92598147D01*
X150875216Y-92499544D01*
X151039188Y-92431624D01*
X151188488Y-92401927D01*
X151213258Y-92397000D01*
X151390742Y-92397000D01*
X151415512Y-92401927D01*
G37*
G36*
X138715512Y-92401927D02*
G01*
X138864812Y-92431624D01*
X139028784Y-92499544D01*
X139176354Y-92598147D01*
X139301853Y-92723646D01*
X139400456Y-92871216D01*
X139468376Y-93035188D01*
X139503000Y-93209259D01*
X139503000Y-93386741D01*
X139468376Y-93560812D01*
X139400456Y-93724784D01*
X139301853Y-93872354D01*
X139176354Y-93997853D01*
X139028784Y-94096456D01*
X138864812Y-94164376D01*
X138715512Y-94194073D01*
X138690742Y-94199000D01*
X138513258Y-94199000D01*
X138488488Y-94194073D01*
X138339188Y-94164376D01*
X138175216Y-94096456D01*
X138027646Y-93997853D01*
X137902147Y-93872354D01*
X137803544Y-93724784D01*
X137735624Y-93560812D01*
X137701000Y-93386741D01*
X137701000Y-93209259D01*
X137735624Y-93035188D01*
X137803544Y-92871216D01*
X137902147Y-92723646D01*
X138027646Y-92598147D01*
X138175216Y-92499544D01*
X138339188Y-92431624D01*
X138488488Y-92401927D01*
X138513258Y-92397000D01*
X138690742Y-92397000D01*
X138715512Y-92401927D01*
G37*
G36*
X153955512Y-92401927D02*
G01*
X154104812Y-92431624D01*
X154268784Y-92499544D01*
X154416354Y-92598147D01*
X154541853Y-92723646D01*
X154640456Y-92871216D01*
X154708376Y-93035188D01*
X154743000Y-93209259D01*
X154743000Y-93386741D01*
X154708376Y-93560812D01*
X154640456Y-93724784D01*
X154541853Y-93872354D01*
X154416354Y-93997853D01*
X154268784Y-94096456D01*
X154104812Y-94164376D01*
X153955512Y-94194073D01*
X153930742Y-94199000D01*
X153753258Y-94199000D01*
X153728488Y-94194073D01*
X153579188Y-94164376D01*
X153415216Y-94096456D01*
X153267646Y-93997853D01*
X153142147Y-93872354D01*
X153043544Y-93724784D01*
X152975624Y-93560812D01*
X152941000Y-93386741D01*
X152941000Y-93209259D01*
X152975624Y-93035188D01*
X153043544Y-92871216D01*
X153142147Y-92723646D01*
X153267646Y-92598147D01*
X153415216Y-92499544D01*
X153579188Y-92431624D01*
X153728488Y-92401927D01*
X153753258Y-92397000D01*
X153930742Y-92397000D01*
X153955512Y-92401927D01*
G37*
G36*
X136175512Y-92401927D02*
G01*
X136324812Y-92431624D01*
X136488784Y-92499544D01*
X136636354Y-92598147D01*
X136761853Y-92723646D01*
X136860456Y-92871216D01*
X136928376Y-93035188D01*
X136963000Y-93209259D01*
X136963000Y-93386741D01*
X136928376Y-93560812D01*
X136860456Y-93724784D01*
X136761853Y-93872354D01*
X136636354Y-93997853D01*
X136488784Y-94096456D01*
X136324812Y-94164376D01*
X136175512Y-94194073D01*
X136150742Y-94199000D01*
X135973258Y-94199000D01*
X135948488Y-94194073D01*
X135799188Y-94164376D01*
X135635216Y-94096456D01*
X135487646Y-93997853D01*
X135362147Y-93872354D01*
X135263544Y-93724784D01*
X135195624Y-93560812D01*
X135161000Y-93386741D01*
X135161000Y-93209259D01*
X135195624Y-93035188D01*
X135263544Y-92871216D01*
X135362147Y-92723646D01*
X135487646Y-92598147D01*
X135635216Y-92499544D01*
X135799188Y-92431624D01*
X135948488Y-92401927D01*
X135973258Y-92397000D01*
X136150742Y-92397000D01*
X136175512Y-92401927D01*
G37*
G36*
X156495512Y-92401927D02*
G01*
X156644812Y-92431624D01*
X156808784Y-92499544D01*
X156956354Y-92598147D01*
X157081853Y-92723646D01*
X157180456Y-92871216D01*
X157248376Y-93035188D01*
X157283000Y-93209259D01*
X157283000Y-93386741D01*
X157248376Y-93560812D01*
X157180456Y-93724784D01*
X157081853Y-93872354D01*
X156956354Y-93997853D01*
X156808784Y-94096456D01*
X156644812Y-94164376D01*
X156495512Y-94194073D01*
X156470742Y-94199000D01*
X156293258Y-94199000D01*
X156268488Y-94194073D01*
X156119188Y-94164376D01*
X155955216Y-94096456D01*
X155807646Y-93997853D01*
X155682147Y-93872354D01*
X155583544Y-93724784D01*
X155515624Y-93560812D01*
X155481000Y-93386741D01*
X155481000Y-93209259D01*
X155515624Y-93035188D01*
X155583544Y-92871216D01*
X155682147Y-92723646D01*
X155807646Y-92598147D01*
X155955216Y-92499544D01*
X156119188Y-92431624D01*
X156268488Y-92401927D01*
X156293258Y-92397000D01*
X156470742Y-92397000D01*
X156495512Y-92401927D01*
G37*
G36*
X133635512Y-92401927D02*
G01*
X133784812Y-92431624D01*
X133948784Y-92499544D01*
X134096354Y-92598147D01*
X134221853Y-92723646D01*
X134320456Y-92871216D01*
X134388376Y-93035188D01*
X134423000Y-93209259D01*
X134423000Y-93386741D01*
X134388376Y-93560812D01*
X134320456Y-93724784D01*
X134221853Y-93872354D01*
X134096354Y-93997853D01*
X133948784Y-94096456D01*
X133784812Y-94164376D01*
X133635512Y-94194073D01*
X133610742Y-94199000D01*
X133433258Y-94199000D01*
X133408488Y-94194073D01*
X133259188Y-94164376D01*
X133095216Y-94096456D01*
X132947646Y-93997853D01*
X132822147Y-93872354D01*
X132723544Y-93724784D01*
X132655624Y-93560812D01*
X132621000Y-93386741D01*
X132621000Y-93209259D01*
X132655624Y-93035188D01*
X132723544Y-92871216D01*
X132822147Y-92723646D01*
X132947646Y-92598147D01*
X133095216Y-92499544D01*
X133259188Y-92431624D01*
X133408488Y-92401927D01*
X133433258Y-92397000D01*
X133610742Y-92397000D01*
X133635512Y-92401927D01*
G37*
G36*
X159035512Y-92401927D02*
G01*
X159184812Y-92431624D01*
X159348784Y-92499544D01*
X159496354Y-92598147D01*
X159621853Y-92723646D01*
X159720456Y-92871216D01*
X159788376Y-93035188D01*
X159823000Y-93209259D01*
X159823000Y-93386741D01*
X159788376Y-93560812D01*
X159720456Y-93724784D01*
X159621853Y-93872354D01*
X159496354Y-93997853D01*
X159348784Y-94096456D01*
X159184812Y-94164376D01*
X159035512Y-94194073D01*
X159010742Y-94199000D01*
X158833258Y-94199000D01*
X158808488Y-94194073D01*
X158659188Y-94164376D01*
X158495216Y-94096456D01*
X158347646Y-93997853D01*
X158222147Y-93872354D01*
X158123544Y-93724784D01*
X158055624Y-93560812D01*
X158021000Y-93386741D01*
X158021000Y-93209259D01*
X158055624Y-93035188D01*
X158123544Y-92871216D01*
X158222147Y-92723646D01*
X158347646Y-92598147D01*
X158495216Y-92499544D01*
X158659188Y-92431624D01*
X158808488Y-92401927D01*
X158833258Y-92397000D01*
X159010742Y-92397000D01*
X159035512Y-92401927D01*
G37*
G36*
X131095512Y-92401927D02*
G01*
X131244812Y-92431624D01*
X131408784Y-92499544D01*
X131556354Y-92598147D01*
X131681853Y-92723646D01*
X131780456Y-92871216D01*
X131848376Y-93035188D01*
X131883000Y-93209259D01*
X131883000Y-93386741D01*
X131848376Y-93560812D01*
X131780456Y-93724784D01*
X131681853Y-93872354D01*
X131556354Y-93997853D01*
X131408784Y-94096456D01*
X131244812Y-94164376D01*
X131095512Y-94194073D01*
X131070742Y-94199000D01*
X130893258Y-94199000D01*
X130868488Y-94194073D01*
X130719188Y-94164376D01*
X130555216Y-94096456D01*
X130407646Y-93997853D01*
X130282147Y-93872354D01*
X130183544Y-93724784D01*
X130115624Y-93560812D01*
X130081000Y-93386741D01*
X130081000Y-93209259D01*
X130115624Y-93035188D01*
X130183544Y-92871216D01*
X130282147Y-92723646D01*
X130407646Y-92598147D01*
X130555216Y-92499544D01*
X130719188Y-92431624D01*
X130868488Y-92401927D01*
X130893258Y-92397000D01*
X131070742Y-92397000D01*
X131095512Y-92401927D01*
G37*
G36*
X161575512Y-92401927D02*
G01*
X161724812Y-92431624D01*
X161888784Y-92499544D01*
X162036354Y-92598147D01*
X162161853Y-92723646D01*
X162260456Y-92871216D01*
X162328376Y-93035188D01*
X162363000Y-93209259D01*
X162363000Y-93386741D01*
X162328376Y-93560812D01*
X162260456Y-93724784D01*
X162161853Y-93872354D01*
X162036354Y-93997853D01*
X161888784Y-94096456D01*
X161724812Y-94164376D01*
X161575512Y-94194073D01*
X161550742Y-94199000D01*
X161373258Y-94199000D01*
X161348488Y-94194073D01*
X161199188Y-94164376D01*
X161035216Y-94096456D01*
X160887646Y-93997853D01*
X160762147Y-93872354D01*
X160663544Y-93724784D01*
X160595624Y-93560812D01*
X160561000Y-93386741D01*
X160561000Y-93209259D01*
X160595624Y-93035188D01*
X160663544Y-92871216D01*
X160762147Y-92723646D01*
X160887646Y-92598147D01*
X161035216Y-92499544D01*
X161199188Y-92431624D01*
X161348488Y-92401927D01*
X161373258Y-92397000D01*
X161550742Y-92397000D01*
X161575512Y-92401927D01*
G37*
G36*
X164115512Y-92401927D02*
G01*
X164264812Y-92431624D01*
X164428784Y-92499544D01*
X164576354Y-92598147D01*
X164701853Y-92723646D01*
X164800456Y-92871216D01*
X164868376Y-93035188D01*
X164903000Y-93209259D01*
X164903000Y-93386741D01*
X164868376Y-93560812D01*
X164800456Y-93724784D01*
X164701853Y-93872354D01*
X164576354Y-93997853D01*
X164428784Y-94096456D01*
X164264812Y-94164376D01*
X164115512Y-94194073D01*
X164090742Y-94199000D01*
X163913258Y-94199000D01*
X163888488Y-94194073D01*
X163739188Y-94164376D01*
X163575216Y-94096456D01*
X163427646Y-93997853D01*
X163302147Y-93872354D01*
X163203544Y-93724784D01*
X163135624Y-93560812D01*
X163101000Y-93386741D01*
X163101000Y-93209259D01*
X163135624Y-93035188D01*
X163203544Y-92871216D01*
X163302147Y-92723646D01*
X163427646Y-92598147D01*
X163575216Y-92499544D01*
X163739188Y-92431624D01*
X163888488Y-92401927D01*
X163913258Y-92397000D01*
X164090742Y-92397000D01*
X164115512Y-92401927D01*
G37*
G36*
X166655512Y-92401927D02*
G01*
X166804812Y-92431624D01*
X166968784Y-92499544D01*
X167116354Y-92598147D01*
X167241853Y-92723646D01*
X167340456Y-92871216D01*
X167408376Y-93035188D01*
X167443000Y-93209259D01*
X167443000Y-93386741D01*
X167408376Y-93560812D01*
X167340456Y-93724784D01*
X167241853Y-93872354D01*
X167116354Y-93997853D01*
X166968784Y-94096456D01*
X166804812Y-94164376D01*
X166655512Y-94194073D01*
X166630742Y-94199000D01*
X166453258Y-94199000D01*
X166428488Y-94194073D01*
X166279188Y-94164376D01*
X166115216Y-94096456D01*
X165967646Y-93997853D01*
X165842147Y-93872354D01*
X165743544Y-93724784D01*
X165675624Y-93560812D01*
X165641000Y-93386741D01*
X165641000Y-93209259D01*
X165675624Y-93035188D01*
X165743544Y-92871216D01*
X165842147Y-92723646D01*
X165967646Y-92598147D01*
X166115216Y-92499544D01*
X166279188Y-92431624D01*
X166428488Y-92401927D01*
X166453258Y-92397000D01*
X166630742Y-92397000D01*
X166655512Y-92401927D01*
G37*
G36*
X126015512Y-92401927D02*
G01*
X126164812Y-92431624D01*
X126328784Y-92499544D01*
X126476354Y-92598147D01*
X126601853Y-92723646D01*
X126700456Y-92871216D01*
X126768376Y-93035188D01*
X126803000Y-93209259D01*
X126803000Y-93386741D01*
X126768376Y-93560812D01*
X126700456Y-93724784D01*
X126601853Y-93872354D01*
X126476354Y-93997853D01*
X126328784Y-94096456D01*
X126164812Y-94164376D01*
X126015512Y-94194073D01*
X125990742Y-94199000D01*
X125813258Y-94199000D01*
X125788488Y-94194073D01*
X125639188Y-94164376D01*
X125475216Y-94096456D01*
X125327646Y-93997853D01*
X125202147Y-93872354D01*
X125103544Y-93724784D01*
X125035624Y-93560812D01*
X125001000Y-93386741D01*
X125001000Y-93209259D01*
X125035624Y-93035188D01*
X125103544Y-92871216D01*
X125202147Y-92723646D01*
X125327646Y-92598147D01*
X125475216Y-92499544D01*
X125639188Y-92431624D01*
X125788488Y-92401927D01*
X125813258Y-92397000D01*
X125990742Y-92397000D01*
X126015512Y-92401927D01*
G37*
G36*
X169195512Y-92401927D02*
G01*
X169344812Y-92431624D01*
X169508784Y-92499544D01*
X169656354Y-92598147D01*
X169781853Y-92723646D01*
X169880456Y-92871216D01*
X169948376Y-93035188D01*
X169983000Y-93209259D01*
X169983000Y-93386741D01*
X169948376Y-93560812D01*
X169880456Y-93724784D01*
X169781853Y-93872354D01*
X169656354Y-93997853D01*
X169508784Y-94096456D01*
X169344812Y-94164376D01*
X169195512Y-94194073D01*
X169170742Y-94199000D01*
X168993258Y-94199000D01*
X168968488Y-94194073D01*
X168819188Y-94164376D01*
X168655216Y-94096456D01*
X168507646Y-93997853D01*
X168382147Y-93872354D01*
X168283544Y-93724784D01*
X168215624Y-93560812D01*
X168181000Y-93386741D01*
X168181000Y-93209259D01*
X168215624Y-93035188D01*
X168283544Y-92871216D01*
X168382147Y-92723646D01*
X168507646Y-92598147D01*
X168655216Y-92499544D01*
X168819188Y-92431624D01*
X168968488Y-92401927D01*
X168993258Y-92397000D01*
X169170742Y-92397000D01*
X169195512Y-92401927D01*
G37*
G36*
X171735512Y-92401927D02*
G01*
X171884812Y-92431624D01*
X172048784Y-92499544D01*
X172196354Y-92598147D01*
X172321853Y-92723646D01*
X172420456Y-92871216D01*
X172488376Y-93035188D01*
X172523000Y-93209259D01*
X172523000Y-93386741D01*
X172488376Y-93560812D01*
X172420456Y-93724784D01*
X172321853Y-93872354D01*
X172196354Y-93997853D01*
X172048784Y-94096456D01*
X171884812Y-94164376D01*
X171735512Y-94194073D01*
X171710742Y-94199000D01*
X171533258Y-94199000D01*
X171508488Y-94194073D01*
X171359188Y-94164376D01*
X171195216Y-94096456D01*
X171047646Y-93997853D01*
X170922147Y-93872354D01*
X170823544Y-93724784D01*
X170755624Y-93560812D01*
X170721000Y-93386741D01*
X170721000Y-93209259D01*
X170755624Y-93035188D01*
X170823544Y-92871216D01*
X170922147Y-92723646D01*
X171047646Y-92598147D01*
X171195216Y-92499544D01*
X171359188Y-92431624D01*
X171508488Y-92401927D01*
X171533258Y-92397000D01*
X171710742Y-92397000D01*
X171735512Y-92401927D01*
G37*
G36*
X174275512Y-92401927D02*
G01*
X174424812Y-92431624D01*
X174588784Y-92499544D01*
X174736354Y-92598147D01*
X174861853Y-92723646D01*
X174960456Y-92871216D01*
X175028376Y-93035188D01*
X175063000Y-93209259D01*
X175063000Y-93386741D01*
X175028376Y-93560812D01*
X174960456Y-93724784D01*
X174861853Y-93872354D01*
X174736354Y-93997853D01*
X174588784Y-94096456D01*
X174424812Y-94164376D01*
X174275512Y-94194073D01*
X174250742Y-94199000D01*
X174073258Y-94199000D01*
X174048488Y-94194073D01*
X173899188Y-94164376D01*
X173735216Y-94096456D01*
X173587646Y-93997853D01*
X173462147Y-93872354D01*
X173363544Y-93724784D01*
X173295624Y-93560812D01*
X173261000Y-93386741D01*
X173261000Y-93209259D01*
X173295624Y-93035188D01*
X173363544Y-92871216D01*
X173462147Y-92723646D01*
X173587646Y-92598147D01*
X173735216Y-92499544D01*
X173899188Y-92431624D01*
X174048488Y-92401927D01*
X174073258Y-92397000D01*
X174250742Y-92397000D01*
X174275512Y-92401927D01*
G37*
M02*
