G04 #@! TF.GenerationSoftware,KiCad,Pcbnew,(5.1.6-0-10_14)*
G04 #@! TF.CreationDate,2021-05-11T12:02:37-04:00*
G04 #@! TF.ProjectId,venti-zero,76656e74-692d-47a6-9572-6f2e6b696361,1.0*
G04 #@! TF.SameCoordinates,Original*
G04 #@! TF.FileFunction,Copper,L2,Bot*
G04 #@! TF.FilePolarity,Positive*
%FSLAX46Y46*%
G04 Gerber Fmt 4.6, Leading zero omitted, Abs format (unit mm)*
G04 Created by KiCad (PCBNEW (5.1.6-0-10_14)) date 2021-05-11 12:02:37*
%MOMM*%
%LPD*%
G01*
G04 APERTURE LIST*
G04 #@! TA.AperFunction,ComponentPad*
%ADD10R,1.270000X1.270000*%
G04 #@! TD*
G04 #@! TA.AperFunction,ComponentPad*
%ADD11C,1.270000*%
G04 #@! TD*
G04 #@! TA.AperFunction,ViaPad*
%ADD12R,1.570000X1.570000*%
G04 #@! TD*
G04 #@! TA.AperFunction,ViaPad*
%ADD13C,1.570000*%
G04 #@! TD*
G04 #@! TA.AperFunction,ComponentPad*
%ADD14C,1.524000*%
G04 #@! TD*
G04 #@! TA.AperFunction,ComponentPad*
%ADD15R,1.524000X1.524000*%
G04 #@! TD*
G04 #@! TA.AperFunction,ComponentPad*
%ADD16R,1.700000X1.700000*%
G04 #@! TD*
G04 #@! TA.AperFunction,ComponentPad*
%ADD17O,1.700000X1.700000*%
G04 #@! TD*
G04 #@! TA.AperFunction,ComponentPad*
%ADD18R,1.508000X1.508000*%
G04 #@! TD*
G04 #@! TA.AperFunction,ComponentPad*
%ADD19C,1.508000*%
G04 #@! TD*
G04 #@! TA.AperFunction,ComponentPad*
%ADD20C,3.516000*%
G04 #@! TD*
G04 #@! TA.AperFunction,Conductor*
%ADD21C,0.250000*%
G04 #@! TD*
G04 APERTURE END LIST*
D10*
X173229000Y-98378000D03*
D11*
X170689000Y-98378000D03*
X168149000Y-98378000D03*
X165609000Y-98378000D03*
X163069000Y-98378000D03*
X160529000Y-98378000D03*
X157989000Y-98378000D03*
X155449000Y-98378000D03*
X155449000Y-105998000D03*
X157989000Y-105998000D03*
X160529000Y-105998000D03*
X163069000Y-105998000D03*
X165609000Y-105998000D03*
X168149000Y-105998000D03*
X170689000Y-105998000D03*
X173229000Y-105998000D03*
D12*
X172292000Y-118358000D03*
D13*
X169292000Y-118358000D03*
X166292000Y-118358000D03*
X172292000Y-115358000D03*
X169292000Y-115358000D03*
X166292000Y-115358000D03*
D14*
X121032000Y-102188000D03*
X121032000Y-104728000D03*
X121032000Y-107268000D03*
D15*
X121032000Y-109808000D03*
X178944000Y-109808000D03*
D14*
X178944000Y-107268000D03*
X178944000Y-104728000D03*
X178944000Y-102188000D03*
D16*
X125902000Y-95838000D03*
D17*
X125902000Y-93298000D03*
X128442000Y-95838000D03*
X128442000Y-93298000D03*
X130982000Y-95838000D03*
X130982000Y-93298000D03*
X133522000Y-95838000D03*
X133522000Y-93298000D03*
X136062000Y-95838000D03*
X136062000Y-93298000D03*
X138602000Y-95838000D03*
X138602000Y-93298000D03*
X141142000Y-95838000D03*
X141142000Y-93298000D03*
X143682000Y-95838000D03*
X143682000Y-93298000D03*
X146222000Y-95838000D03*
X146222000Y-93298000D03*
X148762000Y-95838000D03*
X148762000Y-93298000D03*
X151302000Y-95838000D03*
X151302000Y-93298000D03*
X153842000Y-95838000D03*
X153842000Y-93298000D03*
X156382000Y-95838000D03*
X156382000Y-93298000D03*
X158922000Y-95838000D03*
X158922000Y-93298000D03*
X161462000Y-95838000D03*
X161462000Y-93298000D03*
X164002000Y-95838000D03*
X164002000Y-93298000D03*
X166542000Y-95838000D03*
X166542000Y-93298000D03*
X169082000Y-95838000D03*
X169082000Y-93298000D03*
X171622000Y-95838000D03*
X171622000Y-93298000D03*
X174162000Y-95838000D03*
X174162000Y-93298000D03*
D18*
X150369000Y-118634500D03*
D19*
X147829000Y-118634500D03*
X145289000Y-118634500D03*
X142749000Y-118634500D03*
X140209000Y-118634500D03*
X137669000Y-118634500D03*
X135129000Y-118634500D03*
X132589000Y-118634500D03*
X130049000Y-118634500D03*
X127509000Y-118634500D03*
D20*
X127509000Y-105934500D03*
X150369000Y-105934500D03*
D21*
X125425999Y-98854001D02*
X128442000Y-95838000D01*
X125425999Y-118148421D02*
X125425999Y-98854001D01*
X126991079Y-119713501D02*
X125425999Y-118148421D01*
X128969999Y-119713501D02*
X126991079Y-119713501D01*
X130049000Y-118634500D02*
X128969999Y-119713501D01*
X130982000Y-115161500D02*
X130982000Y-95838000D01*
X127509000Y-118634500D02*
X130982000Y-115161500D01*
X130303000Y-93298000D02*
X130982000Y-93298000D01*
X124981997Y-94473001D02*
X129127999Y-94473001D01*
X121032000Y-107268000D02*
X122119001Y-106180999D01*
X124726999Y-94727999D02*
X124981997Y-94473001D01*
X129127999Y-94473001D02*
X130303000Y-93298000D01*
X124726999Y-97985001D02*
X124726999Y-94727999D01*
X122119001Y-106180999D02*
X122119001Y-100592999D01*
X122119001Y-100592999D02*
X124726999Y-97985001D01*
X134697001Y-94473001D02*
X136062000Y-95838000D01*
X132157001Y-94473001D02*
X134697001Y-94473001D01*
X130982000Y-93298000D02*
X132157001Y-94473001D01*
X139966999Y-94473001D02*
X141142000Y-93298000D01*
X137426999Y-94473001D02*
X139966999Y-94473001D01*
X136062000Y-95838000D02*
X137426999Y-94473001D01*
X147586999Y-94473001D02*
X148762000Y-93298000D01*
X142317001Y-94473001D02*
X147586999Y-94473001D01*
X141142000Y-93298000D02*
X142317001Y-94473001D01*
X155017001Y-94473001D02*
X156382000Y-95838000D01*
X149937001Y-94473001D02*
X155017001Y-94473001D01*
X148762000Y-93298000D02*
X149937001Y-94473001D01*
X160097001Y-94662999D02*
X161462000Y-93298000D01*
X157557001Y-94662999D02*
X160097001Y-94662999D01*
X156382000Y-95838000D02*
X157557001Y-94662999D01*
X165366999Y-92122999D02*
X166542000Y-93298000D01*
X162637001Y-92122999D02*
X165366999Y-92122999D01*
X161462000Y-93298000D02*
X162637001Y-92122999D01*
X172797001Y-94473001D02*
X174162000Y-95838000D01*
X167717001Y-94473001D02*
X172797001Y-94473001D01*
X166542000Y-93298000D02*
X167717001Y-94473001D01*
X149289999Y-119713501D02*
X150369000Y-118634500D01*
X146368001Y-119713501D02*
X149289999Y-119713501D01*
X145289000Y-118634500D02*
X146368001Y-119713501D01*
X145289000Y-105065000D02*
X136062000Y-95838000D01*
X145289000Y-118634500D02*
X145289000Y-105065000D01*
X160286999Y-97013001D02*
X161462000Y-95838000D01*
X157933197Y-97013001D02*
X160286999Y-97013001D01*
X157028999Y-99846001D02*
X157028999Y-97917199D01*
X152452001Y-104422999D02*
X157028999Y-99846001D01*
X157028999Y-97917199D02*
X157933197Y-97013001D01*
X152452001Y-114011499D02*
X152452001Y-104422999D01*
X147829000Y-118634500D02*
X152452001Y-114011499D01*
X157989000Y-98378000D02*
X163069000Y-98378000D01*
X162826999Y-94473001D02*
X164002000Y-93298000D01*
X162826999Y-98135999D02*
X162826999Y-94473001D01*
X163069000Y-98378000D02*
X162826999Y-98135999D01*
X152971010Y-120667990D02*
X144782490Y-120667990D01*
X163704000Y-109935000D02*
X152971010Y-120667990D01*
X173737000Y-109935000D02*
X163704000Y-109935000D01*
X144782490Y-120667990D02*
X142749000Y-118634500D01*
X178944000Y-104728000D02*
X173737000Y-109935000D01*
M02*
