G04 #@! TF.GenerationSoftware,KiCad,Pcbnew,(5.1.6-0-10_14)*
G04 #@! TF.CreationDate,2021-05-11T12:07:35-04:00*
G04 #@! TF.ProjectId,venti-zero,76656e74-692d-47a6-9572-6f2e6b696361,1.0*
G04 #@! TF.SameCoordinates,Original*
G04 #@! TF.FileFunction,Other,Fab,Top*
%FSLAX46Y46*%
G04 Gerber Fmt 4.6, Leading zero omitted, Abs format (unit mm)*
G04 Created by KiCad (PCBNEW (5.1.6-0-10_14)) date 2021-05-11 12:07:35*
%MOMM*%
%LPD*%
G01*
G04 APERTURE LIST*
%ADD10C,0.152400*%
%ADD11C,0.150000*%
%ADD12C,0.200000*%
%ADD13C,0.127000*%
%ADD14C,0.015000*%
G04 APERTURE END LIST*
D10*
X174333900Y-98632000D02*
X154344100Y-98632000D01*
X174333900Y-105744000D02*
X174333900Y-98632000D01*
X154344100Y-105744000D02*
X174333900Y-105744000D01*
X154344100Y-98632000D02*
X154344100Y-105744000D01*
X173610000Y-106379000D02*
X173610000Y-105744000D01*
X172848000Y-106379000D02*
X173610000Y-106379000D01*
X172848000Y-105744000D02*
X172848000Y-106379000D01*
X173610000Y-105744000D02*
X172848000Y-105744000D01*
X171070000Y-106379000D02*
X171070000Y-105744000D01*
X170308000Y-106379000D02*
X171070000Y-106379000D01*
X170308000Y-105744000D02*
X170308000Y-106379000D01*
X171070000Y-105744000D02*
X170308000Y-105744000D01*
X168530000Y-106379000D02*
X168530000Y-105744000D01*
X167768000Y-106379000D02*
X168530000Y-106379000D01*
X167768000Y-105744000D02*
X167768000Y-106379000D01*
X168530000Y-105744000D02*
X167768000Y-105744000D01*
X165990000Y-106379000D02*
X165990000Y-105744000D01*
X165228000Y-106379000D02*
X165990000Y-106379000D01*
X165228000Y-105744000D02*
X165228000Y-106379000D01*
X165990000Y-105744000D02*
X165228000Y-105744000D01*
X163450000Y-106379000D02*
X163450000Y-105744000D01*
X162688000Y-106379000D02*
X163450000Y-106379000D01*
X162688000Y-105744000D02*
X162688000Y-106379000D01*
X163450000Y-105744000D02*
X162688000Y-105744000D01*
X160910000Y-106379000D02*
X160910000Y-105744000D01*
X160148000Y-106379000D02*
X160910000Y-106379000D01*
X160148000Y-105744000D02*
X160148000Y-106379000D01*
X160910000Y-105744000D02*
X160148000Y-105744000D01*
X158370000Y-106379000D02*
X158370000Y-105744000D01*
X157608000Y-106379000D02*
X158370000Y-106379000D01*
X157608000Y-105744000D02*
X157608000Y-106379000D01*
X158370000Y-105744000D02*
X157608000Y-105744000D01*
X155830000Y-106379000D02*
X155830000Y-105744000D01*
X155068000Y-106379000D02*
X155830000Y-106379000D01*
X155068000Y-105744000D02*
X155068000Y-106379000D01*
X155830000Y-105744000D02*
X155068000Y-105744000D01*
X155068000Y-97997000D02*
X155068000Y-98632000D01*
X155830000Y-97997000D02*
X155068000Y-97997000D01*
X155830000Y-98632000D02*
X155830000Y-97997000D01*
X155068000Y-98632000D02*
X155830000Y-98632000D01*
X157608000Y-97997000D02*
X157608000Y-98632000D01*
X158370000Y-97997000D02*
X157608000Y-97997000D01*
X158370000Y-98632000D02*
X158370000Y-97997000D01*
X157608000Y-98632000D02*
X158370000Y-98632000D01*
X160148000Y-97997000D02*
X160148000Y-98632000D01*
X160910000Y-97997000D02*
X160148000Y-97997000D01*
X160910000Y-98632000D02*
X160910000Y-97997000D01*
X160148000Y-98632000D02*
X160910000Y-98632000D01*
X162688000Y-97997000D02*
X162688000Y-98632000D01*
X163450000Y-97997000D02*
X162688000Y-97997000D01*
X163450000Y-98632000D02*
X163450000Y-97997000D01*
X162688000Y-98632000D02*
X163450000Y-98632000D01*
X165228000Y-97997000D02*
X165228000Y-98632000D01*
X165990000Y-97997000D02*
X165228000Y-97997000D01*
X165990000Y-98632000D02*
X165990000Y-97997000D01*
X165228000Y-98632000D02*
X165990000Y-98632000D01*
X167768000Y-97997000D02*
X167768000Y-98632000D01*
X168530000Y-97997000D02*
X167768000Y-97997000D01*
X168530000Y-98632000D02*
X168530000Y-97997000D01*
X167768000Y-98632000D02*
X168530000Y-98632000D01*
X170308000Y-97997000D02*
X170308000Y-98632000D01*
X171070000Y-97997000D02*
X170308000Y-97997000D01*
X171070000Y-98632000D02*
X171070000Y-97997000D01*
X170308000Y-98632000D02*
X171070000Y-98632000D01*
X172848000Y-97997000D02*
X172848000Y-98632000D01*
X173610000Y-97997000D02*
X172848000Y-97997000D01*
X173610000Y-98632000D02*
X173610000Y-97997000D01*
X172848000Y-98632000D02*
X173610000Y-98632000D01*
X174333900Y-101883200D02*
G75*
G03*
X174333900Y-102492800I0J-304800D01*
G01*
D11*
X174342000Y-120538000D02*
X164242000Y-120538000D01*
X174342000Y-111778000D02*
X174342000Y-120538000D01*
X164242000Y-111778000D02*
X174342000Y-111778000D01*
X164242000Y-120538000D02*
X164242000Y-111778000D01*
D12*
X150469000Y-121162500D02*
G75*
G03*
X150469000Y-121162500I-100000J0D01*
G01*
D13*
X124969000Y-120539500D02*
X124969000Y-103394500D01*
X152909000Y-120539500D02*
X124969000Y-120539500D01*
X152909000Y-103394500D02*
X152909000Y-120539500D01*
X124969000Y-103394500D02*
X152909000Y-103394500D01*
D11*
X172681380Y-98886000D02*
X172919476Y-98886000D01*
X172824238Y-99124095D02*
X172919476Y-98886000D01*
X172824238Y-98647904D01*
X173109952Y-99028857D02*
X172919476Y-98886000D01*
X173109952Y-98743142D01*
X172681380Y-98886000D02*
X172919476Y-98886000D01*
X172824238Y-99124095D02*
X172919476Y-98886000D01*
X172824238Y-98647904D01*
X173109952Y-99028857D02*
X172919476Y-98886000D01*
X173109952Y-98743142D01*
X120570095Y-95020380D02*
X120570095Y-94020380D01*
X120570095Y-94496571D02*
X121141523Y-94496571D01*
X121141523Y-95020380D02*
X121141523Y-94020380D01*
X122141523Y-95020380D02*
X121570095Y-95020380D01*
X121855809Y-95020380D02*
X121855809Y-94020380D01*
X121760571Y-94163238D01*
X121665333Y-94258476D01*
X121570095Y-94306095D01*
X178570095Y-95020380D02*
X178570095Y-94020380D01*
X178570095Y-94496571D02*
X179141523Y-94496571D01*
X179141523Y-95020380D02*
X179141523Y-94020380D01*
X179570095Y-94115619D02*
X179617714Y-94068000D01*
X179712952Y-94020380D01*
X179951047Y-94020380D01*
X180046285Y-94068000D01*
X180093904Y-94115619D01*
X180141523Y-94210857D01*
X180141523Y-94306095D01*
X180093904Y-94448952D01*
X179522476Y-95020380D01*
X180141523Y-95020380D01*
X178570095Y-118020380D02*
X178570095Y-117020380D01*
X178570095Y-117496571D02*
X179141523Y-117496571D01*
X179141523Y-118020380D02*
X179141523Y-117020380D01*
X179522476Y-117020380D02*
X180141523Y-117020380D01*
X179808190Y-117401333D01*
X179951047Y-117401333D01*
X180046285Y-117448952D01*
X180093904Y-117496571D01*
X180141523Y-117591809D01*
X180141523Y-117829904D01*
X180093904Y-117925142D01*
X180046285Y-117972761D01*
X179951047Y-118020380D01*
X179665333Y-118020380D01*
X179570095Y-117972761D01*
X179522476Y-117925142D01*
X120570095Y-118020380D02*
X120570095Y-117020380D01*
X120570095Y-117496571D02*
X121141523Y-117496571D01*
X121141523Y-118020380D02*
X121141523Y-117020380D01*
X122046285Y-117353714D02*
X122046285Y-118020380D01*
X121808190Y-116972761D02*
X121570095Y-117687047D01*
X122189142Y-117687047D01*
D14*
X126620666Y-121841166D02*
X127096857Y-121841166D01*
X126525428Y-122126880D02*
X126858761Y-121126880D01*
X127192095Y-122126880D01*
X127525428Y-122126880D02*
X127525428Y-121126880D01*
X127763523Y-121126880D01*
X127906380Y-121174500D01*
X128001619Y-121269738D01*
X128049238Y-121364976D01*
X128096857Y-121555452D01*
X128096857Y-121698309D01*
X128049238Y-121888785D01*
X128001619Y-121984023D01*
X127906380Y-122079261D01*
X127763523Y-122126880D01*
X127525428Y-122126880D01*
X128477809Y-122079261D02*
X128620666Y-122126880D01*
X128858761Y-122126880D01*
X128954000Y-122079261D01*
X129001619Y-122031642D01*
X129049238Y-121936404D01*
X129049238Y-121841166D01*
X129001619Y-121745928D01*
X128954000Y-121698309D01*
X128858761Y-121650690D01*
X128668285Y-121603071D01*
X128573047Y-121555452D01*
X128525428Y-121507833D01*
X128477809Y-121412595D01*
X128477809Y-121317357D01*
X128525428Y-121222119D01*
X128573047Y-121174500D01*
X128668285Y-121126880D01*
X128906380Y-121126880D01*
X129049238Y-121174500D01*
X130001619Y-122126880D02*
X129430190Y-122126880D01*
X129715904Y-122126880D02*
X129715904Y-121126880D01*
X129620666Y-121269738D01*
X129525428Y-121364976D01*
X129430190Y-121412595D01*
X130954000Y-122126880D02*
X130382571Y-122126880D01*
X130668285Y-122126880D02*
X130668285Y-121126880D01*
X130573047Y-121269738D01*
X130477809Y-121364976D01*
X130382571Y-121412595D01*
X131906380Y-122126880D02*
X131334952Y-122126880D01*
X131620666Y-122126880D02*
X131620666Y-121126880D01*
X131525428Y-121269738D01*
X131430190Y-121364976D01*
X131334952Y-121412595D01*
X132811142Y-121126880D02*
X132334952Y-121126880D01*
X132287333Y-121603071D01*
X132334952Y-121555452D01*
X132430190Y-121507833D01*
X132668285Y-121507833D01*
X132763523Y-121555452D01*
X132811142Y-121603071D01*
X132858761Y-121698309D01*
X132858761Y-121936404D01*
X132811142Y-122031642D01*
X132763523Y-122079261D01*
X132668285Y-122126880D01*
X132430190Y-122126880D01*
X132334952Y-122079261D01*
X132287333Y-122031642D01*
X133287333Y-122126880D02*
X133287333Y-121126880D01*
X133763523Y-122126880D02*
X133763523Y-121126880D01*
X134001619Y-121126880D01*
X134144476Y-121174500D01*
X134239714Y-121269738D01*
X134287333Y-121364976D01*
X134334952Y-121555452D01*
X134334952Y-121698309D01*
X134287333Y-121888785D01*
X134239714Y-121984023D01*
X134144476Y-122079261D01*
X134001619Y-122126880D01*
X133763523Y-122126880D01*
X135287333Y-121174500D02*
X135192095Y-121126880D01*
X135049238Y-121126880D01*
X134906380Y-121174500D01*
X134811142Y-121269738D01*
X134763523Y-121364976D01*
X134715904Y-121555452D01*
X134715904Y-121698309D01*
X134763523Y-121888785D01*
X134811142Y-121984023D01*
X134906380Y-122079261D01*
X135049238Y-122126880D01*
X135144476Y-122126880D01*
X135287333Y-122079261D01*
X135334952Y-122031642D01*
X135334952Y-121698309D01*
X135144476Y-121698309D01*
X135715904Y-122079261D02*
X135858761Y-122126880D01*
X136096857Y-122126880D01*
X136192095Y-122079261D01*
X136239714Y-122031642D01*
X136287333Y-121936404D01*
X136287333Y-121841166D01*
X136239714Y-121745928D01*
X136192095Y-121698309D01*
X136096857Y-121650690D01*
X135906380Y-121603071D01*
X135811142Y-121555452D01*
X135763523Y-121507833D01*
X135715904Y-121412595D01*
X135715904Y-121317357D01*
X135763523Y-121222119D01*
X135811142Y-121174500D01*
X135906380Y-121126880D01*
X136144476Y-121126880D01*
X136287333Y-121174500D01*
X137287333Y-122126880D02*
X136954000Y-121650690D01*
X136715904Y-122126880D02*
X136715904Y-121126880D01*
X137096857Y-121126880D01*
X137192095Y-121174500D01*
X137239714Y-121222119D01*
X137287333Y-121317357D01*
X137287333Y-121460214D01*
X137239714Y-121555452D01*
X137192095Y-121603071D01*
X137096857Y-121650690D01*
X136715904Y-121650690D01*
M02*
